
<svg version="1.1" xmlns="http://www.w3.org/2000/svg" xmlns:xlink="http://www.w3.org/1999/xlink" x="0px" y="0px"
     viewBox="0 0 1366 1625" style="enable-background:new 0 0 1366 1625; overflow:hidden;" xml:space="preserve">
<style type="text/css">
    .anac3_st0{fill:#17232D;}
    .anac3_st1{fill:#34495E;}
    .anac3_st2{fill:url(#anac3_svgid_1_);}
    .anac3_st3{enable-background:new    ;}
    .anac3_st4{clip-path:url(#anac3_svgid_3_);}
    .anac3_st5{fill:#FFFFFF;}
    .anac3_st6{fill:#8DBC1F;}
    .anac3_st7{fill:#E8E8E8;}
    .anac3_st8{font-family:'FontAwesome';}
    .anac3_st9{font-size:108.9186px;}
    .anac3_st10{font-family:'Lovelo';}
    .anac3_st11{font-size:27px;}
    .anac3_st12{font-size:27px;}
    .anac3_st13{fill:#F2C6A5;}
    .anac3_st14{fill:#FCD4B1;}
    .anac3_st15{fill:#F4C6A4;}
    .anac3_st16{fill:#9BB9D3;}
    .anac3_st17{fill:none;stroke:#0C0C0C;stroke-width:0.25;stroke-miterlimit:10;}
    .anac3_st18{fill:#1D0421;}
    .anac3_st19{fill:#85A8C4;}
    .anac3_st20{fill:#3F3127;}
    .anac3_st21{opacity:0.4;fill:#3F3127;}
    .anac3_st22{fill:url(#ellipse-fede-anac3_1_);}
    .anac3_st23{fill:none;}
    .anac3_st24{fill:#111110;}
    .anac3_st25{fill:#C1974D;}
    .anac3_st26{fill:#FDC99A;}
    .anac3_st27{fill:#0C0C0C;}
    .anac3_st28{fill:#70121B;}
    .anac3_st29{fill:#161615;}
    .anac3_st30{fill:#B2B1B1;}
    .anac3_st31{fill:none;stroke:#0C0C0C;stroke-width:0.25;stroke-miterlimit:10;stroke-dasharray:0.496,0.496;}
    .anac3_st32{fill:#7C7A7A;}
    .anac3_st33{fill:#9B9898;}
    .anac3_st34{fill:#CCC6C6;}
    .anac3_st35{fill:url(#ellipse-al-anac3_1_);}
    .anac3_st36{fill:#DEDFE0;}
    .anac3_st37{fill:#AAABB0;}
    .anac3_st38{fill:#1C1611;}
    .anac3_st39{fill:#020202;}
    .anac3_st40{fill:url(#ellipse-jeff-anac3_1_);}
    .anac3_st41{opacity:0.8;fill:#8DBC1F;}
    .anac3_st42{fill:#999999;}
    .anac3_st43{fill:#B3B3B3;}
    .anac3_st44{fill:#87AD1E;}
    .anac3_st45{fill:#E6E6E6;}
    .anac3_st46{fill:#CCCCCC;}
    .anac3_st47{fill:#333333;}
    .anac3_st48{fill:#808080;}
    .anac3_st49{fill:#4D4D4D;}
    .anac3_st50{fill:#34495E;stroke:#17232D;stroke-width:3;stroke-miterlimit:10;}
</style>
    <g id="base-anac3">
        <rect x="233" y="320" class="anac3_st0" width="28" height="373"/>
        <rect x="1104.9" y="334" class="anac3_st0" width="28" height="373"/>
        <rect x="672.9" y="247" class="anac3_st0" width="28" height="373"/>
        <ellipse class="anac3_st1" cx="246.9" cy="404.8" rx="148.6" ry="47.8"/>
        <polyline class="anac3_st0" points="1200.9,1284.3 1368,1284.3 1368,1474 1293,1474 	"/>
        <line class="anac3_st0" x1="164.7" y1="1284.3" x2="1200.9" y2="1284.3"/>
        <polyline class="anac3_st0" points="73.3,1474 0,1474 0,1284.3 164.7,1284.3 	"/>
        <rect x="410" y="680" class="anac3_st0" width="67" height="357"/>
        <rect x="891" y="680" class="anac3_st0" width="67" height="357"/>
        <linearGradient id="anac3_svgid_1_" gradientUnits="userSpaceOnUse" x1="0" y1="1152.5001" x2="1366" y2="1152.5001">
            <stop  offset="0" style="stop-color:#34495E"/>
            <stop  offset="0.4789" style="stop-color:#343E5B"/>
            <stop  offset="1" style="stop-color:#34495E"/>
        </linearGradient>
        <polygon class="anac3_st2" points="1366,1625 1200.9,1284 1366,1284 1274.6,1161 1127.1,1161 905.6,792 907,792 958,680 809.5,680
		759,791 758.3,791 740,680 629,680 610.2,791 609.5,791 559,680 410.5,680 461,791 460,791 238.4,1161 91.4,1161 0,1284
		164.7,1284 0,1625 	"/>
        <g>
            <g>
                <g class="anac3_st3">
                    <defs>
                        <rect id="anac3_svgid_2_" x="525" y="866" class="anac3_st3" width="330" height="95.2"/>
                    </defs>
                    <clipPath id="anac3_svgid_3_">
                        <use xlink:href="#anac3_svgid_2_"  style="overflow:visible;"/>
                    </clipPath>
                    <g class="anac3_st4">
                        <g>
                            <g>
                                <g>
                                    <path class="anac3_st5" d="M568.5,950.2v-2.5h3c0.3,0,0.5,0,0.8,0c0.2,0,0.4,0.1,0.6,0.2c0.2,0.1,0.3,0.2,0.4,0.4
									c0.1,0.2,0.2,0.4,0.2,0.6c0,0.2-0.1,0.4-0.2,0.6c-0.1,0.2-0.3,0.3-0.5,0.4c-0.2,0.1-0.4,0.2-0.6,0.2s-0.5,0.1-0.7,0.1H568.5
									 M571.5,946.7h-5v7.5h2v-2.9h3c0.8,0,1.5-0.1,2-0.2c0.5-0.2,0.9-0.3,1.2-0.6c0.3-0.2,0.5-0.5,0.6-0.7
									c0.1-0.3,0.2-0.5,0.2-0.7c0-0.2-0.1-0.5-0.2-0.8c-0.1-0.3-0.3-0.5-0.6-0.8c-0.3-0.2-0.7-0.4-1.2-0.6
									C573,946.7,572.3,946.7,571.5,946.7"/>
                                    <path class="anac3_st5" d="M579.1,950.1v-2.3h3.2c0.3,0,0.5,0,0.7,0c0.2,0,0.5,0.1,0.6,0.2c0.2,0.1,0.3,0.2,0.4,0.3
									c0.1,0.2,0.2,0.3,0.2,0.6c0,0.4-0.2,0.7-0.5,0.9c-0.3,0.2-0.8,0.3-1.4,0.3H579.1 M582.6,946.7h-5.4v7.5h2v-3.1h2.9
									c0.5,0,0.8,0,1.1,0.1c0.3,0.1,0.5,0.2,0.7,0.4c0.2,0.2,0.3,0.4,0.4,0.6s0.1,0.5,0.1,0.9c0,0.2,0,0.4,0,0.6
									c0,0.2,0.1,0.4,0.3,0.5h2.1c-0.2-0.2-0.4-0.4-0.5-0.8c-0.1-0.4-0.1-0.8-0.1-1.2c0-0.3-0.1-0.5-0.2-0.7
									c-0.1-0.2-0.3-0.4-0.4-0.5c-0.2-0.1-0.4-0.2-0.5-0.3c-0.2-0.1-0.4-0.1-0.5-0.1v0c0.1,0,0.3-0.1,0.5-0.1
									c0.2-0.1,0.4-0.2,0.6-0.3c0.2-0.1,0.4-0.3,0.6-0.6c0.2-0.2,0.2-0.5,0.2-0.9c0-0.6-0.3-1.1-0.9-1.5
									C584.8,946.8,583.8,946.7,582.6,946.7"/>
                                    <path class="anac3_st5" d="M593.2,953.2c-0.6,0-1.1-0.1-1.6-0.2c-0.4-0.2-0.8-0.4-1.1-0.6c-0.3-0.3-0.5-0.6-0.6-0.9
									c-0.1-0.3-0.2-0.7-0.2-1c0-0.4,0.1-0.7,0.2-1.1c0.1-0.3,0.3-0.6,0.6-0.9c0.3-0.3,0.6-0.5,1.1-0.6s1-0.2,1.6-0.2
									c0.6,0,1.1,0.1,1.6,0.2c0.4,0.2,0.8,0.4,1.1,0.6c0.3,0.3,0.5,0.6,0.6,0.9c0.1,0.3,0.2,0.7,0.2,1.1c0,0.4-0.1,0.7-0.2,1
									s-0.3,0.6-0.6,0.9c-0.3,0.3-0.6,0.5-1.1,0.6C594.4,953.2,593.8,953.2,593.2,953.2 M593.2,946.5c-0.8,0-1.6,0.1-2.3,0.3
									c-0.7,0.2-1.2,0.5-1.7,0.9c-0.5,0.4-0.8,0.8-1.1,1.2c-0.3,0.5-0.4,1-0.4,1.5c0,0.5,0.1,1,0.4,1.5c0.2,0.5,0.6,0.9,1.1,1.2
									c0.5,0.4,1,0.6,1.7,0.8c0.7,0.2,1.4,0.3,2.3,0.3c0.9,0,1.6-0.1,2.3-0.3c0.7-0.2,1.2-0.5,1.7-0.8c0.5-0.4,0.8-0.8,1.1-1.2
									c0.3-0.5,0.4-1,0.4-1.5c0-0.5-0.1-1-0.4-1.5c-0.3-0.5-0.6-0.9-1.1-1.2c-0.5-0.4-1-0.6-1.7-0.9
									C594.8,946.6,594.1,946.5,593.2,946.5"/>
                                    <path class="anac3_st5" d="M602.5,953.1v-5.3h2c0.8,0,1.4,0.1,1.9,0.2s0.9,0.3,1.2,0.6s0.5,0.5,0.6,0.8c0.1,0.3,0.2,0.7,0.2,1.1
									c0,0.4-0.1,0.7-0.2,1.1s-0.3,0.6-0.6,0.8c-0.3,0.2-0.7,0.4-1.2,0.6s-1.1,0.2-1.9,0.2H602.5 M605.2,946.7h-4.7v7.5h4.7
									c0.9,0,1.6-0.1,2.3-0.3c0.6-0.2,1.2-0.5,1.6-0.8c0.4-0.3,0.7-0.7,0.9-1.2c0.2-0.5,0.3-0.9,0.3-1.5c0-0.5-0.1-1-0.3-1.5
									c-0.2-0.5-0.5-0.9-0.9-1.2c-0.4-0.3-0.9-0.6-1.6-0.8C606.9,946.8,606.1,946.7,605.2,946.7"/>
                                    <path class="anac3_st5" d="M621.2,946.7h-2v4.4c0,0.3,0,0.5-0.1,0.8c0,0.3-0.1,0.5-0.3,0.7c-0.2,0.2-0.4,0.4-0.8,0.5
									c-0.4,0.1-0.9,0.2-1.5,0.2c-0.6,0-1.2-0.1-1.5-0.2c-0.4-0.1-0.6-0.3-0.8-0.5c-0.2-0.2-0.3-0.4-0.3-0.7
									c0-0.3-0.1-0.5-0.1-0.8v-4.4h-2v4.8c0,0.5,0.1,0.9,0.3,1.3c0.2,0.4,0.5,0.6,1,0.9c0.4,0.2,0.9,0.4,1.5,0.5
									c0.6,0.1,1.2,0.2,1.9,0.2c0.7,0,1.3-0.1,1.9-0.2s1.1-0.3,1.5-0.5c0.4-0.2,0.7-0.5,0.9-0.9c0.2-0.4,0.3-0.8,0.3-1.3V946.7"/>
                                    <polyline class="anac3_st5" points="625.5,946.7 623.5,946.7 623.5,954.1 625.5,954.1 625.5,946.7 								"/>
                                    <polyline class="anac3_st5" points="636.1,946.7 626.9,946.7 626.9,947.8 630.5,947.8 630.5,954.1 632.5,954.1 632.5,947.8
									636.1,947.8 636.1,946.7 								"/>
                                    <path class="anac3_st5" d="M641.3,946.5c-0.5,0-1,0-1.5,0.1c-0.5,0.1-0.9,0.2-1.3,0.4c-0.4,0.2-0.7,0.4-0.9,0.7
									c-0.2,0.3-0.4,0.6-0.4,1c0,0.2,0,0.4,0.1,0.6c0.1,0.2,0.2,0.4,0.4,0.5c0.2,0.2,0.5,0.3,0.8,0.4c0.3,0.1,0.7,0.3,1.2,0.3
									c0.8,0.1,1.4,0.2,2,0.3c0.5,0.1,1,0.2,1.4,0.3c0.2,0.1,0.4,0.1,0.6,0.3s0.3,0.3,0.3,0.6c0,0.1,0,0.3-0.1,0.4
									c-0.1,0.1-0.2,0.3-0.4,0.4c-0.2,0.1-0.4,0.2-0.8,0.3c-0.3,0.1-0.7,0.1-1.1,0.1c-0.4,0-0.8,0-1.1-0.1
									c-0.4-0.1-0.7-0.2-0.9-0.3c-0.3-0.1-0.5-0.3-0.6-0.5c-0.2-0.2-0.2-0.4-0.2-0.7h-2c0,0.5,0.1,0.9,0.4,1.2
									c0.3,0.3,0.6,0.6,1,0.8c0.4,0.2,0.9,0.4,1.5,0.5c0.6,0.1,1.2,0.2,1.8,0.2c0.6,0,1.1,0,1.7-0.1c0.5-0.1,1-0.2,1.4-0.4
									c0.4-0.2,0.8-0.4,1-0.7s0.4-0.6,0.4-1.1c0-0.2-0.1-0.4-0.1-0.6c-0.1-0.2-0.2-0.4-0.4-0.5c-0.2-0.2-0.4-0.3-0.7-0.5
									c-0.3-0.1-0.6-0.2-1-0.3c-0.2,0-0.4-0.1-0.7-0.1c-0.3-0.1-0.7-0.1-1.1-0.2c-0.4-0.1-0.7-0.1-1-0.2c-0.3-0.1-0.5-0.1-0.5-0.1
									c-0.4-0.1-0.7-0.2-1-0.3c-0.2-0.1-0.4-0.4-0.4-0.6c0-0.2,0.1-0.3,0.2-0.5c0.1-0.1,0.3-0.2,0.5-0.3c0.2-0.1,0.4-0.1,0.7-0.2
									c0.2,0,0.5,0,0.7,0c0.7,0,1.3,0.1,1.7,0.3c0.5,0.2,0.7,0.5,0.8,1h2c0-0.4-0.1-0.7-0.4-1c-0.2-0.3-0.5-0.5-0.9-0.7
									c-0.4-0.2-0.9-0.4-1.4-0.5C642.5,946.5,641.9,946.5,641.3,946.5"/>
                                    <polyline class="anac3_st5" points="660.4,946.7 652.2,946.7 652.2,954.1 660.5,954.1 660.5,953 654.2,953 654.2,950.8
									659.9,950.8 659.9,949.7 654.2,949.7 654.2,947.8 660.4,947.8 660.4,946.7 								"/>
                                    <polyline class="anac3_st5" points="670.4,946.7 661.2,946.7 661.2,947.8 664.8,947.8 664.8,954.1 666.8,954.1 666.8,947.8
									670.4,947.8 670.4,946.7 								"/>
                                    <path class="anac3_st5" d="M680,946.5c-0.5,0-1,0-1.5,0.1c-0.5,0.1-1,0.2-1.3,0.4c-0.4,0.2-0.7,0.4-0.9,0.7
									c-0.2,0.3-0.4,0.6-0.4,1c0,0.2,0,0.4,0.1,0.6c0.1,0.2,0.2,0.4,0.4,0.5c0.2,0.2,0.5,0.3,0.8,0.4c0.3,0.1,0.7,0.3,1.2,0.3
									c0.8,0.1,1.4,0.2,2,0.3c0.5,0.1,1,0.2,1.4,0.3c0.2,0.1,0.5,0.1,0.6,0.3s0.3,0.3,0.3,0.6c0,0.1,0,0.3-0.1,0.4
									c-0.1,0.1-0.2,0.3-0.4,0.4c-0.2,0.1-0.4,0.2-0.7,0.3c-0.3,0.1-0.7,0.1-1.1,0.1c-0.4,0-0.8,0-1.1-0.1
									c-0.3-0.1-0.6-0.2-0.9-0.3c-0.3-0.1-0.5-0.3-0.6-0.5c-0.2-0.2-0.2-0.4-0.2-0.7h-2c0,0.5,0.1,0.9,0.4,1.2
									c0.3,0.3,0.6,0.6,1,0.8c0.4,0.2,0.9,0.4,1.5,0.5c0.6,0.1,1.2,0.2,1.8,0.2c0.6,0,1.1,0,1.7-0.1c0.5-0.1,1-0.2,1.4-0.4
									c0.4-0.2,0.8-0.4,1-0.7c0.3-0.3,0.4-0.6,0.4-1.1c0-0.2,0-0.4-0.1-0.6c-0.1-0.2-0.2-0.4-0.4-0.5c-0.2-0.2-0.4-0.3-0.7-0.5
									s-0.6-0.2-1-0.3c-0.2,0-0.4-0.1-0.7-0.1c-0.3-0.1-0.7-0.1-1.1-0.2c-0.4-0.1-0.7-0.1-1-0.2c-0.3-0.1-0.5-0.1-0.5-0.1
									c-0.4-0.1-0.7-0.2-1-0.3c-0.3-0.1-0.4-0.4-0.4-0.6c0-0.2,0.1-0.3,0.2-0.5c0.1-0.1,0.3-0.2,0.5-0.3c0.2-0.1,0.4-0.1,0.7-0.2
									c0.3,0,0.5,0,0.7,0c0.7,0,1.3,0.1,1.7,0.3c0.4,0.2,0.7,0.5,0.7,1h2c0-0.4-0.1-0.7-0.4-1s-0.5-0.5-1-0.7
									c-0.4-0.2-0.9-0.4-1.4-0.5C681.2,946.5,680.6,946.5,680,946.5"/>
                                    <polyline class="anac3_st5" points="694.7,946.7 686.5,946.7 686.5,954.1 694.8,954.1 694.8,953 688.5,953 688.5,950.8
									694.2,950.8 694.2,949.7 688.5,949.7 688.5,947.8 694.7,947.8 694.7,946.7 								"/>
                                    <path class="anac3_st5" d="M698.5,950.1v-2.3h3.2c0.3,0,0.5,0,0.7,0c0.2,0,0.5,0.1,0.6,0.2c0.2,0.1,0.3,0.2,0.4,0.3
									c0.1,0.2,0.2,0.3,0.2,0.6c0,0.4-0.2,0.7-0.5,0.9c-0.3,0.2-0.8,0.3-1.4,0.3H698.5 M702,946.7h-5.4v7.5h2v-3.1h2.9
									c0.5,0,0.8,0,1.1,0.1c0.3,0.1,0.5,0.2,0.7,0.4c0.2,0.2,0.3,0.4,0.4,0.6c0.1,0.2,0.1,0.5,0.1,0.9c0,0.2,0,0.4,0,0.6
									c0,0.2,0.1,0.4,0.3,0.5h2.1c-0.2-0.2-0.4-0.4-0.5-0.8c-0.1-0.4-0.2-0.8-0.2-1.2c0-0.3-0.1-0.5-0.2-0.7
									c-0.1-0.2-0.3-0.4-0.4-0.5c-0.2-0.1-0.4-0.2-0.5-0.3c-0.2-0.1-0.4-0.1-0.6-0.1v0c0.1,0,0.3-0.1,0.5-0.1
									c0.2-0.1,0.4-0.2,0.6-0.3c0.2-0.1,0.4-0.3,0.6-0.6c0.2-0.2,0.2-0.5,0.2-0.9c0-0.6-0.3-1.1-0.9-1.5
									C704.2,946.8,703.2,946.7,702,946.7"/>
                                    <polyline class="anac3_st5" points="716.1,946.7 714.1,946.7 711.1,952.6 711.1,952.6 708.2,946.7 706.2,946.7 710,954.1
									712.2,954.1 716.1,946.7 								"/>
                                    <polyline class="anac3_st5" points="719.2,946.7 717.2,946.7 717.2,954.1 719.2,954.1 719.2,946.7 								"/>
                                    <path class="anac3_st5" d="M726.5,946.5c-0.9,0-1.6,0.1-2.3,0.3c-0.7,0.2-1.3,0.5-1.7,0.9c-0.5,0.4-0.8,0.8-1.1,1.2
									c-0.3,0.5-0.4,1-0.4,1.5c0,0.5,0.1,1,0.4,1.5c0.3,0.5,0.6,0.9,1.1,1.2c0.5,0.4,1,0.6,1.7,0.8c0.7,0.2,1.4,0.3,2.3,0.3
									c0.7,0,1.3-0.1,1.9-0.2c0.6-0.1,1.1-0.4,1.5-0.6c0.4-0.3,0.8-0.6,1-1c0.3-0.4,0.4-0.8,0.4-1.2h-1.9c0,0.3-0.1,0.5-0.3,0.8
									c-0.1,0.2-0.3,0.4-0.6,0.6c-0.2,0.2-0.5,0.3-0.9,0.4c-0.3,0.1-0.7,0.1-1.2,0.1c-0.6,0-1.1-0.1-1.6-0.2
									c-0.5-0.2-0.8-0.4-1.1-0.6c-0.3-0.3-0.5-0.6-0.6-0.9c-0.1-0.3-0.2-0.7-0.2-1c0-0.4,0.1-0.7,0.2-1.1c0.1-0.3,0.3-0.6,0.6-0.9
									c0.3-0.3,0.6-0.5,1.1-0.6c0.4-0.2,1-0.2,1.6-0.2c0.4,0,0.8,0,1.1,0.1c0.3,0.1,0.6,0.2,0.8,0.3c0.2,0.1,0.4,0.3,0.6,0.5
									c0.1,0.2,0.3,0.4,0.4,0.6h2c-0.1-0.4-0.2-0.8-0.5-1.1c-0.3-0.3-0.6-0.6-1-0.8s-0.9-0.4-1.5-0.5
									C727.7,946.5,727.1,946.5,726.5,946.5"/>
                                    <polyline class="anac3_st5" points="741.4,946.7 733.2,946.7 733.2,954.1 741.5,954.1 741.5,953 735.2,953 735.2,950.8
									740.9,950.8 740.9,949.7 735.2,949.7 735.2,947.8 741.4,947.8 741.4,946.7 								"/>
                                    <path class="anac3_st5" d="M747.1,946.5c-0.5,0-1,0-1.5,0.1c-0.5,0.1-0.9,0.2-1.3,0.4c-0.4,0.2-0.7,0.4-1,0.7
									c-0.2,0.3-0.4,0.6-0.4,1c0,0.2,0,0.4,0.1,0.6c0.1,0.2,0.2,0.4,0.4,0.5c0.2,0.2,0.5,0.3,0.8,0.4c0.3,0.1,0.7,0.3,1.2,0.3
									c0.8,0.1,1.4,0.2,2,0.3c0.5,0.1,1,0.2,1.4,0.3c0.2,0.1,0.5,0.1,0.6,0.3s0.3,0.3,0.3,0.6c0,0.1,0,0.3-0.1,0.4
									c-0.1,0.1-0.2,0.3-0.4,0.4c-0.2,0.1-0.4,0.2-0.8,0.3c-0.3,0.1-0.7,0.1-1.1,0.1c-0.4,0-0.8,0-1.1-0.1
									c-0.4-0.1-0.7-0.2-0.9-0.3c-0.3-0.1-0.5-0.3-0.6-0.5c-0.2-0.2-0.2-0.4-0.2-0.7h-2c0,0.5,0.1,0.9,0.4,1.2
									c0.3,0.3,0.6,0.6,1,0.8c0.4,0.2,0.9,0.4,1.5,0.5c0.6,0.1,1.2,0.2,1.8,0.2c0.6,0,1.1,0,1.7-0.1c0.5-0.1,1-0.2,1.4-0.4
									c0.4-0.2,0.8-0.4,1-0.7c0.3-0.3,0.4-0.6,0.4-1.1c0-0.2,0-0.4-0.1-0.6c-0.1-0.2-0.2-0.4-0.4-0.5c-0.2-0.2-0.4-0.3-0.7-0.5
									c-0.3-0.1-0.6-0.2-1-0.3c-0.1,0-0.4-0.1-0.7-0.1c-0.3-0.1-0.7-0.1-1.1-0.2c-0.4-0.1-0.7-0.1-1-0.2c-0.3-0.1-0.5-0.1-0.5-0.1
									c-0.4-0.1-0.7-0.2-1-0.3c-0.3-0.1-0.4-0.4-0.4-0.6c0-0.2,0.1-0.3,0.2-0.5c0.1-0.1,0.3-0.2,0.5-0.3c0.2-0.1,0.4-0.1,0.7-0.2
									c0.2,0,0.5,0,0.7,0c0.7,0,1.3,0.1,1.7,0.3c0.4,0.2,0.7,0.5,0.7,1h2c0-0.4-0.1-0.7-0.3-1c-0.2-0.3-0.6-0.5-1-0.7
									c-0.4-0.2-0.9-0.4-1.4-0.5C748.3,946.5,747.7,946.5,747.1,946.5"/>
                                    <polyline class="anac3_st5" points="769.8,946.7 767,946.7 763.9,952.5 763.9,952.5 760.8,946.7 758,946.7 758,954.1 759.9,954.1
									759.9,948.4 759.9,948.4 763,954.1 764.7,954.1 767.8,948.4 767.9,948.4 767.9,954.1 769.8,954.1 769.8,946.7 								"/>
                                    <path class="anac3_st5" d="M781.4,946.7h-2v4.4c0,0.3,0,0.5-0.1,0.8c0,0.3-0.1,0.5-0.3,0.7c-0.2,0.2-0.4,0.4-0.8,0.5
									c-0.4,0.1-0.9,0.2-1.5,0.2s-1.2-0.1-1.5-0.2c-0.4-0.1-0.6-0.3-0.8-0.5c-0.2-0.2-0.3-0.4-0.3-0.7c0-0.3-0.1-0.5-0.1-0.8v-4.4
									h-2v4.8c0,0.5,0.1,0.9,0.3,1.3c0.2,0.4,0.5,0.6,1,0.9c0.4,0.2,0.9,0.4,1.5,0.5s1.2,0.2,1.9,0.2c0.7,0,1.3-0.1,1.9-0.2
									s1.1-0.3,1.5-0.5c0.4-0.2,0.7-0.5,1-0.9c0.2-0.4,0.3-0.8,0.3-1.3V946.7"/>
                                    <polyline class="anac3_st5" points="785.7,946.7 783.7,946.7 783.7,954.1 791.5,954.1 791.5,953 785.7,953 785.7,946.7
									"/>
                                    <polyline class="anac3_st5" points="799.5,946.7 790.3,946.7 790.3,947.8 793.9,947.8 793.9,954.1 795.9,954.1 795.9,947.8
									799.5,947.8 799.5,946.7 								"/>
                                    <polyline class="anac3_st5" points="802.8,946.7 800.8,946.7 800.8,954.1 802.8,954.1 802.8,946.7 								"/>
                                    <polyline class="anac3_st5" points="817.1,946.7 814.3,946.7 811.2,952.5 811.2,952.5 808,946.7 805.2,946.7 805.2,954.1
									807.1,954.1 807.1,948.4 807.2,948.4 810.3,954.1 812,954.1 815.1,948.4 815.2,948.4 815.2,954.1 817.1,954.1 817.1,946.7
																	"/>
                                    <path class="anac3_st5" d="M827.6,946.7h-8.2v7.5h8.3V953h-6.3v-2.2h5.7v-1.1h-5.7v-2h6.2V946.7 M825.7,944.4h-2.2l-1.4,1.5h1.3
									L825.7,944.4"/>
                                    <path class="anac3_st5" d="M831.5,953.1v-5.3h2c0.8,0,1.4,0.1,1.9,0.2s0.9,0.3,1.2,0.6c0.3,0.2,0.5,0.5,0.6,0.8
									c0.1,0.3,0.1,0.7,0.1,1.1c0,0.4,0,0.7-0.1,1.1c-0.1,0.3-0.3,0.6-0.6,0.8c-0.3,0.2-0.7,0.4-1.2,0.6s-1.1,0.2-1.9,0.2H831.5
									 M834.2,946.7h-4.7v7.5h4.7c0.9,0,1.6-0.1,2.3-0.3c0.6-0.2,1.2-0.5,1.6-0.8c0.4-0.3,0.7-0.7,0.9-1.2s0.3-0.9,0.3-1.5
									c0-0.5-0.1-1-0.3-1.5s-0.5-0.9-0.9-1.2c-0.4-0.3-0.9-0.6-1.6-0.8C835.8,946.8,835.1,946.7,834.2,946.7"/>
                                    <polyline class="anac3_st5" points="843,946.7 841,946.7 841,954.1 843,954.1 843,946.7 								"/>
                                    <path class="anac3_st5" d="M847.8,951.2l1.7-3.2h0.1l1.7,3.2H847.8 M850.6,946.7h-2.1l-4.4,7.5h2.1l1.1-2h4.5l1.1,2h2.1
									L850.6,946.7"/>
                                    <path class="anac3_st6" d="M566.5,866c-11.4,0-21.2,2.7-29.3,8c-8.1,5.3-12.2,11.7-12.2,19.2v68h20.7v-68c0-3.7,2-6.9,6.1-9.6
									c4.1-2.7,8.9-4,14.7-4c5.7,0,10.6,1.3,14.6,4c4.1,2.7,6.1,5.9,6.1,9.6v13.6c0,3.7-2,6.9-6.1,9.6c-4.1,2.7-9,4-14.6,4V934
									c11.4,0,21.2-2.7,29.3-8c8.1-5.3,12.2-11.7,12.2-19.2v-13.6c0-7.5-4.1-13.9-12.2-19.2C587.7,868.6,577.9,866,566.5,866
									 M639.1,866h-20.7c0,7.5,4.1,13.9,12.2,19.2c8.1,5.3,17.9,8,29.3,8c5.7,0,10.6,1.3,14.7,4c4,2.7,6.1,5.9,6.1,9.6
									c0,3.7-2,6.9-6.1,9.6c-4.1,2.7-8.9,4-14.7,4s-10.6-1.3-14.7-4c-4-2.7-6.1-5.9-6.1-9.6h-20.7c0,7.5,4.1,13.9,12.2,19.2
									c8.1,5.3,17.9,8,29.3,8c11.4,0,21.2-2.7,29.3-8c8.1-5.3,12.2-11.7,12.2-19.2c0-7.5-4.1-13.9-12.2-19.2
									c-8.1-5.3-17.9-8-29.3-8c-5.7,0-10.6-1.3-14.7-4C641.1,872.9,639.1,869.7,639.1,866 M731.1,866h-20.7v68h20.7v-54.4
									c5.7,0,10.6,1.3,14.6,4c4.1,2.7,6.1,5.9,6.1,9.6V934h20.7v-40.8c0-7.5-4.1-13.9-12.2-19.2C752.3,868.6,742.5,866,731.1,866
									 M772.6,866v13.6c5.7,0,10.6,1.3,14.7,4c4.1,2.7,6.1,5.9,6.1,9.6V934H814v-40.8c0-7.5-4.1-13.9-12.2-19.2
									C793.7,868.6,784,866,772.6,866"/>
                                </g>
                            </g>
                        </g>
                    </g>
                </g>
            </g>
        </g>
        <ellipse class="anac3_st1" cx="1118.9" cy="418.8" rx="148.6" ry="47.8"/>
        <ellipse class="anac3_st1" cx="686.9" cy="333.8" rx="148.6" ry="47.8"/>
        <g id="tableau-dev-anac3">
            <rect x="96.9" y="99" class="anac3_st1" width="300" height="221"/>
            <text id="symb-dev-anac3" transform="matrix(1 0 0 1 188.5838 216.4404)" class="anac3_st7 anac3_st8 anac3_st9"></text>
            <text id="dev-anac3" transform="matrix(1 0 0 1 130.3819 276.834)" class="anac3_st7 anac3_st10 anac3_st11">développement</text>
        </g>
        <g id="tableau-com-anac3">
            <rect x="968.9" y="113" class="anac3_st1" width="300" height="221"/>
            <text id="sym-com-anac3" transform="matrix(1 0 0 1 1064.4736 230.4404)" class="anac3_st7 anac3_st8 anac3_st9"></text>
            <text id="com-anac3" transform="matrix(1 0 0 1 996.5331 290.834)" class="anac3_st7 anac3_st10 anac3_st11">Communication</text>
        </g>
        <g id="tableau-gestion-anac3">
            <rect x="536.9" y="26" class="anac3_st1" width="300" height="221"/>
            <text id="sym-gestion-anac3" transform="matrix(1 0 0 1 628.5837 143.4404)" class="anac3_st7 anac3_st8 anac3_st9"></text>
            <text id="gestion.anac3" transform="matrix(1 0 0 1 558.6238 216.6274)" class="anac3_st7 anac3_st10 anac3_st12">gestion de projet</text>
        </g>
        <!--cylindres-->
        <path class="anac3_st0" d="M246.9,452.6c-82,0-148.6-21.4-148.6-47.8v286.4c0,26.4,66.5,47.8,148.6,47.8s148.6-21.4,148.6-47.8V404.8
		C395.5,431.2,329,452.6,246.9,452.6z"/>
        <path class="anac3_st0" d="M1118.9,466.6c-82,0-148.6-21.4-148.6-47.8v286.4c0,26.4,66.5,47.8,148.6,47.8s148.6-21.4,148.6-47.8V418.8
		C1267.5,445.2,1201,466.6,1118.9,466.6z"/>
        <path class="anac3_st0" d="M686.9,381.6c-82,0-148.6-21.4-148.6-47.8v286.4c0,26.4,66.5,47.8,148.6,47.8s148.6-21.4,148.6-47.8V333.8
		C835.5,360.2,769,381.6,686.9,381.6z"/>
    </g>
    <g id="balles-anac3">
        <g id="balle-fede-anac3">
            <defs>
                <circle id="clipper-fede-anac3" class="anac3_st23" cx="686" cy="1115.8" r="70.1"/>
                <clipPath id="clipPath-fede-anac3">
                    <use xlink:href="#clipper-fede-anac3"  overflow="visible"/>
                </clipPath>
            </defs>
            <g clip-path="url(#clipPath-fede-anac3)">
                <rect id="rect-fede-anac3" x="476" y="905.8" class="anac3_st7" width="420" height="420"/>
                <g id="fede-anac3">
                    <rect x="681.3" y="1137.6" class="anac3_st13" width="8.8" height="7.8"/>
                    <path class="anac3_st13" d="M703.2,1149.8c-3.1-3.6-9.5-5.8-16.8-5.8c-7.3,0-13.6,2.2-16.8,5.7C668.2,1151.3,704.5,1151.3,703.2,1149.8"
                    />
                    <path class="anac3_st14" d="M708.5,1101.3c0,14-4.9,39.4-22.7,39.4c-17.8,0-22-25.6-22-39.6s9.2-19.8,22-19.8
					C698.5,1081.3,708.5,1087.3,708.5,1101.3"/>
                    <polygon class="anac3_st15" points="682.5,1123.3 688.5,1123.3 685.7,1125.6 		"/>
                    <path class="anac3_st16" d="M669.3,1150c0,0,4.3-5.7,11.1-5.5c0,0,2,2.6,5.3,2.6c3.2-0.1,5.1-2.8,5.1-2.8s11.8,0.2,13.2,5.7
					C705.3,1155.6,670.2,1156.9,669.3,1150"/>
                    <path class="anac3_st17" d="M681.4,1144.4"/>
                    <path class="anac3_st17" d="M690,1144.2"/>
                    <path class="anac3_st14" d="M709,1115.9c-0.4,1.1-1.2,2.5-2.1,2.2c-0.9-0.3-0.3-1.5-0.1-2.8s0.1-4.4,1.6-4.2S709.4,1114.7,709,1115.9"/>
                    <path class="anac3_st14" d="M663.1,1115.9c0.4,1.1,1.2,2.5,2.1,2.2c0.9-0.3,0.3-1.5,0.1-2.8s-0.1-4.4-1.6-4.2
					C662.1,1111.3,662.7,1114.7,663.1,1115.9"/>
                    <path class="anac3_st18" d="M686.9,1112.5C686.9,1112.5,686.9,1112.5,686.9,1112.5C686.9,1112.5,686.9,1112.5,686.9,1112.5L686.9,1112.5
					z"/>
                    <polygon class="anac3_st19" points="681.3,1144.1 685.7,1147.1 681.2,1151.6 678.1,1144.8 		"/>
                    <polygon class="anac3_st19" points="690.1,1144.1 685.8,1147.1 690.3,1151.6 693.6,1144.7 		"/>
                    <path class="anac3_st16" d="M685.7,1147.1"/>
                    <path class="anac3_st19" d="M680.5,1144.5c0,0,3.1,2.6,5.2,2.6c2.1,0,5.1-2.9,5.1-2.9l1,0.1c0,0-3.4,3.7-6.1,3.6c-2.7,0-6.2-3.5-6.2-3.5
					"/>
                    <path class="anac3_st20" d="M665.8,1118.9c0,0,0.6,0.4,0.6-0.2c-0.1-4.5-0.6-26.5,6.3-25.1c7.6,1.6,8,2.8,13.4,2.7s7.6-1.6,14.1-2.7
					c5.9-1,5.6,20.7,5.6,25c0.2,0.2,0.6,0.2,0.6,0.2s11.7-40.1-20.7-39.4C654.1,1080,665.8,1118.9,665.8,1118.9z"/>
                    <path class="anac3_st21" d="M665.8,1118.7c0,0,4.1,22.3,20,22c16.9-0.3,20.6-22,20.6-22s-0.3-0.5-0.8,0.2c-2.4,3.9-10.7,17.2-19.8,17.2
					c-9.5,0-17.1-13.5-19.3-17.4C666,1117.9,665.8,1118.7,665.8,1118.7z"/>
                    <path class="anac3_st21" d="M689.8,1128.7h-8.5c-0.7,0-1.4,0.3-1.4-0.1v-0.7c0-0.5,0.6-0.8,1.4-0.8h8.5c0.7,0,1.4,0.4,1.4,0.8v0.7
					C691.1,1129,690.5,1128.7,689.8,1128.7z"/>
                    <path class="anac3_st20" d="M694.6,1080.5c0,0-6.7-4.1-7.5-3.5c0.4,0.1,1.7,0.6,1.8,1.1c-0.6,0-4.9-1.2-6.3-1.2c1,0.3,1.7,1.3,1.7,1.3
					s-3.5,0.1-5.5,1.1c0,0,0.6,0,1,0.1c0.1,0.2-0.5,0.7-0.5,0.7L694.6,1080.5z"/>
                    <circle class="anac3_st20" cx="680.3" cy="1131.8" r="0.6"/>
                </g>
                <radialGradient id="ellipse-fede-anac3_1_" cx="686.0193" cy="1115.8002" r="70.1334" gradientUnits="userSpaceOnUse">
                    <stop  offset="0.6437" style="stop-color:#757575;stop-opacity:0"/>
                    <stop  offset="1" style="stop-color:#757575"/>
                </radialGradient>
                <circle id="ellipse-fede-anac3" class="anac3_st22" cx="686" cy="1115.8" r="70.1"/>
            </g>
        </g>

        <g id="balle-al-anac3">
            <defs>
                <circle id="clipper-al-anac3" class="anac3_st23" cx="686" cy="1115.8" r="70.1"/>
                <clipPath id="clipPath-al-anac3">
                    <use xlink:href="#clipper-al-anac3"  overflow="visible"/>
                </clipPath>
            </defs>
            <g clip-path="url(#clipPath-al-anac3)">
                <rect id="rect-al-anac3" x="476" y="905.8" class="anac3_st7" width="420" height="420"/>
                <g id="al-anac3">
                    <path class="anac3_st24" d="M686.6,1145.9h9.1c0,0,1-2.3-0.2-2.8c-1.2-0.5-8.9,0-8.9,0V1145.9z"/>
                    <path class="anac3_st24" d="M686.6,1145.9h-9.1c0,0-1-2.3,0.2-2.8c1.2-0.5,8.9,0,8.9,0V1145.9z"/>
                    <path class="anac3_st25" d="M659.1,1097.5c-1.6,6.8-0.2,27.1-0.2,27.1l0.9-1.4c0,0-1.4,16.2,0,18.5c0.1,0,0-1.1,0.1-1.1
					c0.1,0,0.6,1.2,0.7,1.3c1.3,0.2,5.2,0.5,9.3,0.6c0.2,0,0-1.7,0.2-1.7c0.3,0,0.2,1.6,0.5,1.7c9.2,0.3,22.4,0.5,31.6,0.2
					c0.3,0-0.1-1.5,0.2-1.6c0.2,0,0.4,1.5,0.6,1.5c4.7-0.2,8.9-0.4,9.9-0.9c1.8-3.7-0.5-33.2-0.5-33.2l0.9,4.2c0,0-0.9-15.6-2.1-18.3
					C710.2,1091.7,660.7,1090.7,659.1,1097.5"/>
                    <rect x="681.1" y="1136.6" class="anac3_st13" width="8.8" height="7.8"/>
                    <path class="anac3_st13" d="M703,1148.9c-3.1-3.6-9.5-5.8-16.8-5.8c-7.3,0-13.6,2.2-16.8,5.7C668,1150.4,704.3,1150.4,703,1148.9"/>
                    <path class="anac3_st14" d="M705.6,1100.1c0,14,1.7,35.1-20,39.7c-20.3-3.7-19.6-25.3-19.6-39.3s6.8-20.1,19.6-20.1
					C698.3,1080.3,705.6,1086,705.6,1100.1"/>
                    <polygon class="anac3_st15" points="682.3,1122.4 688.3,1122.4 685.5,1124.7 		"/>
                    <path class="anac3_st26" d="M678.8,1123.7c0,2.5-2.1,4.6-4.6,4.6s-4.6-2.1-4.6-4.6c0-2.5,2.1-4.6,4.6-4.6S678.8,1121.2,678.8,1123.7"/>
                    <path class="anac3_st26" d="M701,1123.7c0,2.5-2.1,4.6-4.6,4.6s-4.6-2.1-4.6-4.6c0-2.5,2.1-4.6,4.6-4.6S701,1121.2,701,1123.7"/>
                    <path class="anac3_st25" d="M707.6,1118.4l-1.3,1.8c0,0,0.9-5.1,1.5-10.1c0-0.2-1,2.6-1,1.9c0-2.2-0.3-6-0.9-8.6
					c-0.6-2.6-2.1-7.7-2.9-9.2c-1.6,0.6-5.5,4.6-9.7,6.5c0.9-1.8,0-2.3-0.9-1.8c-1.7,0.9-8,4.3-13.4,5.5c-6.4,1.5-8.8,0.7-9.8,0.9
					c-2.3,2.8-2.8,14.5-0.1,21.8C626.1,1067.1,733.9,1052.4,707.6,1118.4"/>
                    <path class="anac3_st27" d="M669.1,1149.1c0,0,2.8-6,8.3-5.1c11.1,9.7,17.5,0,17.5,0s7.4-0.5,8.8,5.1
					C705.1,1154.6,670,1156,669.1,1149.1"/>
                    <path class="anac3_st28" d="M679.7,1147.7c0,0-7.8-4.6-2.3-3.7c11.1,9.7,17.5,0,17.5,0s0.4-1.6-1.8,3.7
					C689.4,1156.5,680.6,1154.6,679.7,1147.7"/>
                    <path class="anac3_st29" d="M694.3,1143c0.4-0.3,2.9-0.1,4.3,0.9c-0.5,2.2-2,4.7-2,4.7s-1.4-0.9-3.1-0.9c0.9,1.7,1.6,1.7,1.8,1.9
					c-1,1.5-6.3,6.9-6.3,6.9s0-5.4,5.4-11.8C694.6,1144,694.6,1143.4,694.3,1143"/>
                    <path class="anac3_st29" d="M678.5,1143c-0.4-0.3-2.9-0.1-4.3,0.9c0.5,2.2,1.9,4.7,1.9,4.7s1.4-0.9,3.1-0.9c-0.9,1.7-1.6,1.7-1.8,1.9
					c1,1.5,6.3,6.9,6.3,6.9s0-5.4-5.4-11.8C678.2,1144,678.2,1143.4,678.5,1143"/>
                    <path class="anac3_st30" d="M676.6,1147.8c0,0.1-0.1,0.2-0.2,0.2s-0.2-0.1-0.2-0.2s0.1-0.2,0.2-0.2S676.6,1147.7,676.6,1147.8"/>
                    <path class="anac3_st30" d="M696.7,1147.8c0,0.1-0.1,0.2-0.2,0.2s-0.2-0.1-0.2-0.2s0.1-0.2,0.2-0.2S696.7,1147.7,696.7,1147.8"/>
                    <path class="anac3_st30" d="M694.6,1149.8c0,0.1-0.1,0.2-0.2,0.2c-0.1,0-0.2-0.1-0.2-0.2s0.1-0.2,0.2-0.2
					C694.5,1149.6,694.6,1149.7,694.6,1149.8"/>
                    <path class="anac3_st30" d="M678.6,1149.8c0,0.1-0.1,0.2-0.2,0.2s-0.2-0.1-0.2-0.2s0.1-0.2,0.2-0.2S678.6,1149.7,678.6,1149.8"/>
                    <path class="anac3_st29" d="M686.2,1145.9c0-0.4-0.3-0.8-0.8-0.8c-0.4,0-0.8,0.3-0.8,0.8c0,0.2,0.1,0.4,0.2,0.6
					c-0.1-0.1-0.1-0.3-0.1-0.4c0-0.4,0.3-0.7,0.7-0.7c0.4,0,0.7,0.3,0.7,0.7c0,0.1,0,0.3-0.1,0.4
					C686.1,1146.3,686.2,1146.1,686.2,1145.9"/>
                    <path class="anac3_st17" d="M681.1,1143.5C681.1,1143.5,681.1,1143.5,681.1,1143.5"/>
                    <path class="anac3_st31" d="M681.2,1143.6c0.6,0.3,3.1,1.6,4.3,1.6c1.2,0,3.7-1.5,4.2-1.8"/>
                    <path class="anac3_st17" d="M689.8,1143.3C689.8,1143.3,689.9,1143.3,689.8,1143.3"/>
                    <path class="anac3_st14" d="M707.5,1115c-0.2,1.1-0.9,2.7-1.8,2.4s-0.4-1.5-0.4-2.8c0-0.7-0.1-2,0.2-3c0.3-0.9,1-1.7,1.7-1.7
					C708.7,1109.9,707.7,1113.7,707.5,1115"/>
                    <path class="anac3_st32" d="M706.2,1116.6c0,0.1-0.1,0.2-0.2,0.2s-0.2-0.1-0.2-0.2c0-0.1,0.1-0.2,0.2-0.2S706.2,1116.5,706.2,1116.6"/>
                    <path class="anac3_st33" d="M706.8,1116c0,0.1-0.1,0.2-0.2,0.2s-0.2-0.1-0.2-0.2c0-0.1,0.1-0.2,0.2-0.2S706.8,1115.8,706.8,1116"/>
                    <path class="anac3_st18" d="M686.7,1111.6C686.7,1111.6,686.7,1111.6,686.7,1111.6C686.6,1111.6,686.6,1111.6,686.7,1111.6L686.7,1111.6
					z"/>
                    <g>
                        <path class="anac3_st18" d="M688,1109.4c-0.5,0.2-1.1,0.1-1.6,0.1c-0.5,0-1,0.1-1.5-0.1c-8-3.2-18.3-1.1-18.3-1.1s0.2,1.9,0.3,2.3
						c0.7,0.3,1.3,1.3,1.3,1.3c0.9,0.9-1.6,8.1,7.2,8.7c9,0.3,8.7-7.6,10.3-9c0.3-0.1,0.6-0.1,0.7-0.1c0.1,0,0.4,0,0.7,0.1
						c1.6,1.3,1.3,9.2,10.3,9c8.8-0.6,6.3-7.9,7.2-8.7c0,0,0.7-1,1.3-1.3c0.1-0.4,0.3-2.3,0.3-2.3S695.9,1106.2,688,1109.4
						 M676.2,1119.9c-5.7-0.1-7.1-4.4-6.5-8.5c0.3-2.1,3.2-2.8,6.3-2.8c3.2,0,6.7,0.7,7.1,2.8C683.5,1115.3,682,1119.5,676.2,1119.9
						 M696.9,1119.9c-5.8-0.5-7.3-4.6-6.9-8.5c0.4-2.2,3.9-2.8,7.1-2.8c3.1,0,6,0.8,6.3,2.8C704,1115.5,702.5,1119.8,696.9,1119.9"/>
                        <path class="anac3_st34" d="M669.6,1109.4c0,0.2-0.4,0.4-1,0.4c-0.6,0-1.1-0.1-1.1-0.2c0-0.2,0.4-0.4,1-0.4S669.5,1109.2,669.6,1109.4"
                        />
                        <path class="anac3_st34" d="M703.4,1109.4c0,0.2,0.4,0.4,1,0.4c0.6,0,1.1-0.1,1.1-0.2c0-0.2-0.4-0.4-1-0.4
						C703.9,1109.1,703.4,1109.2,703.4,1109.4"/>
                    </g>
                </g>
                <radialGradient id="ellipse-al-anac3_1_" cx="686.0193" cy="1115.8002" r="70.1334" gradientUnits="userSpaceOnUse">
                    <stop  offset="0.6437" style="stop-color:#757575;stop-opacity:0"/>
                    <stop  offset="1" style="stop-color:#757575"/>
                </radialGradient>
                <circle id="ellipse-al-anac3" class="anac3_st35" cx="686" cy="1115.8" r="70.1"/>
            </g>
        </g>

        <g id="balle-jeff-anac3">
            <defs>
                <circle id="clipper-jeff-anac3" class="anac3_st23" cx="686" cy="1115.8" r="70.1"/>
                <clipPath id="clipPath-jeff-anac3">
                    <use xlink:href="#clipper-jeff-anac3"  overflow="visible"/>
                </clipPath>
            </defs>
            <g clip-path="url(#clipPath-jeff-anac3)">
                <rect id="rect-jeff-anac3" x="476" y="905.8" class="anac3_st7" width="420" height="420"/>
                <g id="jeff-anac3">
                    <rect x="681.3" y="1137.3" class="anac3_st13" width="8.8" height="7.8"/>
                    <path class="anac3_st13" d="M703.2,1149.5c-3.1-3.6-9.5-5.8-16.8-5.8c-7.3,0-13.6,2.2-16.8,5.7C668.2,1151,704.5,1151,703.2,1149.5"/>
                    <path class="anac3_st14" d="M708.5,1101c0,14-4.9,39.4-22.7,39.4c-17.8,0-22-25.6-22-39.6c0-14,9.2-19.8,22-19.8
					C698.5,1081,708.5,1087,708.5,1101"/>
                    <polygon class="anac3_st15" points="682.5,1123.1 688.5,1123.1 685.7,1125.4 		"/>
                    <path class="anac3_st36" d="M669.3,1149.7c0,0,4.3-5.7,11.1-5.5c0,0,2,2.6,5.3,2.6c3.2-0.1,5.1-2.8,5.1-2.8s11.8,0.2,13.2,5.7
					C705.3,1155.3,670.2,1156.7,669.3,1149.7"/>
                    <path class="anac3_st17" d="M681.4,1144.1"/>
                    <path class="anac3_st17" d="M690,1144"/>
                    <path class="anac3_st14" d="M709,1115.6c-0.4,1.1-1.2,2.5-2.1,2.2c-0.9-0.3-0.3-1.5-0.1-2.8s0.1-4.4,1.6-4.2S709.4,1114.4,709,1115.6"/>
                    <path class="anac3_st14" d="M663.1,1115.6c0.4,1.1,1.2,2.5,2.1,2.2c0.9-0.3,0.3-1.5,0.1-2.8s-0.1-4.4-1.6-4.2
					C662.1,1111,662.7,1114.4,663.1,1115.6"/>
                    <path class="anac3_st18" d="M686.9,1112.2C686.9,1112.2,686.9,1112.2,686.9,1112.2C686.9,1112.2,686.9,1112.2,686.9,1112.2L686.9,1112.2
					z"/>
                    <path class="anac3_st16" d="M685.7,1146.8"/>
                    <path class="anac3_st37" d="M680.5,1144.2c0,0,2.3,2.4,5.2,2.6c3,0.2,5.1-2.9,5.1-2.9l1.8,0.1c0,0-3,4-6.8,3.9c-3.4-0.1-7-3.7-7-3.7"/>
                    <path class="anac3_st38" d="M665.8,1118.4c0,0,0.8,0.7,0.8-0.3c0-5.7-0.5-26.3,6-24.9c7.6,1.6,8,1.1,13.3,1.1c5.3-0.1,7.7,0,14.2-1.1
					c6.1-1,5.2,22,5.2,25.4c0,0.3,1-0.1,1-0.1s11.6-40.2-20.8-39.5C654,1079.5,665.8,1118.4,665.8,1118.4z"/>
                    <path class="anac3_st21" d="M665.8,1118.4c0,0,4.1,22.3,20,22c16.9-0.3,20.5-22,20.5-22s-0.6-0.5-0.9-0.1c-1.5,2.5-5.5,14.2-12.7,17.6
					c-2,0.9-12.2,0.9-14-0.2c-5.3-3.1-9-12.5-12-17.4C665.7,1116.6,665.8,1118.4,665.8,1118.4z"/>
                    <path class="anac3_st38" d="M689.9,1079.5c0,0-6.9-3-7.6-2.3c0.4,0.1,1.8,0.4,1.9,0.8c-0.6,0.1-4.4-0.6-6.5,0.1c1.3,0.2,2.1,0.6,2.1,0.6
					s-3.4,0.5-5.3,1.8c0,0,0.6-0.1,1-0.1c0.1,0.2-0.4,0.5-0.4,0.5L689.9,1079.5z"/>
                    <g>
                        <g>
                            <path class="anac3_st39" d="M681,1108.2c-3.2-0.4-12-0.3-12.3,0c-0.3,0.3-1.7,0.5-1.7,0.5v2.2c0,0,1,0.7,1.2,2.2
							c0.4,3.6,2.8,3.4,2.8,3.4c0.7,0.2,8.8,0.1,9.5,0c2.3-0.1,3.1-2.8,3.2-3.1c0.1-0.3,0.1-0.9,0.4-1.8c0.3-0.9,1.8-0.7,1.8-0.7
							s0-1,0-1.7C683.4,1109.1,684.2,1108.6,681,1108.2z M683.3,1112.6c-0.2,3.7-3.2,3.4-3.8,3.5s-6.8,0.1-7,0s-4,0.5-4-4v0v0
							c0,0,0-0.3,0-1.9c0-2.1,2-1.7,2.5-1.8c0.5,0,9.1,0.1,9.1,0.1s3.2-0.2,3.2,1.8L683.3,1112.6z"/>
                        </g>
                        <g>
                            <path class="anac3_st39" d="M685.9,1109.2c0,0.7,0,1.7,0,1.7s1.6-0.2,1.8,0.7s0.3,1.4,0.4,1.8c0.1,0.3,1,3.1,3.2,3.1
							c0.7,0.1,8.8,0.2,9.5,0c0,0,2.4,0.2,2.8-3.4c0.2-1.5,1.2-2.2,1.2-2.2v-2.2c0,0-1.4-0.3-1.7-0.5c-0.3-0.3-9.1-0.4-12.3,0
							C687.6,1108.6,688.4,1109.1,685.9,1109.2z M688.5,1110.4c0-1.9,3.2-1.8,3.2-1.8s8.6-0.2,9.1-0.1s2.5-0.3,2.5,1.8
							c0,1.6,0,1.9,0,1.9v0v0c-0.1,4.5-3.7,4-4,4s-6.5,0.1-7,0c-0.5-0.1-3.5,0.2-3.8-3.5L688.5,1110.4z"/>
                        </g>
                    </g>
                    <path class="anac3_st38" d="M687.4,1078.5c0,0-0.2-0.5-1.2-1.2c1.2,0.3,2.9,1,2.9,1s-0.2-0.3-0.6-0.5c1.3,0.3,2.1,0.9,2.1,0.9
					s0-0.5-0.1-0.6c0.6,0.1,2.5,1.6,2.5,1.6l-5.6-0.2L687.4,1078.5z"/>
                </g>
                <radialGradient id="ellipse-jeff-anac3_1_" cx="686.0193" cy="1115.8002" r="70.1334" gradientUnits="userSpaceOnUse">
                    <stop  offset="0.6437" style="stop-color:#757575;stop-opacity:0"/>
                    <stop  offset="1" style="stop-color:#757575"/>
                </radialGradient>
                <circle id="ellipse-jeff-anac3" class="anac3_st40" cx="686" cy="1115.8" r="70.1"/>
            </g>
        </g>

    </g>

    <g id="cylindres-anac3">
        <path class="anac3_st0 cylindre_anac3" d="M246.9,452.6c-82,0-148.6-21.4-148.6-47.8v286.4c0,26.4,66.5,47.8,148.6,47.8s148.6-21.4,148.6-47.8V404.8
		C395.5,431.2,329,452.6,246.9,452.6z"/>
        <path class="anac3_st0 cylindre_anac3" d="M1118.9,466.6c-82,0-148.6-21.4-148.6-47.8v286.4c0,26.4,66.5,47.8,148.6,47.8s148.6-21.4,148.6-47.8V418.8
		C1267.5,445.2,1201,466.6,1118.9,466.6z"/>
        <path class="anac3_st0 cylindre_anac3" d="M686.9,381.6c-82,0-148.6-21.4-148.6-47.8v286.4c0,26.4,66.5,47.8,148.6,47.8s148.6-21.4,148.6-47.8V333.8
		C835.5,360.2,769,381.6,686.9,381.6z"/>
        <path id="bague-dev-anac3" class="anac3_st41" d="M246.9,463.6c-79.3,0-159.6-20.2-159.6-58.8S167.6,346,246.9,346
		s159.6,20.2,159.6,58.8S326.2,463.6,246.9,463.6z M246.9,368c-38.6,0-74.7,4.8-101.7,13.5c-17.3,5.6-35.9,15.2-35.9,23.3
		c0,12.5,48.6,36.8,137.6,36.8c38.6,0,74.7-4.8,101.7-13.5c17.3-5.6,35.9-15.2,35.9-23.3C384.5,392.3,335.9,368,246.9,368z"/>
        <path id="bague-com-anac3" class="anac3_st41" d="M1118.9,477.6c-79.3,0-159.6-20.2-159.6-58.8s80.3-58.8,159.6-58.8
		s159.6,20.2,159.6,58.8S1198.2,477.6,1118.9,477.6z M1118.9,382c-38.6,0-74.7,4.8-101.7,13.5c-17.3,5.6-35.9,15.2-35.9,23.3
		c0,12.5,48.6,36.8,137.6,36.8c38.6,0,74.7-4.8,101.7-13.5c17.3-5.6,35.9-15.2,35.9-23.3C1256.5,406.3,1207.9,382,1118.9,382z"/>
        <path id="bague-gestion-anac3" class="anac3_st41" d="M686.9,392.6c-79.3,0-159.6-20.2-159.6-58.8S607.6,275,686.9,275
		s159.6,20.2,159.6,58.8S766.2,392.6,686.9,392.6z M686.9,297c-38.6,0-74.7,4.8-101.7,13.5c-17.3,5.6-35.9,15.2-35.9,23.3
		c0,12.5,48.6,36.8,137.6,36.8c38.6,0,74.7-4.8,101.7-13.5c17.3-5.6,35.9-15.2,35.9-23.3C824.5,321.3,775.9,297,686.9,297z"/>
    </g>
    <g id="barres-anac3">
        <rect x="1174" y="1051" class="anac3_st42" width="77" height="129"/>
        <polygon class="anac3_st43" points="1206.8,1040.9 1160,992 1160,1161 1174,1179.9 1174,1062.9 1201.4,1091.5 	"/>
        <g id="barre-d-anac3">
            <polygon class="anac3_st6" points="1328,1248.5 686,1248.5 686,1146.5 1326.8,1146.5 		"/>
            <path class="anac3_st44" d="M686,1147c0,0,22.2-24,70.5-25s501.3,0,501.3,0l32.9,29L686,1147z"/>
        </g>
        <rect x="1251" y="1087" class="anac3_st45" width="115" height="197"/>
        <polygon class="anac3_st46" points="1251,1087 1366,1087 1261,992 1160,992 	"/>
        <path class="anac3_st43" d="M1201.4,1091.5l35.6,37.2v51.3v85.1l14,18.9v-197l-44.2-46.1L1201.4,1091.5z M1174,1179.9"/>
        <rect x="115" y="1051" class="anac3_st42" width="77" height="129"/>
        <polygon class="anac3_st43" points="164.6,1091.5 192,1062.9 192,1179.9 206,1161 206,992 159.2,1040.9 	"/>
        <g id="barre-g-anac3">
            <polygon class="anac3_st6" points="38,1248.5 676,1248.5 676,1146.5 39.2,1146.5 		"/>
            <path class="anac3_st44" d="M676,1147c0,0-22-24-70.1-25c-48.1-1-498.2,0-498.2,0l-32.7,29L676,1147z"/>
        </g>
        <rect x="0" y="1087" transform="matrix(-1 -4.488955e-11 4.488955e-11 -1 115 2371)" class="anac3_st45" width="115" height="197"/>
        <polygon class="anac3_st46" points="115,1087 0,1087 105,992 206,992 	"/>
        <path class="anac3_st43" d="M159.2,1040.9L115,1087v197l14-18.9V1180v-51.3l35.6-37.2L159.2,1040.9z M192,1179.9"/>
        <g>
            <g>
                <path d="M25.8,1252.5h1.3c0.2,0,0.4,0,0.5,0.1c0.1,0.1,0.2,0.1,0.3,0.2c0.1,0.1,0.1,0.2,0.1,0.3c0,0.1,0,0.2,0,0.3
				c0,0.1,0,0.2,0,0.3c0,0.1-0.1,0.2-0.1,0.3c-0.1,0.1-0.2,0.2-0.3,0.2c-0.1,0.1-0.3,0.1-0.5,0.1h-0.8v1.1h-0.5V1252.5z
				 M26.3,1253.9h0.7c0.1,0,0.1,0,0.2,0c0.1,0,0.1,0,0.2-0.1c0.1,0,0.1-0.1,0.1-0.1c0-0.1,0-0.1,0-0.2c0-0.1,0-0.2,0-0.2
				c0-0.1-0.1-0.1-0.1-0.1c0,0-0.1-0.1-0.2-0.1c-0.1,0-0.1,0-0.2,0h-0.8V1253.9z"/>
                <path d="M28.6,1252.5H30c0.3,0,0.6,0.1,0.7,0.2c0.2,0.1,0.2,0.3,0.2,0.6c0,0.1,0,0.3-0.1,0.3c0,0.1-0.1,0.2-0.1,0.2
				c-0.1,0.1-0.1,0.1-0.2,0.1c-0.1,0-0.1,0-0.1,0v0c0,0,0.1,0,0.1,0c0.1,0,0.1,0.1,0.1,0.1c0,0,0.1,0.1,0.1,0.2c0,0.1,0,0.2,0,0.3
				c0,0.2,0,0.3,0,0.5c0,0.1,0.1,0.2,0.1,0.3h-0.5c0-0.1-0.1-0.1-0.1-0.2c0-0.1,0-0.1,0-0.2c0-0.1,0-0.2,0-0.3c0-0.1,0-0.2-0.1-0.2
				c0-0.1-0.1-0.1-0.2-0.1c-0.1,0-0.2,0-0.3,0h-0.8v1.2h-0.5V1252.5z M29.1,1253.9h0.8c0.2,0,0.3,0,0.4-0.1c0.1-0.1,0.1-0.2,0.1-0.3
				c0-0.1,0-0.2,0-0.2c0-0.1-0.1-0.1-0.1-0.1c0,0-0.1-0.1-0.2-0.1c-0.1,0-0.1,0-0.2,0h-0.8V1253.9z"/>
                <path d="M32.7,1252.5c0.2,0,0.4,0,0.6,0.1c0.2,0.1,0.3,0.2,0.4,0.3c0.1,0.1,0.2,0.3,0.3,0.5c0.1,0.2,0.1,0.4,0.1,0.6
				c0,0.2,0,0.4-0.1,0.6c-0.1,0.2-0.2,0.3-0.3,0.5c-0.1,0.1-0.3,0.2-0.4,0.3c-0.2,0.1-0.4,0.1-0.6,0.1c-0.2,0-0.4,0-0.6-0.1
				c-0.2-0.1-0.3-0.2-0.4-0.3c-0.1-0.1-0.2-0.3-0.3-0.5c-0.1-0.2-0.1-0.4-0.1-0.6c0-0.2,0-0.4,0.1-0.6c0.1-0.2,0.2-0.3,0.3-0.5
				c0.1-0.1,0.3-0.2,0.4-0.3C32.3,1252.5,32.5,1252.5,32.7,1252.5z M32.7,1252.9c-0.2,0-0.3,0-0.4,0.1c-0.1,0.1-0.2,0.1-0.3,0.3
				c-0.1,0.1-0.1,0.2-0.2,0.4c0,0.1-0.1,0.3-0.1,0.4c0,0.1,0,0.3,0.1,0.4c0,0.1,0.1,0.3,0.2,0.4c0.1,0.1,0.2,0.2,0.3,0.3
				c0.1,0.1,0.2,0.1,0.4,0.1c0.2,0,0.3,0,0.4-0.1c0.1-0.1,0.2-0.1,0.3-0.3c0.1-0.1,0.1-0.2,0.2-0.4c0-0.1,0.1-0.3,0.1-0.4
				c0-0.1,0-0.3-0.1-0.4c0-0.1-0.1-0.3-0.2-0.4c-0.1-0.1-0.2-0.2-0.3-0.3C33,1252.9,32.8,1252.9,32.7,1252.9z"/>
                <path d="M34.5,1252.5h1.2c0.2,0,0.4,0,0.6,0.1c0.2,0.1,0.3,0.2,0.4,0.3c0.1,0.1,0.2,0.3,0.2,0.5c0.1,0.2,0.1,0.4,0.1,0.6
				c0,0.2,0,0.4-0.1,0.6c0,0.2-0.1,0.3-0.2,0.5c-0.1,0.1-0.2,0.2-0.4,0.3c-0.2,0.1-0.4,0.1-0.6,0.1h-1.2V1252.5z M35.1,1255.1h0.5
				c0.2,0,0.4,0,0.5-0.1c0.1-0.1,0.2-0.1,0.3-0.2c0.1-0.1,0.1-0.2,0.1-0.3c0-0.1,0-0.3,0-0.4c0-0.1,0-0.3,0-0.4
				c0-0.1-0.1-0.2-0.1-0.3c-0.1-0.1-0.2-0.2-0.3-0.2c-0.1-0.1-0.3-0.1-0.5-0.1h-0.5V1255.1z"/>
                <path d="M37.5,1252.5H38v1.7c0,0.1,0,0.2,0,0.3c0,0.1,0,0.2,0.1,0.3c0,0.1,0.1,0.1,0.2,0.2c0.1,0.1,0.2,0.1,0.4,0.1
				c0.2,0,0.3,0,0.4-0.1c0.1-0.1,0.2-0.1,0.2-0.2c0-0.1,0.1-0.2,0.1-0.3c0-0.1,0-0.2,0-0.3v-1.7h0.5v1.9c0,0.2,0,0.4-0.1,0.5
				c-0.1,0.1-0.1,0.3-0.2,0.3c-0.1,0.1-0.2,0.2-0.4,0.2c-0.1,0-0.3,0.1-0.5,0.1c-0.2,0-0.3,0-0.5-0.1c-0.1,0-0.3-0.1-0.4-0.2
				c-0.1-0.1-0.2-0.2-0.2-0.3c-0.1-0.1-0.1-0.3-0.1-0.5V1252.5z"/>
                <path d="M40.5,1252.5H41v2.9h-0.5V1252.5z"/>
                <path d="M41.3,1252.5h2.4v0.4h-0.9v2.5h-0.5v-2.5h-0.9V1252.5z"/>
                <path d="M44.3,1254.5c0,0.1,0,0.2,0.1,0.3c0,0.1,0.1,0.1,0.2,0.2c0.1,0.1,0.1,0.1,0.2,0.1c0.1,0,0.2,0,0.3,0c0.1,0,0.2,0,0.3,0
				c0.1,0,0.1-0.1,0.2-0.1c0,0,0.1-0.1,0.1-0.1c0-0.1,0-0.1,0-0.2c0-0.1,0-0.2-0.1-0.2c-0.1-0.1-0.1-0.1-0.2-0.1
				c-0.1,0-0.2-0.1-0.4-0.1c-0.1,0-0.3-0.1-0.5-0.1c-0.1,0-0.2-0.1-0.3-0.1c-0.1-0.1-0.1-0.1-0.2-0.2c0-0.1-0.1-0.1-0.1-0.2
				c0-0.1,0-0.1,0-0.2c0-0.1,0-0.3,0.1-0.4c0.1-0.1,0.1-0.2,0.2-0.3c0.1-0.1,0.2-0.1,0.3-0.2c0.1,0,0.3-0.1,0.4-0.1
				c0.2,0,0.3,0,0.4,0.1c0.1,0,0.3,0.1,0.4,0.2c0.1,0.1,0.2,0.2,0.2,0.3c0.1,0.1,0.1,0.3,0.1,0.4h-0.5c0-0.2-0.1-0.3-0.2-0.4
				c-0.1-0.1-0.3-0.1-0.4-0.1c-0.1,0-0.1,0-0.2,0c-0.1,0-0.1,0-0.2,0.1c-0.1,0-0.1,0.1-0.1,0.1c0,0-0.1,0.1-0.1,0.2
				c0,0.1,0,0.2,0.1,0.2c0.1,0.1,0.1,0.1,0.3,0.1c0,0,0.1,0,0.1,0c0.1,0,0.2,0,0.3,0.1c0.1,0,0.2,0,0.3,0.1c0.1,0,0.2,0,0.2,0.1
				c0.1,0,0.2,0.1,0.2,0.1c0.1,0.1,0.1,0.1,0.2,0.2c0,0.1,0.1,0.1,0.1,0.2c0,0.1,0,0.2,0,0.2c0,0.2,0,0.3-0.1,0.4
				c-0.1,0.1-0.2,0.2-0.3,0.3c-0.1,0.1-0.2,0.1-0.4,0.2c-0.1,0-0.3,0.1-0.4,0.1c-0.2,0-0.3,0-0.5-0.1c-0.1,0-0.3-0.1-0.4-0.2
				c-0.1-0.1-0.2-0.2-0.3-0.3c-0.1-0.1-0.1-0.3-0.1-0.5H44.3z"/>
                <path d="M47.8,1252.5h2.1v0.4h-1.6v0.8h1.5v0.4h-1.5v0.9h1.6v0.4h-2.1V1252.5z"/>
                <path d="M50.1,1252.5h2.4v0.4h-0.9v2.5H51v-2.5h-0.9V1252.5z"/>
                <path d="M54.3,1254.5c0,0.1,0,0.2,0.1,0.3c0,0.1,0.1,0.1,0.2,0.2c0.1,0.1,0.1,0.1,0.2,0.1c0.1,0,0.2,0,0.3,0c0.1,0,0.2,0,0.3,0
				c0.1,0,0.1-0.1,0.2-0.1c0,0,0.1-0.1,0.1-0.1c0-0.1,0-0.1,0-0.2c0-0.1,0-0.2-0.1-0.2c-0.1-0.1-0.1-0.1-0.2-0.1
				c-0.1,0-0.2-0.1-0.4-0.1c-0.1,0-0.3-0.1-0.5-0.1c-0.1,0-0.2-0.1-0.3-0.1c-0.1-0.1-0.1-0.1-0.2-0.2c0-0.1-0.1-0.1-0.1-0.2
				c0-0.1,0-0.1,0-0.2c0-0.1,0-0.3,0.1-0.4c0.1-0.1,0.1-0.2,0.2-0.3c0.1-0.1,0.2-0.1,0.3-0.2c0.1,0,0.3-0.1,0.4-0.1
				c0.2,0,0.3,0,0.4,0.1c0.1,0,0.3,0.1,0.4,0.2c0.1,0.1,0.2,0.2,0.2,0.3c0.1,0.1,0.1,0.3,0.1,0.4h-0.5c0-0.2-0.1-0.3-0.2-0.4
				c-0.1-0.1-0.3-0.1-0.4-0.1c-0.1,0-0.1,0-0.2,0c-0.1,0-0.1,0-0.2,0.1c-0.1,0-0.1,0.1-0.1,0.1c0,0-0.1,0.1-0.1,0.2
				c0,0.1,0,0.2,0.1,0.2c0.1,0.1,0.1,0.1,0.3,0.1c0,0,0.1,0,0.1,0c0.1,0,0.2,0,0.3,0.1c0.1,0,0.2,0,0.3,0.1c0.1,0,0.2,0,0.2,0.1
				c0.1,0,0.2,0.1,0.2,0.1c0.1,0.1,0.1,0.1,0.2,0.2c0,0.1,0.1,0.1,0.1,0.2c0,0.1,0,0.2,0,0.2c0,0.2,0,0.3-0.1,0.4
				c-0.1,0.1-0.2,0.2-0.3,0.3c-0.1,0.1-0.2,0.1-0.4,0.2c-0.1,0-0.3,0.1-0.4,0.1c-0.2,0-0.3,0-0.5-0.1c-0.1,0-0.3-0.1-0.4-0.2
				c-0.1-0.1-0.2-0.2-0.3-0.3c-0.1-0.1-0.1-0.3-0.1-0.5H54.3z"/>
                <path d="M56.6,1252.5h2.1v0.4h-1.6v0.8h1.5v0.4h-1.5v0.9h1.6v0.4h-2.1V1252.5z"/>
                <path d="M59.2,1252.5h1.4c0.3,0,0.6,0.1,0.7,0.2c0.2,0.1,0.2,0.3,0.2,0.6c0,0.1,0,0.3-0.1,0.3c0,0.1-0.1,0.2-0.1,0.2
				c-0.1,0.1-0.1,0.1-0.2,0.1c-0.1,0-0.1,0-0.1,0v0c0,0,0.1,0,0.1,0c0.1,0,0.1,0.1,0.1,0.1c0,0,0.1,0.1,0.1,0.2c0,0.1,0,0.2,0,0.3
				c0,0.2,0,0.3,0,0.5c0,0.1,0.1,0.2,0.1,0.3h-0.5c0-0.1-0.1-0.1-0.1-0.2c0-0.1,0-0.1,0-0.2c0-0.1,0-0.2,0-0.3c0-0.1,0-0.2-0.1-0.2
				c0-0.1-0.1-0.1-0.2-0.1c-0.1,0-0.2,0-0.3,0h-0.8v1.2h-0.5V1252.5z M59.7,1253.9h0.8c0.2,0,0.3,0,0.4-0.1c0.1-0.1,0.1-0.2,0.1-0.3
				c0-0.1,0-0.2,0-0.2c0-0.1-0.1-0.1-0.1-0.1c0,0-0.1-0.1-0.2-0.1c-0.1,0-0.1,0-0.2,0h-0.8V1253.9z"/>
                <path d="M61.6,1252.5h0.5l0.7,2.3h0l0.8-2.3h0.5l-1,2.9h-0.6L61.6,1252.5z"/>
                <path d="M64.5,1252.5H65v2.9h-0.5V1252.5z"/>
                <path d="M67.6,1253.5c0-0.1-0.1-0.2-0.1-0.2c0-0.1-0.1-0.1-0.1-0.2c-0.1-0.1-0.1-0.1-0.2-0.1c-0.1,0-0.2,0-0.3,0
				c-0.2,0-0.3,0-0.4,0.1c-0.1,0.1-0.2,0.1-0.3,0.3c-0.1,0.1-0.1,0.2-0.2,0.4c0,0.1-0.1,0.3-0.1,0.4c0,0.1,0,0.3,0.1,0.4
				c0,0.1,0.1,0.3,0.2,0.4c0.1,0.1,0.2,0.2,0.3,0.3c0.1,0.1,0.2,0.1,0.4,0.1c0.1,0,0.2,0,0.3-0.1c0.1,0,0.2-0.1,0.2-0.2
				c0.1-0.1,0.1-0.2,0.1-0.2c0-0.1,0.1-0.2,0.1-0.3h0.5c0,0.2,0,0.3-0.1,0.5c-0.1,0.1-0.2,0.3-0.3,0.4c-0.1,0.1-0.2,0.2-0.4,0.2
				c-0.1,0.1-0.3,0.1-0.5,0.1c-0.2,0-0.4,0-0.6-0.1c-0.2-0.1-0.3-0.2-0.4-0.3c-0.1-0.1-0.2-0.3-0.3-0.5c-0.1-0.2-0.1-0.4-0.1-0.6
				c0-0.2,0-0.4,0.1-0.6c0.1-0.2,0.2-0.3,0.3-0.5c0.1-0.1,0.3-0.2,0.4-0.3c0.2-0.1,0.4-0.1,0.6-0.1c0.2,0,0.3,0,0.5,0.1
				c0.1,0,0.3,0.1,0.4,0.2c0.1,0.1,0.2,0.2,0.3,0.3c0.1,0.1,0.1,0.3,0.1,0.4H67.6z"/>
                <path d="M68.6,1252.5h2.1v0.4h-1.6v0.8h1.5v0.4h-1.5v0.9h1.6v0.4h-2.1V1252.5z"/>
                <path d="M71.5,1254.5c0,0.1,0,0.2,0.1,0.3c0,0.1,0.1,0.1,0.2,0.2c0.1,0.1,0.1,0.1,0.2,0.1c0.1,0,0.2,0,0.3,0c0.1,0,0.2,0,0.3,0
				c0.1,0,0.1-0.1,0.2-0.1c0,0,0.1-0.1,0.1-0.1c0-0.1,0-0.1,0-0.2c0-0.1,0-0.2-0.1-0.2c-0.1-0.1-0.1-0.1-0.2-0.1
				c-0.1,0-0.2-0.1-0.4-0.1c-0.1,0-0.3-0.1-0.5-0.1c-0.1,0-0.2-0.1-0.3-0.1c-0.1-0.1-0.1-0.1-0.2-0.2c0-0.1-0.1-0.1-0.1-0.2
				c0-0.1,0-0.1,0-0.2c0-0.1,0-0.3,0.1-0.4c0.1-0.1,0.1-0.2,0.2-0.3c0.1-0.1,0.2-0.1,0.3-0.2c0.1,0,0.3-0.1,0.4-0.1
				c0.2,0,0.3,0,0.4,0.1c0.1,0,0.3,0.1,0.4,0.2c0.1,0.1,0.2,0.2,0.2,0.3c0.1,0.1,0.1,0.3,0.1,0.4h-0.5c0-0.2-0.1-0.3-0.2-0.4
				c-0.1-0.1-0.3-0.1-0.4-0.1c-0.1,0-0.1,0-0.2,0c-0.1,0-0.1,0-0.2,0.1c-0.1,0-0.1,0.1-0.1,0.1c0,0-0.1,0.1-0.1,0.2
				c0,0.1,0,0.2,0.1,0.2c0.1,0.1,0.1,0.1,0.3,0.1c0,0,0.1,0,0.1,0c0.1,0,0.2,0,0.3,0.1c0.1,0,0.2,0,0.3,0.1c0.1,0,0.2,0,0.2,0.1
				c0.1,0,0.2,0.1,0.2,0.1c0.1,0.1,0.1,0.1,0.2,0.2c0,0.1,0.1,0.1,0.1,0.2c0,0.1,0,0.2,0,0.2c0,0.2,0,0.3-0.1,0.4
				c-0.1,0.1-0.2,0.2-0.3,0.3c-0.1,0.1-0.2,0.1-0.4,0.2c-0.1,0-0.3,0.1-0.4,0.1c-0.2,0-0.3,0-0.5-0.1c-0.1,0-0.3-0.1-0.4-0.2
				c-0.1-0.1-0.2-0.2-0.3-0.3c-0.1-0.1-0.1-0.3-0.1-0.5H71.5z"/>
                <path d="M74.9,1252.5h0.7l0.8,2.3h0l0.8-2.3H78v2.9h-0.5v-2.3h0l-0.8,2.3h-0.4l-0.8-2.3h0v2.3h-0.5V1252.5z"/>
                <path d="M78.5,1252.5H79v1.7c0,0.1,0,0.2,0,0.3c0,0.1,0,0.2,0.1,0.3c0,0.1,0.1,0.1,0.2,0.2c0.1,0.1,0.2,0.1,0.4,0.1
				c0.2,0,0.3,0,0.4-0.1c0.1-0.1,0.2-0.1,0.2-0.2c0-0.1,0.1-0.2,0.1-0.3c0-0.1,0-0.2,0-0.3v-1.7h0.5v1.9c0,0.2,0,0.4-0.1,0.5
				c-0.1,0.1-0.1,0.3-0.2,0.3c-0.1,0.1-0.2,0.2-0.4,0.2c-0.1,0-0.3,0.1-0.5,0.1c-0.2,0-0.3,0-0.5-0.1c-0.1,0-0.3-0.1-0.4-0.2
				c-0.1-0.1-0.2-0.2-0.2-0.3c-0.1-0.1-0.1-0.3-0.1-0.5V1252.5z"/>
                <path d="M81.5,1252.5H82v2.5h1.5v0.4h-2V1252.5z"/>
                <path d="M83.2,1252.5h2.4v0.4h-0.9v2.5h-0.5v-2.5h-0.9V1252.5z"/>
                <path d="M85.9,1252.5h0.5v2.9h-0.5V1252.5z"/>
                <path d="M87,1252.5h0.7l0.8,2.3h0l0.8-2.3h0.7v2.9h-0.5v-2.3h0l-0.8,2.3h-0.4l-0.8-2.3h0v2.3H87V1252.5z"/>
                <path d="M90.7,1252.5h2.1v0.4h-1.6v0.8h1.5v0.4h-1.5v0.9h1.6v0.4h-2.1V1252.5z M91.7,1251.7h0.6l-0.6,0.6h-0.3L91.7,1251.7z"/>
                <path d="M93.3,1252.5h1.2c0.2,0,0.4,0,0.6,0.1c0.2,0.1,0.3,0.2,0.4,0.3c0.1,0.1,0.2,0.3,0.2,0.5c0.1,0.2,0.1,0.4,0.1,0.6
				c0,0.2,0,0.4-0.1,0.6c-0.1,0.2-0.1,0.3-0.2,0.5c-0.1,0.1-0.2,0.2-0.4,0.3c-0.2,0.1-0.4,0.1-0.6,0.1h-1.2V1252.5z M93.8,1255.1
				h0.5c0.2,0,0.4,0,0.5-0.1c0.1-0.1,0.2-0.1,0.3-0.2c0.1-0.1,0.1-0.2,0.1-0.3c0-0.1,0-0.3,0-0.4c0-0.1,0-0.3,0-0.4
				c0-0.1-0.1-0.2-0.1-0.3c-0.1-0.1-0.2-0.2-0.3-0.2c-0.1-0.1-0.3-0.1-0.5-0.1h-0.5V1255.1z"/>
                <path d="M96.2,1252.5h0.5v2.9h-0.5V1252.5z"/>
                <path d="M98.1,1252.5h0.5l1.1,2.9h-0.5l-0.3-0.8h-1.2l-0.3,0.8H97L98.1,1252.5z M98,1254.3h0.9l-0.4-1.3h0L98,1254.3z"/>
            </g>
            <path class="anac3_st43" d="M25.8,1221c-2.9,0-5.4,1-7.5,3.1c-2.1,2.1-3.1,4.6-3.1,7.5v26.6h5.3v-26.6c0-1.5,0.5-2.7,1.6-3.8
			c1-1,2.3-1.6,3.8-1.6c1.5,0,2.7,0.5,3.8,1.6c1,1,1.6,2.3,1.6,3.8v5.3c0,1.5-0.5,2.7-1.6,3.8c-1,1-2.3,1.6-3.8,1.6v5.3
			c2.9,0,5.4-1,7.5-3.1c2.1-2.1,3.1-4.6,3.1-7.5v-5.3c0-2.9-1-5.4-3.1-7.5C31.3,1222,28.7,1221,25.8,1221z M49.8,1226.3
			c-1.5,0-2.7-0.5-3.8-1.6c-1-1-1.6-2.3-1.6-3.8h-5.3c0,2.9,1,5.4,3.1,7.5c2.1,2.1,4.6,3.1,7.5,3.1c1.5,0,2.7,0.5,3.8,1.6
			c1,1,1.6,2.3,1.6,3.8c0,1.5-0.5,2.7-1.6,3.8c-1,1-2.3,1.6-3.8,1.6c-1.5,0-2.7-0.5-3.8-1.6c-1-1-1.6-2.3-1.6-3.8h-5.3
			c0,2.9,1,5.4,3.1,7.5c2.1,2.1,4.6,3.1,7.5,3.1c2.9,0,5.4-1,7.5-3.1c2.1-2.1,3.1-4.6,3.1-7.5c0-2.9-1-5.4-3.1-7.5
			C55.2,1227.4,52.7,1226.3,49.8,1226.3z M86.2,1224.1c-2.1-2.1-4.6-3.1-7.5-3.1v5.3c1.5,0,2.7,0.5,3.8,1.6c1,1,1.6,2.3,1.6,3.8v16
			h5.3v-16C89.3,1228.7,88.3,1226.2,86.2,1224.1z M68,1221h-5.3v26.6H68v-21.3c1.5,0,2.7,0.5,3.8,1.6c1,1,1.6,2.3,1.6,3.8v16h5.3
			v-16c0-2.9-1-5.4-3.1-7.5C73.5,1222,71,1221,68,1221z"/>
        </g>
        <g>
            <g>
                <path d="M1276.8,1252.5h1.3c0.2,0,0.4,0,0.5,0.1c0.1,0.1,0.2,0.1,0.3,0.2c0.1,0.1,0.1,0.2,0.1,0.3c0,0.1,0,0.2,0,0.3
				c0,0.1,0,0.2,0,0.3c0,0.1-0.1,0.2-0.1,0.3c-0.1,0.1-0.2,0.2-0.3,0.2c-0.1,0.1-0.3,0.1-0.5,0.1h-0.8v1.1h-0.5V1252.5z
				 M1277.3,1253.9h0.7c0.1,0,0.1,0,0.2,0c0.1,0,0.1,0,0.2-0.1c0.1,0,0.1-0.1,0.1-0.1c0-0.1,0-0.1,0-0.2c0-0.1,0-0.2,0-0.2
				c0-0.1-0.1-0.1-0.1-0.1c0,0-0.1-0.1-0.2-0.1c-0.1,0-0.1,0-0.2,0h-0.8V1253.9z"/>
                <path d="M1279.6,1252.5h1.4c0.3,0,0.6,0.1,0.7,0.2c0.2,0.1,0.2,0.3,0.2,0.6c0,0.1,0,0.3-0.1,0.3c0,0.1-0.1,0.2-0.1,0.2
				c-0.1,0.1-0.1,0.1-0.2,0.1c-0.1,0-0.1,0-0.1,0v0c0,0,0.1,0,0.1,0c0.1,0,0.1,0.1,0.1,0.1c0,0,0.1,0.1,0.1,0.2c0,0.1,0,0.2,0,0.3
				c0,0.2,0,0.3,0,0.5c0,0.1,0.1,0.2,0.1,0.3h-0.5c0-0.1-0.1-0.1-0.1-0.2c0-0.1,0-0.1,0-0.2c0-0.1,0-0.2,0-0.3c0-0.1,0-0.2-0.1-0.2
				c0-0.1-0.1-0.1-0.2-0.1c-0.1,0-0.2,0-0.3,0h-0.8v1.2h-0.5V1252.5z M1280.1,1253.9h0.8c0.2,0,0.3,0,0.4-0.1
				c0.1-0.1,0.1-0.2,0.1-0.3c0-0.1,0-0.2,0-0.2c0-0.1-0.1-0.1-0.1-0.1c0,0-0.1-0.1-0.2-0.1c-0.1,0-0.1,0-0.2,0h-0.8V1253.9z"/>
                <path d="M1283.7,1252.5c0.2,0,0.4,0,0.6,0.1c0.2,0.1,0.3,0.2,0.4,0.3c0.1,0.1,0.2,0.3,0.3,0.5c0.1,0.2,0.1,0.4,0.1,0.6
				c0,0.2,0,0.4-0.1,0.6c-0.1,0.2-0.2,0.3-0.3,0.5c-0.1,0.1-0.3,0.2-0.4,0.3c-0.2,0.1-0.4,0.1-0.6,0.1c-0.2,0-0.4,0-0.6-0.1
				c-0.2-0.1-0.3-0.2-0.4-0.3c-0.1-0.1-0.2-0.3-0.3-0.5c-0.1-0.2-0.1-0.4-0.1-0.6c0-0.2,0-0.4,0.1-0.6c0.1-0.2,0.2-0.3,0.3-0.5
				c0.1-0.1,0.3-0.2,0.4-0.3C1283.3,1252.5,1283.5,1252.5,1283.7,1252.5z M1283.7,1252.9c-0.2,0-0.3,0-0.4,0.1
				c-0.1,0.1-0.2,0.1-0.3,0.3c-0.1,0.1-0.1,0.2-0.2,0.4c0,0.1-0.1,0.3-0.1,0.4c0,0.1,0,0.3,0.1,0.4c0,0.1,0.1,0.3,0.2,0.4
				c0.1,0.1,0.2,0.2,0.3,0.3c0.1,0.1,0.2,0.1,0.4,0.1c0.2,0,0.3,0,0.4-0.1c0.1-0.1,0.2-0.1,0.3-0.3c0.1-0.1,0.1-0.2,0.2-0.4
				c0-0.1,0.1-0.3,0.1-0.4c0-0.1,0-0.3-0.1-0.4c0-0.1-0.1-0.3-0.2-0.4c-0.1-0.1-0.2-0.2-0.3-0.3
				C1284,1252.9,1283.8,1252.9,1283.7,1252.9z"/>
                <path d="M1285.5,1252.5h1.2c0.2,0,0.4,0,0.6,0.1c0.2,0.1,0.3,0.2,0.4,0.3c0.1,0.1,0.2,0.3,0.2,0.5c0.1,0.2,0.1,0.4,0.1,0.6
				c0,0.2,0,0.4-0.1,0.6c0,0.2-0.1,0.3-0.2,0.5c-0.1,0.1-0.2,0.2-0.4,0.3c-0.2,0.1-0.4,0.1-0.6,0.1h-1.2V1252.5z M1286.1,1255.1h0.5
				c0.2,0,0.4,0,0.5-0.1c0.1-0.1,0.2-0.1,0.3-0.2c0.1-0.1,0.1-0.2,0.1-0.3c0-0.1,0-0.3,0-0.4c0-0.1,0-0.3,0-0.4
				c0-0.1-0.1-0.2-0.1-0.3c-0.1-0.1-0.2-0.2-0.3-0.2c-0.1-0.1-0.3-0.1-0.5-0.1h-0.5V1255.1z"/>
                <path d="M1288.5,1252.5h0.5v1.7c0,0.1,0,0.2,0,0.3c0,0.1,0,0.2,0.1,0.3c0,0.1,0.1,0.1,0.2,0.2c0.1,0.1,0.2,0.1,0.4,0.1
				c0.2,0,0.3,0,0.4-0.1c0.1-0.1,0.2-0.1,0.2-0.2c0-0.1,0.1-0.2,0.1-0.3c0-0.1,0-0.2,0-0.3v-1.7h0.5v1.9c0,0.2,0,0.4-0.1,0.5
				c-0.1,0.1-0.1,0.3-0.2,0.3c-0.1,0.1-0.2,0.2-0.4,0.2c-0.1,0-0.3,0.1-0.5,0.1s-0.3,0-0.5-0.1c-0.1,0-0.3-0.1-0.4-0.2
				c-0.1-0.1-0.2-0.2-0.2-0.3c-0.1-0.1-0.1-0.3-0.1-0.5V1252.5z"/>
                <path d="M1291.5,1252.5h0.5v2.9h-0.5V1252.5z"/>
                <path d="M1292.3,1252.5h2.4v0.4h-0.9v2.5h-0.5v-2.5h-0.9V1252.5z"/>
                <path d="M1295.3,1254.5c0,0.1,0,0.2,0.1,0.3c0,0.1,0.1,0.1,0.2,0.2c0.1,0.1,0.1,0.1,0.2,0.1c0.1,0,0.2,0,0.3,0c0.1,0,0.2,0,0.3,0
				c0.1,0,0.1-0.1,0.2-0.1c0,0,0.1-0.1,0.1-0.1c0-0.1,0-0.1,0-0.2c0-0.1,0-0.2-0.1-0.2c-0.1-0.1-0.1-0.1-0.2-0.1
				c-0.1,0-0.2-0.1-0.4-0.1c-0.1,0-0.3-0.1-0.5-0.1c-0.1,0-0.2-0.1-0.3-0.1c-0.1-0.1-0.1-0.1-0.2-0.2c0-0.1-0.1-0.1-0.1-0.2
				s0-0.1,0-0.2c0-0.1,0-0.3,0.1-0.4c0.1-0.1,0.1-0.2,0.2-0.3c0.1-0.1,0.2-0.1,0.3-0.2c0.1,0,0.3-0.1,0.4-0.1c0.2,0,0.3,0,0.4,0.1
				c0.1,0,0.3,0.1,0.4,0.2c0.1,0.1,0.2,0.2,0.2,0.3c0.1,0.1,0.1,0.3,0.1,0.4h-0.5c0-0.2-0.1-0.3-0.2-0.4c-0.1-0.1-0.3-0.1-0.4-0.1
				c-0.1,0-0.1,0-0.2,0c-0.1,0-0.1,0-0.2,0.1c-0.1,0-0.1,0.1-0.1,0.1c0,0-0.1,0.1-0.1,0.2c0,0.1,0,0.2,0.1,0.2
				c0.1,0.1,0.1,0.1,0.3,0.1c0,0,0.1,0,0.1,0c0.1,0,0.2,0,0.3,0.1c0.1,0,0.2,0,0.3,0.1c0.1,0,0.2,0,0.2,0.1c0.1,0,0.2,0.1,0.2,0.1
				c0.1,0.1,0.1,0.1,0.2,0.2c0,0.1,0.1,0.1,0.1,0.2c0,0.1,0,0.2,0,0.2c0,0.2,0,0.3-0.1,0.4c-0.1,0.1-0.2,0.2-0.3,0.3
				c-0.1,0.1-0.2,0.1-0.4,0.2c-0.1,0-0.3,0.1-0.4,0.1c-0.2,0-0.3,0-0.5-0.1c-0.1,0-0.3-0.1-0.4-0.2c-0.1-0.1-0.2-0.2-0.3-0.3
				c-0.1-0.1-0.1-0.3-0.1-0.5H1295.3z"/>
                <path d="M1298.8,1252.5h2.1v0.4h-1.6v0.8h1.5v0.4h-1.5v0.9h1.6v0.4h-2.1V1252.5z"/>
                <path d="M1301.1,1252.5h2.4v0.4h-0.9v2.5h-0.5v-2.5h-0.9V1252.5z"/>
                <path d="M1305.3,1254.5c0,0.1,0,0.2,0.1,0.3c0,0.1,0.1,0.1,0.2,0.2c0.1,0.1,0.1,0.1,0.2,0.1c0.1,0,0.2,0,0.3,0c0.1,0,0.2,0,0.3,0
				c0.1,0,0.1-0.1,0.2-0.1c0,0,0.1-0.1,0.1-0.1c0-0.1,0-0.1,0-0.2c0-0.1,0-0.2-0.1-0.2c-0.1-0.1-0.1-0.1-0.2-0.1
				c-0.1,0-0.2-0.1-0.4-0.1c-0.1,0-0.3-0.1-0.5-0.1c-0.1,0-0.2-0.1-0.3-0.1c-0.1-0.1-0.1-0.1-0.2-0.2c0-0.1-0.1-0.1-0.1-0.2
				c0-0.1,0-0.1,0-0.2c0-0.1,0-0.3,0.1-0.4c0.1-0.1,0.1-0.2,0.2-0.3c0.1-0.1,0.2-0.1,0.3-0.2c0.1,0,0.3-0.1,0.4-0.1
				c0.2,0,0.3,0,0.4,0.1c0.1,0,0.3,0.1,0.4,0.2c0.1,0.1,0.2,0.2,0.2,0.3c0.1,0.1,0.1,0.3,0.1,0.4h-0.5c0-0.2-0.1-0.3-0.2-0.4
				c-0.1-0.1-0.3-0.1-0.4-0.1c-0.1,0-0.1,0-0.2,0c-0.1,0-0.1,0-0.2,0.1c-0.1,0-0.1,0.1-0.1,0.1c0,0-0.1,0.1-0.1,0.2
				c0,0.1,0,0.2,0.1,0.2c0.1,0.1,0.1,0.1,0.3,0.1c0,0,0.1,0,0.1,0c0.1,0,0.2,0,0.3,0.1c0.1,0,0.2,0,0.3,0.1c0.1,0,0.2,0,0.2,0.1
				c0.1,0,0.2,0.1,0.2,0.1c0.1,0.1,0.1,0.1,0.2,0.2c0,0.1,0.1,0.1,0.1,0.2c0,0.1,0,0.2,0,0.2c0,0.2,0,0.3-0.1,0.4
				c-0.1,0.1-0.2,0.2-0.3,0.3c-0.1,0.1-0.2,0.1-0.4,0.2c-0.1,0-0.3,0.1-0.4,0.1c-0.2,0-0.3,0-0.5-0.1c-0.1,0-0.3-0.1-0.4-0.2
				c-0.1-0.1-0.2-0.2-0.3-0.3c-0.1-0.1-0.1-0.3-0.1-0.5H1305.3z"/>
                <path d="M1307.6,1252.5h2.1v0.4h-1.6v0.8h1.5v0.4h-1.5v0.9h1.6v0.4h-2.1V1252.5z"/>
                <path d="M1310.2,1252.5h1.4c0.3,0,0.6,0.1,0.7,0.2c0.2,0.1,0.2,0.3,0.2,0.6c0,0.1,0,0.3-0.1,0.3c0,0.1-0.1,0.2-0.1,0.2
				c-0.1,0.1-0.1,0.1-0.2,0.1c-0.1,0-0.1,0-0.1,0v0c0,0,0.1,0,0.1,0c0.1,0,0.1,0.1,0.1,0.1c0,0,0.1,0.1,0.1,0.2c0,0.1,0,0.2,0,0.3
				c0,0.2,0,0.3,0,0.5c0,0.1,0.1,0.2,0.1,0.3h-0.5c0-0.1-0.1-0.1-0.1-0.2c0-0.1,0-0.1,0-0.2c0-0.1,0-0.2,0-0.3c0-0.1,0-0.2-0.1-0.2
				c0-0.1-0.1-0.1-0.2-0.1c-0.1,0-0.2,0-0.3,0h-0.8v1.2h-0.5V1252.5z M1310.7,1253.9h0.8c0.2,0,0.3,0,0.4-0.1
				c0.1-0.1,0.1-0.2,0.1-0.3c0-0.1,0-0.2,0-0.2c0-0.1-0.1-0.1-0.1-0.1c0,0-0.1-0.1-0.2-0.1c-0.1,0-0.1,0-0.2,0h-0.8V1253.9z"/>
                <path d="M1312.6,1252.5h0.5l0.7,2.3h0l0.8-2.3h0.5l-1,2.9h-0.6L1312.6,1252.5z"/>
                <path d="M1315.5,1252.5h0.5v2.9h-0.5V1252.5z"/>
                <path d="M1318.6,1253.5c0-0.1-0.1-0.2-0.1-0.2c0-0.1-0.1-0.1-0.1-0.2c-0.1-0.1-0.1-0.1-0.2-0.1c-0.1,0-0.2,0-0.3,0
				c-0.2,0-0.3,0-0.4,0.1c-0.1,0.1-0.2,0.1-0.3,0.3c-0.1,0.1-0.1,0.2-0.2,0.4c0,0.1-0.1,0.3-0.1,0.4c0,0.1,0,0.3,0.1,0.4
				c0,0.1,0.1,0.3,0.2,0.4c0.1,0.1,0.2,0.2,0.3,0.3c0.1,0.1,0.2,0.1,0.4,0.1c0.1,0,0.2,0,0.3-0.1c0.1,0,0.2-0.1,0.2-0.2
				c0.1-0.1,0.1-0.2,0.1-0.2c0-0.1,0.1-0.2,0.1-0.3h0.5c0,0.2,0,0.3-0.1,0.5c-0.1,0.1-0.2,0.3-0.3,0.4c-0.1,0.1-0.2,0.2-0.4,0.2
				c-0.1,0.1-0.3,0.1-0.5,0.1c-0.2,0-0.4,0-0.6-0.1c-0.2-0.1-0.3-0.2-0.4-0.3c-0.1-0.1-0.2-0.3-0.3-0.5c-0.1-0.2-0.1-0.4-0.1-0.6
				c0-0.2,0-0.4,0.1-0.6c0.1-0.2,0.2-0.3,0.3-0.5c0.1-0.1,0.3-0.2,0.4-0.3c0.2-0.1,0.4-0.1,0.6-0.1c0.2,0,0.3,0,0.5,0.1
				c0.1,0,0.3,0.1,0.4,0.2c0.1,0.1,0.2,0.2,0.3,0.3c0.1,0.1,0.1,0.3,0.1,0.4H1318.6z"/>
                <path d="M1319.6,1252.5h2.1v0.4h-1.6v0.8h1.5v0.4h-1.5v0.9h1.6v0.4h-2.1V1252.5z"/>
                <path d="M1322.5,1254.5c0,0.1,0,0.2,0.1,0.3c0,0.1,0.1,0.1,0.2,0.2c0.1,0.1,0.1,0.1,0.2,0.1c0.1,0,0.2,0,0.3,0c0.1,0,0.2,0,0.3,0
				c0.1,0,0.1-0.1,0.2-0.1c0,0,0.1-0.1,0.1-0.1c0-0.1,0-0.1,0-0.2c0-0.1,0-0.2-0.1-0.2c-0.1-0.1-0.1-0.1-0.2-0.1
				c-0.1,0-0.2-0.1-0.4-0.1c-0.1,0-0.3-0.1-0.5-0.1c-0.1,0-0.2-0.1-0.3-0.1c-0.1-0.1-0.1-0.1-0.2-0.2c0-0.1-0.1-0.1-0.1-0.2
				c0-0.1,0-0.1,0-0.2c0-0.1,0-0.3,0.1-0.4c0.1-0.1,0.1-0.2,0.2-0.3c0.1-0.1,0.2-0.1,0.3-0.2c0.1,0,0.3-0.1,0.4-0.1
				c0.2,0,0.3,0,0.4,0.1c0.1,0,0.3,0.1,0.4,0.2c0.1,0.1,0.2,0.2,0.2,0.3c0.1,0.1,0.1,0.3,0.1,0.4h-0.5c0-0.2-0.1-0.3-0.2-0.4
				c-0.1-0.1-0.3-0.1-0.4-0.1c-0.1,0-0.1,0-0.2,0c-0.1,0-0.1,0-0.2,0.1c-0.1,0-0.1,0.1-0.1,0.1c0,0-0.1,0.1-0.1,0.2
				c0,0.1,0,0.2,0.1,0.2c0.1,0.1,0.1,0.1,0.3,0.1c0,0,0.1,0,0.1,0c0.1,0,0.2,0,0.3,0.1c0.1,0,0.2,0,0.3,0.1c0.1,0,0.2,0,0.2,0.1
				c0.1,0,0.2,0.1,0.2,0.1c0.1,0.1,0.1,0.1,0.2,0.2c0,0.1,0.1,0.1,0.1,0.2c0,0.1,0,0.2,0,0.2c0,0.2,0,0.3-0.1,0.4
				c-0.1,0.1-0.2,0.2-0.3,0.3c-0.1,0.1-0.2,0.1-0.4,0.2c-0.1,0-0.3,0.1-0.4,0.1c-0.2,0-0.3,0-0.5-0.1c-0.1,0-0.3-0.1-0.4-0.2
				c-0.1-0.1-0.2-0.2-0.3-0.3c-0.1-0.1-0.1-0.3-0.1-0.5H1322.5z"/>
                <path d="M1325.9,1252.5h0.7l0.8,2.3h0l0.8-2.3h0.7v2.9h-0.5v-2.3h0l-0.8,2.3h-0.4l-0.8-2.3h0v2.3h-0.5V1252.5z"/>
                <path d="M1329.5,1252.5h0.5v1.7c0,0.1,0,0.2,0,0.3c0,0.1,0,0.2,0.1,0.3c0,0.1,0.1,0.1,0.2,0.2c0.1,0.1,0.2,0.1,0.4,0.1
				c0.2,0,0.3,0,0.4-0.1c0.1-0.1,0.2-0.1,0.2-0.2c0-0.1,0.1-0.2,0.1-0.3c0-0.1,0-0.2,0-0.3v-1.7h0.5v1.9c0,0.2,0,0.4-0.1,0.5
				c-0.1,0.1-0.1,0.3-0.2,0.3c-0.1,0.1-0.2,0.2-0.4,0.2c-0.1,0-0.3,0.1-0.5,0.1c-0.2,0-0.3,0-0.5-0.1c-0.1,0-0.3-0.1-0.4-0.2
				c-0.1-0.1-0.2-0.2-0.2-0.3c-0.1-0.1-0.1-0.3-0.1-0.5V1252.5z"/>
                <path d="M1332.5,1252.5h0.5v2.5h1.5v0.4h-2V1252.5z"/>
                <path d="M1334.2,1252.5h2.4v0.4h-0.9v2.5h-0.5v-2.5h-0.9V1252.5z"/>
                <path d="M1336.9,1252.5h0.5v2.9h-0.5V1252.5z"/>
                <path d="M1338,1252.5h0.7l0.8,2.3h0l0.8-2.3h0.7v2.9h-0.5v-2.3h0l-0.8,2.3h-0.4l-0.8-2.3h0v2.3h-0.5V1252.5z"/>
                <path d="M1341.7,1252.5h2.1v0.4h-1.6v0.8h1.5v0.4h-1.5v0.9h1.6v0.4h-2.1V1252.5z M1342.7,1251.7h0.6l-0.6,0.6h-0.3L1342.7,1251.7
				z"/>
                <path d="M1344.3,1252.5h1.2c0.2,0,0.4,0,0.6,0.1c0.2,0.1,0.3,0.2,0.4,0.3c0.1,0.1,0.2,0.3,0.2,0.5c0.1,0.2,0.1,0.4,0.1,0.6
				c0,0.2,0,0.4-0.1,0.6c-0.1,0.2-0.1,0.3-0.2,0.5c-0.1,0.1-0.2,0.2-0.4,0.3c-0.2,0.1-0.4,0.1-0.6,0.1h-1.2V1252.5z M1344.8,1255.1
				h0.5c0.2,0,0.4,0,0.5-0.1c0.1-0.1,0.2-0.1,0.3-0.2c0.1-0.1,0.1-0.2,0.1-0.3c0-0.1,0-0.3,0-0.4c0-0.1,0-0.3,0-0.4
				c0-0.1-0.1-0.2-0.1-0.3c-0.1-0.1-0.2-0.2-0.3-0.2c-0.1-0.1-0.3-0.1-0.5-0.1h-0.5V1255.1z"/>
                <path d="M1347.2,1252.5h0.5v2.9h-0.5V1252.5z"/>
                <path d="M1349.1,1252.5h0.5l1.1,2.9h-0.5l-0.3-0.8h-1.2l-0.3,0.8h-0.5L1349.1,1252.5z M1349,1254.3h0.9l-0.4-1.3h0L1349,1254.3z"
                />
            </g>
            <path class="anac3_st43" d="M1276.8,1221c-2.9,0-5.4,1-7.5,3.1c-2.1,2.1-3.1,4.6-3.1,7.5v26.6h5.3v-26.6c0-1.5,0.5-2.7,1.6-3.8
			c1-1,2.3-1.6,3.8-1.6c1.5,0,2.7,0.5,3.8,1.6c1,1,1.6,2.3,1.6,3.8v5.3c0,1.5-0.5,2.7-1.6,3.8c-1,1-2.3,1.6-3.8,1.6v5.3
			c2.9,0,5.4-1,7.5-3.1c2.1-2.1,3.1-4.6,3.1-7.5v-5.3c0-2.9-1-5.4-3.1-7.5C1282.3,1222,1279.7,1221,1276.8,1221z M1300.8,1226.3
			c-1.5,0-2.7-0.5-3.8-1.6c-1-1-1.6-2.3-1.6-3.8h-5.3c0,2.9,1,5.4,3.1,7.5c2.1,2.1,4.6,3.1,7.5,3.1c1.5,0,2.7,0.5,3.8,1.6
			c1,1,1.6,2.3,1.6,3.8c0,1.5-0.5,2.7-1.6,3.8c-1,1-2.3,1.6-3.8,1.6c-1.5,0-2.7-0.5-3.8-1.6c-1-1-1.6-2.3-1.6-3.8h-5.3
			c0,2.9,1,5.4,3.1,7.5c2.1,2.1,4.6,3.1,7.5,3.1c2.9,0,5.4-1,7.5-3.1c2.1-2.1,3.1-4.6,3.1-7.5c0-2.9-1-5.4-3.1-7.5
			C1306.2,1227.4,1303.7,1226.3,1300.8,1226.3z M1337.2,1224.1c-2.1-2.1-4.6-3.1-7.5-3.1v5.3c1.5,0,2.7,0.5,3.8,1.6
			c1,1,1.6,2.3,1.6,3.8v16h5.3v-16C1340.3,1228.7,1339.3,1226.2,1337.2,1224.1z M1319,1221h-5.3v26.6h5.3v-21.3
			c1.5,0,2.7,0.5,3.8,1.6c1,1,1.6,2.3,1.6,3.8v16h5.3v-16c0-2.9-1-5.4-3.1-7.5C1324.5,1222,1322,1221,1319,1221z"/>
        </g>
    </g>
    <g id="declencheur-anac3">
        <g>
            <g id="top-decl-anac3">
                <g>
                    <ellipse class="anac3_st6" cx="683.6" cy="1314.2" rx="86.4" ry="47.2"/>
                </g>
                <g>
                    <path class="anac3_st47" d="M597.2,1317.1c0-21.6,38.7-39.1,86.4-39.1s86.4,17.5,86.4,39.1v6.1H597.5L597.2,1317.1z"/>
                </g>
                <g>
                    <ellipse cx="683.6" cy="1322.3" rx="86.4" ry="39.1"/>
                </g>
                <g>
                    <path class="anac3_st48" d="M683,1292.6c-45.1,0-81.7,15-81.7,33.4s36.6,33.4,81.7,33.4c45.1,0,81.7-15,81.7-33.4
					S728.1,1292.6,683,1292.6z M683,1352.1c-43.1,0-78-10.9-78-24.3s34.9-24.3,78-24.3c43.1,0,78,10.9,78,24.3
					S726.1,1352.1,683,1352.1z"/>
                </g>
            </g>
            <g id="bague2-anac3">
                <path class="anac3_st42" d="M683,1314.8c-45.1,0-81.7,15-81.7,33.4s36.6,33.4,81.7,33.4c45.1,0,81.7-15,81.7-33.4
				S728.1,1314.8,683,1314.8z M683,1374.4c-43.1,0-78-10.9-78-24.3s34.9-24.3,78-24.3c43.1,0,78,10.9,78,24.3
				S726.1,1374.4,683,1374.4z"/>
            </g>
            <g id="bague1-anac3">
                <path class="anac3_st43" d="M683,1337.1c-45.1,0-81.7,15-81.7,33.4s36.6,33.4,81.7,33.4c45.1,0,81.7-15,81.7-33.4
				S728.1,1337.1,683,1337.1z M683,1396.6c-43.1,0-78-10.9-78-24.3s34.9-24.3,78-24.3c43.1,0,78,10.9,78,24.3
				S726.1,1396.6,683,1396.6z"/>
            </g>
            <g>
                <path class="anac3_st46" d="M683,1359.4c-45.1,0-81.7,15-81.7,33.4s36.6,33.4,81.7,33.4c45.1,0,81.7-15,81.7-33.4
				S728.1,1359.4,683,1359.4z M683,1418.9c-43.1,0-78-10.9-78-24.3s34.9-24.3,78-24.3c43.1,0,78,10.9,78,24.3
				S726.1,1418.9,683,1418.9z"/>
            </g>
            <polygon class="anac3_st47" points="831,1435.6 535,1435.6 556,1503.7 810,1503.7 		"/>
            <polygon class="anac3_st49" points="535,1435.5 561.7,1369 804.4,1369 831,1435.5 		"/>
        </g>
    </g>
    <g id="scoretab-anac3">
        <rect x="-2.5" y="1504" class="anac3_st50" width="1371" height="121"/>
        <rect x="364.8" y="1530" class="anac3_st0" width="634" height="69"/>
        <g>
            <path class="anac3_st6" d="M388.8,1562.7v-13.6l3.5,3.5v9.2l-2.2,2.2L388.8,1562.7z M392.2,1567.5v9.2l-3.5,3.5v-13.5l1.3-1.3
			L392.2,1567.5z M408.1,1548.5l-3.4,3.5h-11.9l-3.4-3.5H408.1z M408.1,1580.8h-18.7l3.4-3.5h11.9L408.1,1580.8z M404.5,1562.9
			l1.8,1.7l-1.8,1.7h-12.1l-1.7-1.7l1.7-1.7H404.5z"/>
            <path class="anac3_st6" d="M433,1548.5l-3.4,3.5h-12.5l-3.5-3.5H433z M425.1,1564.5l-1.3,1.2l-2.2-2.1v-9.2l1.7-1.7l1.8,1.7V1564.5z
			 M425.1,1579.1l-1.8,1.7l-1.7-1.7v-9.9l2.2-2.2l1.3,1.3V1579.1z"/>
            <path class="anac3_st6" d="M438.5,1562.7v-14.2l3.5,3.5v9.9l-2.2,2.2L438.5,1562.7z M438.5,1576.7l1.7,1.8l1.8-1.8v-9.2l-2.2-2.2
			l-1.3,1.3V1576.7z M442.6,1580.8l-1.7-1.7l1.7-1.8h11.2l1.7,1.8l-1.7,1.7H442.6z M454.4,1561.8v-9.9l3.5-3.5v14.2l-1.3,1.3
			L454.4,1561.8z M457.9,1576.7l-1.7,1.8l-1.7-1.8v-9.2l2.2-2.2l1.3,1.3V1576.7z"/>
            <path class="anac3_st6" d="M466.9,1561.8l-2.2,2.2l-1.3-1.3v-13.6l3.5,3.5V1561.8z M466.9,1576.7l-3.5,3.5v-13.5l1.3-1.3l2.2,2.2V1576.7
			z M480.4,1550.2l-1.7,1.8h-11.2l-3.4-3.5h14.6L480.4,1550.2z M480.4,1579.1l-1.7,1.7h-14.6l3.4-3.5h11.2L480.4,1579.1z
			 M482.8,1562.7l-1.3,1.3l-2.2-2.2v-9.2l1.7-1.8l1.7,1.8V1562.7z M482.8,1576.7l-1.7,1.8l-1.7-1.8v-9.2l2.2-2.2l1.3,1.3V1576.7z"/>
            <path class="anac3_st6" d="M493.9,1562.7l-1.3,1.3l-2.2-2.2v-11.6l1.7-1.7l1.8,1.7V1562.7z M493.9,1579.1l-1.8,1.7l-1.7-1.7v-11.6
			l2.2-2.2l1.3,1.3V1579.1z"/>
            <path class="anac3_st6" d="M501.6,1562.7v-13.6l3.5,3.5v9.2l-2.2,2.2L501.6,1562.7z M505,1567.5v9.9l-3.5,3.5v-14.2l1.3-1.3L505,1567.5z
			 M520.3,1548.5l-3.4,3.5h-11.2l-3.4-3.5H520.3z M517.3,1562.9l1.8,1.7l-1.8,1.7h-12.1l-1.7-1.7l1.7-1.7H517.3z M517.5,1561.8v-9.2
			l3.5-3.5v13.6l-1.3,1.3L517.5,1561.8z M520.9,1566.6v14.2l-3.5-3.5v-9.9l2.2-2.2L520.9,1566.6z"/>
            <path class="anac3_st6" d="M526.5,1562.7v-14.2l3.5,3.5v9.9l-2.2,2.2L526.5,1562.7z M529.9,1567.5v9.9l-3.5,3.5v-14.2l1.3-1.3
			L529.9,1567.5z M530.7,1554.4l0-2.5h2.4l8.4,8.4l0,2.4l-2.4,0L530.7,1554.4z M542.4,1561.8v-9.9l3.5-3.5v14.2l-1.3,1.3
			L542.4,1561.8z M545.8,1566.6v14.2l-3.5-3.5v-9.9l2.2-2.2L545.8,1566.6z"/>
            <path class="anac3_st6" d="M570.7,1548.5l-3.4,3.5h-12.5l-3.5-3.5H570.7z M562.8,1564.5l-1.3,1.2l-2.2-2.1v-9.2l1.7-1.7l1.8,1.7V1564.5z
			 M562.8,1579.1l-1.8,1.7l-1.7-1.7v-9.9l2.2-2.2l1.3,1.3V1579.1z"/>
        </g>
        <g id="1-anac3">
            <path class="anac3_st6" d="M588.9,1561.8v-9.2l3.5-3.5v13.6l-1.3,1.3L588.9,1561.8z M592.3,1566.6v13.5l-3.5-3.5v-9.2l2.2-2.2
			L592.3,1566.6z"/>
        </g>
        <g id="pro-anac3">
            <path class="anac3_st6" d="M820.6,1561.8l-2.2,2.2l-1.3-1.3v-13.6l3.5,3.5V1561.8z M820.6,1577.3l-3.5,3.5v-14.2l1.3-1.3l2.2,2.2V1577.3
			z M834.2,1550.2l-1.7,1.8h-11.2l-3.4-3.5h14.6L834.2,1550.2z M832.9,1562.9l1.8,1.7l-1.8,1.7h-12.1l-1.7-1.7l1.7-1.7H832.9z
			 M836.5,1562.7l-1.3,1.3l-2.2-2.2v-9.2l1.7-1.8l1.7,1.8V1562.7z"/>
            <path class="anac3_st6" d="M845.5,1561.8l-2.2,2.2l-1.3-1.3v-13.6l3.5,3.5V1561.8z M845.5,1577.3l-3.5,3.5v-14.2l1.3-1.3l2.2,2.2V1577.3
			z M859.1,1550.2l-1.7,1.8h-11.2l-3.4-3.5h14.6L859.1,1550.2z M857.8,1562.9l1.8,1.7l-1.8,1.7h-12.1l-1.7-1.7l1.7-1.7H857.8z
			 M847.9,1569.7l0-2.4h2.4l11.1,11.1v2.5l-2.4,0L847.9,1569.7z M861.4,1562.7l-1.3,1.3l-2.2-2.2v-9.2l1.7-1.8l1.7,1.8V1562.7z"/>
            <path class="anac3_st6" d="M870.4,1561.8l-2.2,2.2l-1.3-1.3v-10.1l1.7-1.8l1.8,1.8V1561.8z M867,1576.7l1.7,1.8l1.8-1.8v-9.2l-2.2-2.2
			l-1.3,1.3V1576.7z M884,1550.2l-1.7,1.8H871l-1.7-1.8l1.7-1.7h11.2L884,1550.2z M871,1580.8l-1.7-1.7l1.7-1.8h11.2l1.7,1.8
			l-1.7,1.7H871z M886.3,1562.7l-1.3,1.3l-2.2-2.2v-9.2l1.7-1.8l1.7,1.8V1562.7z M886.3,1576.7l-1.7,1.8l-1.7-1.8v-9.2l2.2-2.2
			l1.3,1.3V1576.7z"/>
            <path class="anac3_st6" d="M915.9,1559v-2.4l8-8.1l0,4.9l-5.7,5.6L915.9,1559z M930.7,1559.1l-5.8-5.8l0-4.9l8.2,8.1l0,2.5L930.7,1559.1
			z"/>
            <path class="anac3_st6" d="M952.4,1562.9l1.7,1.7l-1.7,1.7h-12.1l-1.7-1.7l1.7-1.7H952.4z"/>
            <path class="anac3_st6" d="M959.6,1559v-2.4l8-8.1l0,4.9l-5.7,5.6L959.6,1559z M974.4,1559.1l-5.8-5.8l0-4.9l8.2,8.1l0,2.5L974.4,1559.1
			z"/>
        </g>
        <g id="2-anac3">
            <path class="anac3_st6" d="M590.2,1567.5v9.2l-3.5,3.5v-13.5l1.3-1.3L590.2,1567.5z M605.5,1548.5l-3.4,3.5h-11.2l-3.4-3.5H605.5z
			 M605.5,1580.8h-18.1l3.4-3.5H602L605.5,1580.8z M602.5,1562.9l1.8,1.7l-1.8,1.7h-12.1l-1.7-1.7l1.7-1.7H602.5z M602.6,1561.8
			v-9.2l3.5-3.5v13.6l-1.3,1.3L602.6,1561.8z"/>
        </g>
        <g id="3-anac3">
            <path class="anac3_st6" d="M605.5,1548.5l-3.4,3.5h-11.2l-3.4-3.5H605.5z M605.5,1580.8h-18.1l3.4-3.5H602L605.5,1580.8z M602.5,1562.9
			l1.8,1.7l-1.8,1.7h-12.1l-1.7-1.7l1.7-1.7H602.5z M602.6,1561.8v-9.2l3.5-3.5v13.6l-1.3,1.3L602.6,1561.8z M606.1,1566.6v13.5
			l-3.5-3.5v-9.2l2.2-2.2L606.1,1566.6z"/>
        </g>
        <g id="lum-anac3">
            <circle class="anac3_st0" cx="316.5" cy="1566.5" r="14"/>
            <circle class="anac3_st0" cx="183.8" cy="1567" r="14"/>
            <circle class="anac3_st0" cx="51" cy="1567" r="14"/>
            <circle class="anac3_st0" cx="1316.5" cy="1566.5" r="14"/>
            <circle class="anac3_st0" cx="1183.8" cy="1567" r="14"/>
            <circle class="anac3_st0" cx="1051" cy="1567" r="14"/>
        </g>
    </g>
</svg>
