<svg version="1.1" id="svg-anmas3" xmlns="http://www.w3.org/2000/svg" xmlns:xlink="http://www.w3.org/1999/xlink" x="0px" y="0px"
     viewBox="0 0 1920 1080" style="enable-background:new 0 0 1920 1080;" xml:space="preserve">
<style type="text/css">
    .anmas3_st0{stroke:#B3B3B3;stroke-miterlimit:10;}
    .anmas3_st1{fill:#333333;}
    .anmas3_st2{fill:#CCCCCC;}
    .anmas3_st3{fill:#B3B3B3;}
    .anmas3_st4{fill:#1A1A1A;}
    .anmas3_st5{fill:#999999;}
    .anmas3_st6{fill:#808080;}
    .anmas3_st7{fill:#E6E6E6;}
    .anmas3_st8{fill:#34495E;}
    .anmas3_st9{fill:#17232D;}
    .anmas3_st10{fill:#E8E8E8;}
    .anmas3_st11{opacity:0.5;fill:#E8E8E8;}
    .anmas3_st12{fill:#29ABE2;}
    .anmas3_st13{fill:#00A99D;}
    .anmas3_st14{fill:#006837;}
    .anmas3_st15{fill:#009245;}
    .anmas3_st16{fill:#39B54A;}
    .anmas3_st17{fill:#8CC63F;}
    .anmas3_st18{fill:#D9E021;}
    .anmas3_st19{fill:#FCEE21;}
    .anmas3_st20{fill:#FBB03B;}
    .anmas3_st21{fill:#F7931E;}
    .anmas3_st22{fill:#F15A24;}
    .anmas3_st23{fill:#ED1C24;}
    .anmas3_st24{fill:#ED1E79;}
    .anmas3_st25{fill:#D4145A;}
    .anmas3_st26{fill:#9E005D;}
    .anmas3_st27{fill:#93278F;}
    .anmas3_st28{fill:#662D91;}
    .anmas3_st29{fill:#8DBC1F;}
    .anmas3_st30{font-family:'SourceSansPro';}
    .anmas3_st31{font-size:51.6032px;}
    .anmas3_st32{font-family:'FontAwesome';}
    .anmas3_st33{font-size:115.7501px;}
    .anmas3_st34{clip-path:url(#anmas3_svgid_2_);}
    .anmas3_st35{fill:url(#anmas3_svgid_3_);}
    .anmas3_st36{fill:url(#anmas3_svgid_4_);}
    .anmas3_st37{fill:#4C4C4C;}
    .anmas3_st38{fill:#4D4D4D;}
    .anmas3_st39{fill:none;stroke:#808080;stroke-width:2;stroke-miterlimit:10;}
    .anmas3_st40{fill:#666666;}
    .anmas3_st41{fill:#C7B299;}
    .anmas3_st42{fill:none;stroke:#333333;stroke-width:3;stroke-miterlimit:10;}
    .anmas3_st43{fill:#F2F2F2;}
    .anmas3_st44{opacity:0.3;fill:#F2F2F2;}
    .anmas3_st45{fill:#C3C3C3;}
    .anmas3_st46{fill:#1B1464;}
    .anmas3_st47{opacity:0.3;fill:#FFFFFF;}
    .anmas3_st48{fill:#B50202;}
    .anmas3_st49{fill:#CA4A4E;}
    .anmas3_st50{fill:#FFFFFF;}
    .anmas3_st51{fill:url(#anmas3_svgid_5_);}
    .anmas3_st52{fill:#F2C6A5;}
    .anmas3_st53{fill:#FCD4B1;}
    .anmas3_st54{fill:#F4C6A4;}
    .anmas3_st55{fill:#DEDFE0;}
    .anmas3_st56{fill:none;stroke:#0C0C0C;stroke-width:0.25;stroke-miterlimit:10;}
    .anmas3_st57{fill:#1D0421;}
    .anmas3_st58{fill:#9BB9D3;}
    .anmas3_st59{fill:#AAABB0;}
    .anmas3_st60{fill:#1C1611;}
    .anmas3_st61{opacity:0.4;fill:#3F3127;}
    .anmas3_st62{fill:#020202;}
    .anmas3_st63{opacity:0.3;fill:#E8E8E8;}
    .anmas3_st64{fill:#FEDEC9;}
    .anmas3_st65{fill:#634E40;}
    .anmas3_st66{fill:#352E26;}
    .anmas3_st67{fill:#CCD8DD;}
    .anmas3_st68{fill:url(#anmas3_svgid_6_);}
    .anmas3_st69{fill:#ADADAD;}
    .anmas3_st70{fill:#898989;}
    .anmas3_st71{fill:url(#anmas3_svgid_7_);}
    .anmas3_st72{fill:url(#anmas3_svgid_8_);}
    .anmas3_st73{fill:url(#anmas3_svgid_9_);}
    .anmas3_st74{fill:#FFC2D9;}
    .anmas3_st75{opacity:0.61;fill:#FFFFFF;}
    .anmas3_st76{fill:none;stroke:#000000;stroke-miterlimit:10;}
    .anmas3_st77{fill:url(#anmas3_svgid_10_);}
    .anmas3_st78{fill:#CCD7DB;}
    .anmas3_st79{fill:url(#anmas3_svgid_11_);}
    .anmas3_st80{filter:url(#AI_Sfocatura_7);}
    .anmas3_st81{letter-spacing:-1;}
    .anmas3_st82{opacity:0.85;fill:#34495E;}
    .anmas3_st83{clip-path:url(#anmas3_svgid_13_);fill:#CAD3D8;}
    .anmas3_st84{clip-path:url(#anmas3_svgid_13_);fill:#F2C6A5;}
    .anmas3_st85{clip-path:url(#anmas3_svgid_13_);fill:#FCD4B1;}
    .anmas3_st86{clip-path:url(#anmas3_svgid_13_);fill:#F4C6A4;}
    .anmas3_st87{clip-path:url(#anmas3_svgid_13_);fill:#BF6411;}
    .anmas3_st88{clip-path:url(#anmas3_svgid_13_);fill:#1D0421;}
    .anmas3_st89{clip-path:url(#anmas3_svgid_13_);fill:#BC9661;}
    .anmas3_st90{opacity:0.15;fill:#FFFFFF;}
    .anmas3_st91{fill:none;stroke:#E8E8E8;stroke-width:2;stroke-miterlimit:10;}
    .anmas3_st93{display:inline;fill:#E8E8E8;}
    .anmas3_st94{font-family:'Lato-Light';}
    .anmas3_st95{font-size:18.1154px;}
    .anmas3_st96{opacity:0.2;fill:#E8E8E8;}
    .anmas3_st92{font-size:18.1154px;}
    .anmas3_st97{opacity:0.2;fill:#E8E8E8;}
    .anmas3_st98{opacity:0.95;fill:#17232D;}
    .anmas3_st99{font-size:34.0359px;}
</style>
    <filter  id="AI_Sfocatura_7">
        <feGaussianBlur  stdDeviation="7"></feGaussianBlur>
    </filter>
    <g id="bg-anmas3">
        <g id="mac-anmas3">
            <path class="anmas3_st0" d="M1688.8,919.5H193.3c-3,0-5.4-2.4-5.4-5.4V13.7c0-3,2.4-5.4,5.4-5.4h1495.5c3,0,5.4,2.4,5.4,5.4v900.3
			C1694.2,917,1691.8,919.5,1688.8,919.5z"/>
            <rect x="238.1" y="43" class="anmas3_st1" width="1405.9" height="807"/>
            <path class="anmas3_st2" d="M1795.9,1049.6H88.5c-13,0-23.5-4.6-23.5-10.4l104.1-126.8c0-5.7,10.5-10.4,23.5-10.4h1499.1
			c13,0,23.5,4.6,23.5,10.4l104.1,126.8C1819.3,1045,1808.8,1049.6,1795.9,1049.6z"/>
            <rect x="67.1" y="1041" class="anmas3_st3" width="1752.9" height="30.4"/>
            <path d="M1610.7,914.6H273.6c-10.1,0-18.4-0.4-18.4-0.9l11.4-11.6c0-0.5,78.3-0.7,88.5-0.7h1247.8c10.1,0,18.4,0.4,18.4,0.9
			l7.8,11.3C1629.1,914.2,1620.9,914.6,1610.7,914.6z"/>
            <path class="anmas3_st3" d="M1705.6,980.2H178.8c-4.6,0-8.3-1.6-8.3-3.7l36.8-44.8c0-2,3.7-3.7,8.3-3.7h1453.3c4.6,0,8.3,1.6,8.3,3.7
			l36.8,44.8C1713.8,978.6,1710.1,980.2,1705.6,980.2z"/>
            <path class="anmas3_st1" d="M1686.1,971.5H198.2c-4.5,0-8.1-1.4-8.1-3l35.8-37.3c0-1.7,3.6-3,8.1-3h1416.2c4.5,0,8.1,1.4,8.1,3l35.8,37.3
			C1694.2,970.2,1690.6,971.5,1686.1,971.5z"/>
            <rect x="192.9" y="967.2" class="anmas3_st4" width="1501.3" height="8.7"/>
            <path class="anmas3_st3" d="M1193.3,1032.3H691.1c-3.8,0-6.9-1.4-6.9-3l30.6-37.3c0-1.7,3.1-3,6.9-3h440.9c3.8,0,6.9,1.4,6.9,3l30.6,37.3
			C1200.2,1030.9,1197.1,1032.3,1193.3,1032.3z"/>
            <rect x="861.1" y="1041" class="anmas3_st5" width="164.9" height="13"/>
        </g>
        <g>
            <circle class="anmas3_st6" cx="942.5" cy="25" r="7"/>
            <circle class="anmas3_st4" cx="942.5" cy="25" r="5.4"/>
            <circle class="anmas3_st7" cx="942.5" cy="25" r="0.6"/>
        </g>
    </g>
    <g id="desktop-anmas3">
        <rect x="238.1" y="43" class="anmas3_st8" width="1405.9" height="807"/>
        <rect x="234" y="42" class="anmas3_st9" width="1414" height="44"/>
        <path class="anmas3_st10" d="M273.8,54.3c-1.8,0-3.3,0.6-4.6,1.9c-1.3,1.3-1.9,2.8-1.9,4.6v16.2h3.2V60.8c0-0.9,0.3-1.7,0.9-2.3
		c0.6-0.6,1.4-0.9,2.3-0.9c0.9,0,1.6,0.3,2.3,0.9c0.6,0.6,0.9,1.4,0.9,2.3V64c0,0.9-0.3,1.6-0.9,2.3c-0.6,0.6-1.4,0.9-2.3,0.9v3.2
		c1.8,0,3.3-0.6,4.6-1.9c1.3-1.3,1.9-2.8,1.9-4.6v-3.2c0-1.8-0.6-3.3-1.9-4.6C277.1,55,275.6,54.3,273.8,54.3z M288.4,57.6
		c-0.9,0-1.6-0.3-2.3-0.9c-0.6-0.6-0.9-1.4-0.9-2.3h-3.2c0,1.8,0.6,3.3,1.9,4.6c1.3,1.3,2.8,1.9,4.6,1.9c0.9,0,1.6,0.3,2.3,0.9
		c0.6,0.6,0.9,1.4,0.9,2.3c0,0.9-0.3,1.6-0.9,2.3c-0.6,0.6-1.4,0.9-2.3,0.9c-0.9,0-1.6-0.3-2.3-0.9c-0.6-0.6-0.9-1.4-0.9-2.3h-3.2
		c0,1.8,0.6,3.3,1.9,4.6c1.3,1.3,2.8,1.9,4.6,1.9c1.8,0,3.3-0.6,4.6-1.9c1.3-1.3,1.9-2.8,1.9-4.6c0-1.8-0.6-3.3-1.9-4.6
		C291.7,58.2,290.2,57.6,288.4,57.6z M310.5,56.2c-1.3-1.3-2.8-1.9-4.6-1.9v3.2c0.9,0,1.7,0.3,2.3,0.9c0.6,0.6,0.9,1.4,0.9,2.3v9.7
		h3.2v-9.7C312.4,59,311.8,57.5,310.5,56.2z M299.5,54.3h-3.2v16.2h3.2V57.6c0.9,0,1.6,0.3,2.3,0.9c0.6,0.6,0.9,1.4,0.9,2.3v9.7h3.2
		v-9.7c0-1.8-0.6-3.3-1.9-4.6C302.8,55,301.3,54.3,299.5,54.3z"/>
        <path class="anmas3_st11" d="M1550.5,779h-1182c-6.3,0-11.5,5.1-11.5,11.5V850h1205v-59.5C1562,784.1,1556.9,779,1550.5,779z"/>
        <rect x="375" y="794" class="anmas3_st12" width="47" height="47"/>
        <rect x="444.5" y="794" class="anmas3_st13" width="47" height="47"/>
        <rect x="514" y="794" class="anmas3_st14" width="47" height="47"/>
        <rect x="583.5" y="794" class="anmas3_st15" width="47" height="47"/>
        <rect x="653" y="794" class="anmas3_st16" width="47" height="47"/>
        <rect x="722.5" y="794" class="anmas3_st17" width="47" height="47"/>
        <rect x="792" y="794" class="anmas3_st18" width="47" height="47"/>
        <rect x="861.5" y="794" class="anmas3_st19" width="47" height="47"/>
        <rect x="931" y="794" class="anmas3_st20" width="47" height="47"/>
        <rect x="1000.5" y="794" class="anmas3_st21" width="47" height="47"/>
        <rect x="1070" y="794" class="anmas3_st22" width="47" height="47"/>
        <rect x="1139.5" y="794" class="anmas3_st23" width="47" height="47"/>
        <rect x="1209" y="794" class="anmas3_st24" width="47" height="47"/>
        <rect x="1278.5" y="794" class="anmas3_st25" width="47" height="47"/>
        <rect x="1348" y="794" class="anmas3_st26" width="47" height="47"/>
        <rect x="1417.5" y="794" class="anmas3_st27" width="47" height="47"/>
        <rect x="1487" y="794" class="anmas3_st28" width="47" height="47"/>
        <path class="anmas3_st29" d="M816.5,125.4h3.6v57.9h-11.6l0.1-31.8L794,166.8l-14.6-15.3v31.8h-11.6v-57.9h3.7l22.5,25L816.5,125.4z"/>
        <path class="anmas3_st29" d="M851.8,124.2h1.2l24,59.1h-12.8l-2.3-6.1h-18.9l-2.2,6.1h-12.9L851.8,124.2z M857.6,166.4l-5.2-14.8
		l-5.3,14.8H857.6z"/>
        <path class="anmas3_st29" d="M883.8,167.6c6.5,4.6,13.6,4.8,16.3,4.5c3.4-0.2,6.2-2.6,5.9-5.7c-0.2-3.3-2.7-4.7-5.9-5.8
		c-8.9-3.3-16.9-7.8-16.9-17.4c0-9.6,6.6-16.9,16.1-17.4c3-0.2,6.9-0.2,14.2,2.4l-1.4,11c-6.3-2.6-9.9-2.5-11.6-2.4
		c-4.1,0.2-5.9,3.2-5.7,6.4c0.3,3.2,3.1,4.6,6.4,5.7c8.9,3.3,16.5,8.4,16.5,17.5c0,9.5-6.5,16.7-17.2,17.3c-3.2,0.2-10.3-0.2-18-4.1
		L883.8,167.6z"/>
        <path class="anmas3_st29" d="M936.6,183.3v-45.6h-14.2v-11.3h39.8v11.3H948v45.6H936.6z"/>
        <path class="anmas3_st29" d="M970.8,183.3v-57h28.6v11.4h-17.1v11.4h15v11.4h-15v11.4h18.1v11.4H970.8z"/>
        <path class="anmas3_st29" d="M1039.4,183.3l-11.5-21.8h-5.5v21.8H1011v-57h22.5c20.3,0,22.3,28.6,5.6,33.5l13.2,23.5H1039.4z
		 M1022.4,150.4h10c7.7,0,7.7-12.8,0-12.8h-10V150.4z"/>
        <path class="anmas3_st29" d="M1100.8,142.8c0-3.2-2.6-5.6-5.9-5.7c-5-0.3-11.3,3-13.2,4.5l-2.8-11c4.4-3.2,11.3-5.4,16.9-5.2
		c16.7,0.9,22.3,15.6,12.8,28.9l-11.2,17.4h16.9v11.6h-37.6l21.3-33.8C1100.9,145.1,1100.8,142.8,1100.8,142.8z"/>
        <text transform="matrix(1 0 0 1 385.1781 736.332)" class="anmas3_st10 anmas3_st30 anmas3_st31">Survolez les icônes pour découvrir le master 2 PSM !</text>
        <g id="ico-anmas3">
            <g id="ico-prog-anmas3">
                <path class="anmas3_st10" d="M531.7,383v70.3c0,2.8-1,5.3-3,7.3c-2,2-4.5,3-7.3,3h-86.8c-2.8,0-5.3-1-7.3-3c-2-2-3-4.5-3-7.3V383
				c0-2.8,1-5.3,3-7.3c2-2,4.5-3,7.3-3h86.8c2.8,0,5.3,1,7.3,3C530.7,377.8,531.7,380.2,531.7,383z M457.3,403.7v-12.4
				c0-0.6-0.2-1.1-0.6-1.5c-0.4-0.4-0.9-0.6-1.5-0.6h-20.7c-0.6,0-1.1,0.2-1.5,0.6c-0.4,0.4-0.6,0.9-0.6,1.5v12.4
				c0,0.6,0.2,1.1,0.6,1.5c0.4,0.4,0.9,0.6,1.5,0.6h20.7c0.6,0,1.1-0.2,1.5-0.6C457.1,404.8,457.3,404.3,457.3,403.7z M457.3,428.5
				v-12.4c0-0.6-0.2-1.1-0.6-1.5c-0.4-0.4-0.9-0.6-1.5-0.6h-20.7c-0.6,0-1.1,0.2-1.5,0.6s-0.6,0.9-0.6,1.5v12.4
				c0,0.6,0.2,1.1,0.6,1.5s0.9,0.6,1.5,0.6h20.7c0.6,0,1.1-0.2,1.5-0.6C457.1,429.6,457.3,429.1,457.3,428.5z M457.3,453.3v-12.4
				c0-0.6-0.2-1.1-0.6-1.5c-0.4-0.4-0.9-0.6-1.5-0.6h-20.7c-0.6,0-1.1,0.2-1.5,0.6s-0.6,0.9-0.6,1.5v12.4c0,0.6,0.2,1.1,0.6,1.5
				s0.9,0.6,1.5,0.6h20.7c0.6,0,1.1-0.2,1.5-0.6C457.1,454.4,457.3,453.9,457.3,453.3z M490.3,403.7v-12.4c0-0.6-0.2-1.1-0.6-1.5
				c-0.4-0.4-0.9-0.6-1.5-0.6h-20.7c-0.6,0-1.1,0.2-1.5,0.6c-0.4,0.4-0.6,0.9-0.6,1.5v12.4c0,0.6,0.2,1.1,0.6,1.5
				c0.4,0.4,0.9,0.6,1.5,0.6h20.7c0.6,0,1.1-0.2,1.5-0.6C490.1,404.8,490.3,404.3,490.3,403.7z M490.3,428.5v-12.4
				c0-0.6-0.2-1.1-0.6-1.5s-0.9-0.6-1.5-0.6h-20.7c-0.6,0-1.1,0.2-1.5,0.6c-0.4,0.4-0.6,0.9-0.6,1.5v12.4c0,0.6,0.2,1.1,0.6,1.5
				c0.4,0.4,0.9,0.6,1.5,0.6h20.7c0.6,0,1.1-0.2,1.5-0.6S490.3,429.1,490.3,428.5z M490.3,453.3v-12.4c0-0.6-0.2-1.1-0.6-1.5
				s-0.9-0.6-1.5-0.6h-20.7c-0.6,0-1.1,0.2-1.5,0.6c-0.4,0.4-0.6,0.9-0.6,1.5v12.4c0,0.6,0.2,1.1,0.6,1.5c0.4,0.4,0.9,0.6,1.5,0.6
				h20.7c0.6,0,1.1-0.2,1.5-0.6S490.3,453.9,490.3,453.3z M523.4,403.7v-12.4c0-0.6-0.2-1.1-0.6-1.5c-0.4-0.4-0.9-0.6-1.5-0.6h-20.7
				c-0.6,0-1.1,0.2-1.5,0.6c-0.4,0.4-0.6,0.9-0.6,1.5v12.4c0,0.6,0.2,1.1,0.6,1.5c0.4,0.4,0.9,0.6,1.5,0.6h20.7
				c0.6,0,1.1-0.2,1.5-0.6C523.2,404.8,523.4,404.3,523.4,403.7z M523.4,428.5v-12.4c0-0.6-0.2-1.1-0.6-1.5
				c-0.4-0.4-0.9-0.6-1.5-0.6h-20.7c-0.6,0-1.1,0.2-1.5,0.6s-0.6,0.9-0.6,1.5v12.4c0,0.6,0.2,1.1,0.6,1.5s0.9,0.6,1.5,0.6h20.7
				c0.6,0,1.1-0.2,1.5-0.6C523.2,429.6,523.4,429.1,523.4,428.5z M523.4,453.3v-12.4c0-0.6-0.2-1.1-0.6-1.5
				c-0.4-0.4-0.9-0.6-1.5-0.6h-20.7c-0.6,0-1.1,0.2-1.5,0.6s-0.6,0.9-0.6,1.5v12.4c0,0.6,0.2,1.1,0.6,1.5s0.9,0.6,1.5,0.6h20.7
				c0.6,0,1.1-0.2,1.5-0.6C523.2,454.4,523.4,453.9,523.4,453.3z"/>
            </g>
            <g id="ico-proj-anmas3">
                <path class="anmas3_st10" d="M1007.2,374.8c0,10.7-1.6,20-4.9,27.8c-3.3,7.8-8.7,15.6-16.4,23.3c-3.5,3.4-7.7,7.2-12.6,11.4l-1.3,24.5
				c-0.1,0.7-0.4,1.2-1,1.7l-24.8,14.5c-0.3,0.2-0.6,0.3-1,0.3c-0.5,0-1-0.2-1.5-0.6l-4.1-4.1c-0.6-0.6-0.7-1.3-0.5-2.1l5.5-17.8
				l-18.2-18.2l-17.8,5.5c-0.1,0-0.3,0.1-0.6,0.1c-0.6,0-1.1-0.2-1.5-0.6l-4.1-4.1c-0.7-0.8-0.8-1.7-0.3-2.5l14.5-24.8
				c0.4-0.6,1-0.9,1.7-1l24.5-1.3c4.1-4.9,7.9-9.1,11.4-12.6c8.1-8.1,15.8-13.6,23.1-16.7c7.3-3.1,16.6-4.6,27.8-4.6
				c0.6,0,1.1,0.2,1.5,0.6C1007,373.7,1007.2,374.2,1007.2,374.8z M990.9,397.8c1.2-1.2,1.8-2.7,1.8-4.4c0-1.7-0.6-3.2-1.8-4.4
				c-1.2-1.2-2.7-1.8-4.4-1.8c-1.7,0-3.2,0.6-4.4,1.8c-1.2,1.2-1.8,2.7-1.8,4.4c0,1.7,0.6,3.2,1.8,4.4c1.2,1.2,2.7,1.8,4.4,1.8
				C988.2,399.6,989.7,399,990.9,397.8z"/>
            </g>
            <g id="ico-anc-anmas3">
                <path class="anmas3_st10" d="M1457.9,454.8c0,4.7-1.3,8.7-4,12.1c-2.7,3.4-5.9,5-9.7,5H1389c-3.8,0-7-1.7-9.7-5c-2.7-3.4-4-7.4-4-12.1
				c0-3.7,0.2-7.1,0.5-10.4c0.4-3.3,1-6.5,2-9.8c1-3.3,2.2-6.1,3.8-8.5c1.5-2.3,3.6-4.3,6.1-5.7c2.5-1.5,5.4-2.2,8.7-2.2
				c5.6,5.5,12.4,8.3,20.2,8.3c7.8,0,14.6-2.8,20.2-8.3c3.3,0,6.2,0.7,8.7,2.2c2.5,1.5,4.5,3.4,6.1,5.7c1.5,2.3,2.8,5.2,3.8,8.5
				c1,3.3,1.7,6.6,2,9.8C1457.7,447.7,1457.9,451.1,1457.9,454.8z M1434.1,380c4.8,4.8,7.3,10.7,7.3,17.5c0,6.8-2.4,12.7-7.3,17.5
				c-4.8,4.8-10.7,7.3-17.5,7.3s-12.7-2.4-17.5-7.3c-4.8-4.8-7.3-10.7-7.3-17.5c0-6.8,2.4-12.7,7.3-17.5c4.8-4.8,10.7-7.3,17.5-7.3
				S1429.2,375.1,1434.1,380z"/>
            </g>
        </g>
    </g>

    <g id="password-screen-anmas3">
        <g class="anmas3_st80">
            <rect x="238.1" y="43" class="anmas3_st8" width="1405.9" height="807"/>
            <path class="anmas3_st11" d="M1550.5,779h-1182c-6.3,0-11.5,5.1-11.5,11.5V850h1205v-59.5C1562,784.1,1556.9,779,1550.5,779z"/>
            <rect x="375" y="794" class="anmas3_st12" width="47" height="47"/>
            <rect x="444.5" y="794" class="anmas3_st13" width="47" height="47"/>
            <rect x="514" y="794" class="anmas3_st14" width="47" height="47"/>
            <rect x="583.5" y="794" class="anmas3_st15" width="47" height="47"/>
            <rect x="653" y="794" class="anmas3_st16" width="47" height="47"/>
            <rect x="722.5" y="794" class="anmas3_st17" width="47" height="47"/>
            <rect x="792" y="794" class="anmas3_st18" width="47" height="47"/>
            <rect x="861.5" y="794" class="anmas3_st19" width="47" height="47"/>
            <rect x="931" y="794" class="anmas3_st20" width="47" height="47"/>
            <rect x="1000.5" y="794" class="anmas3_st21" width="47" height="47"/>
            <rect x="1070" y="794" class="anmas3_st22" width="47" height="47"/>
            <rect x="1139.5" y="794" class="anmas3_st23" width="47" height="47"/>
            <rect x="1209" y="794" class="anmas3_st24" width="47" height="47"/>
            <rect x="1278.5" y="794" class="anmas3_st25" width="47" height="47"/>
            <rect x="1348" y="794" class="anmas3_st26" width="47" height="47"/>
            <rect x="1417.5" y="794" class="anmas3_st27" width="47" height="47"/>
            <rect x="1487" y="794" class="anmas3_st28" width="47" height="47"/>
            <path class="anmas3_st29" d="M816.5,125.4h3.6v57.9h-11.6l0.1-31.8L794,166.8l-14.6-15.3v31.8h-11.6v-57.9h3.7l22.5,25L816.5,125.4z"/>
            <path class="anmas3_st29" d="M851.8,124.2h1.2l24,59.1h-12.8l-2.3-6.1h-18.9l-2.2,6.1h-12.9L851.8,124.2z M857.6,166.4l-5.2-14.8
			l-5.3,14.8H857.6z"/>
            <path class="anmas3_st29" d="M883.8,167.6c6.5,4.6,13.6,4.8,16.3,4.5c3.4-0.2,6.2-2.6,5.9-5.7c-0.2-3.3-2.7-4.7-5.9-5.8
			c-8.9-3.3-16.9-7.8-16.9-17.4c0-9.6,6.6-16.9,16.1-17.4c3-0.2,6.9-0.2,14.2,2.4l-1.4,11c-6.3-2.6-9.9-2.5-11.6-2.4
			c-4.1,0.2-5.9,3.2-5.7,6.4c0.3,3.2,3.1,4.6,6.4,5.7c8.9,3.3,16.5,8.4,16.5,17.5c0,9.5-6.5,16.7-17.2,17.3
			c-3.2,0.2-10.3-0.2-18-4.1L883.8,167.6z"/>
            <path class="anmas3_st29" d="M936.6,183.3v-45.6h-14.2v-11.3h39.8v11.3H948v45.6H936.6z"/>
            <path class="anmas3_st29" d="M970.8,183.3v-57h28.6v11.4h-17.1v11.4h15v11.4h-15v11.4h18.1v11.4H970.8z"/>
            <path class="anmas3_st29" d="M1039.4,183.3l-11.5-21.8h-5.5v21.8H1011v-57h22.5c20.3,0,22.3,28.6,5.6,33.5l13.2,23.5H1039.4z
			 M1022.4,150.4h10c7.7,0,7.7-12.8,0-12.8h-10V150.4z"/>
            <path class="anmas3_st29" d="M1100.8,142.8c0-3.2-2.6-5.6-5.9-5.7c-5-0.3-11.3,3-13.2,4.5l-2.8-11c4.4-3.2,11.3-5.4,16.9-5.2
			c16.7,0.9,22.3,15.6,12.8,28.9l-11.2,17.4h16.9v11.6h-37.6l21.3-33.8C1100.9,145.1,1100.8,142.8,1100.8,142.8z"/>
            <text transform="matrix(1 0 0 1 385.1781 736.332)"><tspan x="0" y="0" class="anmas3_st10 anmas3_st30 anmas3_st31">Su</tspan><tspan x="55.4" y="0" class="anmas3_st10 anmas3_st30 anmas3_st31">r</tspan><tspan x="74.3" y="0" class="anmas3_st10 anmas3_st30 anmas3_st31">v</tspan><tspan x="98.1" y="0" class="anmas3_st10 anmas3_st30 anmas3_st31">ol</tspan><tspan x="139.3" y="0" class="anmas3_st10 anmas3_st30 anmas3_st31">e</tspan><tspan x="165.1" y="0" class="anmas3_st10 anmas3_st30 anmas3_st31">z les i</tspan><tspan x="280.9" y="0" class="anmas3_st10 anmas3_st30 anmas3_st31 anmas3_st81">c</tspan><tspan x="303.4" y="0" class="anmas3_st10 anmas3_st30 anmas3_st31">ônes pour dé</tspan><tspan x="584.4" y="0" class="anmas3_st10 anmas3_st30 anmas3_st31 anmas3_st81">c</tspan><tspan x="606.9" y="0" class="anmas3_st10 anmas3_st30 anmas3_st31">ouvrir le mas</tspan><tspan x="886" y="0" class="anmas3_st10 anmas3_st30 anmas3_st31">t</tspan><tspan x="902.9" y="0" class="anmas3_st10 anmas3_st30 anmas3_st31">er 2 </tspan><tspan x="992.9" y="0" class="anmas3_st10 anmas3_st30 anmas3_st31">P</tspan><tspan x="1021.8" y="0" class="anmas3_st10 anmas3_st30 anmas3_st31">SM !</tspan></text>
            <text transform="matrix(1 0 0 1 399.3944 463.6504)" class="anmas3_st10 anmas3_st32 anmas3_st33"></text>
            <text transform="matrix(1 0 0 1 874.8944 463.6504)" class="anmas3_st10 anmas3_st32 anmas3_st33"></text>
            <text transform="matrix(1 0 0 1 1350.3943 463.6504)" class="anmas3_st10 anmas3_st32 anmas3_st33"></text>
        </g>
        <rect x="238.1" y="43" class="anmas3_st82" width="1405.9" height="807"/>
        <path class="anmas3_st63" d="M1176.3,559H705.7c-4.2,0-7.7-3.4-7.7-7.7v-44.6c0-4.2,3.4-7.7,7.7-7.7h470.6c4.2,0,7.7,3.4,7.7,7.7v44.6
		C1184,555.6,1180.6,559,1176.3,559z"/>
        <g id="esc-anmas3">
            <path class="anmas3_st10" d="M935,805c-21.5,0-39-17.5-39-39s17.5-39,39-39s39,17.5,39,39S956.5,805,935,805z M935,729
			c-20.4,0-37,16.6-37,37s16.6,37,37,37s37-16.6,37-37S955.4,729,935,729z"/>
            <g>
                <path class="anmas3_st10" d="M950.4,775.4c0,0.7-0.2,1.3-0.7,1.8l-3.5,3.5c-0.5,0.5-1.1,0.7-1.8,0.7c-0.7,0-1.3-0.2-1.8-0.7L935,773
				l-7.6,7.6c-0.5,0.5-1.1,0.7-1.8,0.7c-0.7,0-1.3-0.2-1.8-0.7l-3.5-3.5c-0.5-0.5-0.7-1.1-0.7-1.8s0.2-1.3,0.7-1.8l7.6-7.6l-7.6-7.6
				c-0.5-0.5-0.7-1.1-0.7-1.8c0-0.7,0.2-1.3,0.7-1.8l3.5-3.5c0.5-0.5,1.1-0.7,1.8-0.7c0.7,0,1.3,0.2,1.8,0.7l7.6,7.6l7.6-7.6
				c0.5-0.5,1.1-0.7,1.8-0.7c0.7,0,1.3,0.2,1.8,0.7l3.5,3.5c0.5,0.5,0.7,1.1,0.7,1.8c0,0.7-0.2,1.3-0.7,1.8L942,766l7.6,7.6
				C950.1,774.1,950.4,774.7,950.4,775.4z"/>
            </g>
        </g>
        <g id="go-anmas3">
            <path class="anmas3_st10" d="M1257,568c-21.5,0-39-17.5-39-39s17.5-39,39-39s39,17.5,39,39S1278.5,568,1257,568z M1257,492
			c-20.4,0-37,16.6-37,37s16.6,37,37,37s37-16.6,37-37S1277.4,492,1257,492z"/>
            <g>
                <path class="anmas3_st10" d="M1276.1,529c0,0.9-0.3,1.7-1,2.4l-16.9,16.9c-0.7,0.6-1.5,1-2.4,1c-0.9,0-1.7-0.3-2.3-1l-1.9-1.9
				c-0.7-0.7-1-1.4-1-2.4s0.3-1.7,1-2.4l7.6-7.6H1241c-0.9,0-1.6-0.3-2.2-1c-0.6-0.6-0.8-1.4-0.8-2.3v-3.3c0-0.9,0.3-1.7,0.8-2.3
				c0.6-0.6,1.3-1,2.2-1h18.2l-7.6-7.6c-0.7-0.6-1-1.4-1-2.3s0.3-1.7,1-2.3l1.9-1.9c0.7-0.7,1.4-1,2.3-1c0.9,0,1.7,0.3,2.4,1
				l16.9,16.9C1275.7,527.3,1276.1,528.1,1276.1,529z"/>
            </g>
        </g>
        <g id="avatar-anmas3">
            <clipPath id="avatarClipPath-anmas3">
                <defs>
                    <path id="avatar-clipper-anmas3" d="M815.4,265.4c0,69.4,56.3,125.6,125.6,125.6c69.4,0,125.6-56.3,125.6-125.6
						c0-69.4-56.3-125.6-125.6-125.6C871.6,139.7,815.4,196,815.4,265.4"/>
                </defs>
                <use xlink:href="#avatar-clipper-anmas3"  style="overflow:visible;"/>
            </clipPath>
            <g clip-path="url(#avatarClipPath-anmas3)">
                <path class="anmas3_st83" d="M1066.8,265.4c0,69.4-56.3,125.6-125.6,125.6c-69.4,0-125.6-56.3-125.6-125.6
					c0-69.4,56.3-125.6,125.6-125.6C1010.5,139.7,1066.8,196,1066.8,265.4"/>
                <rect x="922.5" y="345.4" class="anmas3_st84" width="26.2" height="23.5"/>
                <path class="anmas3_st84" d="M987.8,382.1c-9.4-10.7-28.4-17.3-50.3-17.3c-21.8,0-40.7,6.5-50.2,17.1
					C883.2,386.5,991.8,386.6,987.8,382.1"/>
                <path class="anmas3_st85" d="M1003.6,237c0,41.9-14.7,117.9-67.9,117.9S870,278.3,870,236.4s27.6-59.4,65.7-59.4
					C973.8,177,1003.6,195,1003.6,237"/>
                <polygon class="anmas3_st86" points="926,302.9 944,302.9 935.7,309.8 			"/>
                <path class="anmas3_st87" d="M886.6,382.7c0,0,13-17.1,33.3-16.5c0,0,6.1,7.9,15.7,7.7c9.7-0.2,15.2-8.4,15.2-8.4s35.2,0.5,39.4,17.1
					C994.3,399.3,889.3,403.4,886.6,382.7"/>
                <path class="anmas3_st85" d="M1005.2,280.6c-1.1,3.2-3.6,7.6-6.2,6.6c-2.6-1-0.8-4.6-0.3-8.4c0.5-3.8,0.3-13.1,4.9-12.5
					C1008.2,266.9,1006.4,277,1005.2,280.6"/>
                <path class="anmas3_st85" d="M867.9,280.6c1.1,3.2,3.6,7.6,6.2,6.6c2.6-1,0.8-4.6,0.3-8.4c-0.5-3.8-0.3-13.1-4.9-12.5
					C864.8,266.9,866.6,277,867.9,280.6"/>
                <path class="anmas3_st88" d="M939.2,270.4c0,0,0,0-0.1,0c-0.1,0-0.1,0-0.1,0H939.2z"/>
                <path class="anmas3_st89" d="M935.7,177c-89.2,0-63.9,88.3-63.9,88.3s23-8.1,40.3-32.9c0,0,0.8,7.4-6.2,17.3
					c11.1-3.6,18.7-17.8,18.7-17.8s0.4,7.1-3.1,13.8c14.2,1.3,48-25.3,48-25.3s4,23.1,12,37.7c0.9-8.9,4.4-18.2,4.4-18.2
					c9.8,10.2,15.2,25.4,15.2,25.4S1024.9,177,935.7,177z"/>

                <rect x="820.3" y="113.3" transform="matrix(-0.9391 -0.3438 0.3438 -0.9391 1634.0337 779.3961)" class="anmas3_st90" width="131.6" height="263.1"/>
            </g>
            <g>
                <path class="anmas3_st10" d="M852.6,426.6h3.3l4.2,11.6l1.6,4.4h0.1l1.5-4.4l4.2-11.6h3.2v21.6H868v-11.9c0-1.9,0.2-4.5,0.4-6.4h-0.1
				l-1.7,4.8l-4.2,11.3h-1.6l-4.2-11.3l-1.7-4.8h-0.1c0.1,1.9,0.3,4.5,0.3,6.4v11.9h-2.5V426.6z"/>
                <path class="anmas3_st10" d="M885.3,438.1c0-2-0.7-4-3.3-4c-1.9,0-3.5,0.9-4.8,1.7l-1.1-1.9c1.5-1,3.7-2.1,6.3-2.1
				c3.9,0,5.6,2.6,5.6,6.6v9.8h-2.2l-0.2-1.9h-0.1c-1.6,1.3-3.3,2.3-5.3,2.3c-2.7,0-4.7-1.7-4.7-4.6
				C875.4,440.6,878.5,438.8,885.3,438.1z M880.9,446.5c1.6,0,2.8-0.8,4.4-2.1v-4.5c-5.4,0.7-7.2,2-7.2,4
				C878.1,445.7,879.3,446.5,880.9,446.5z"/>
                <path class="anmas3_st10" d="M892.7,444.6c1.4,1.1,2.8,1.9,4.7,1.9c2.1,0,3.2-1.1,3.2-2.5c0-1.6-1.9-2.4-3.7-3c-2.3-0.8-4.8-1.9-4.8-4.6
				c0-2.6,2-4.6,5.5-4.6c2,0,3.8,0.8,5,1.8l-1.3,1.7c-1.1-0.8-2.2-1.4-3.7-1.4c-2,0-2.9,1.1-2.9,2.3c0,1.5,1.7,2.1,3.6,2.8
				c2.3,0.9,4.9,1.8,4.9,4.8c0,2.6-2.1,4.8-5.9,4.8c-2.3,0-4.5-1-6-2.2L892.7,444.6z"/>
                <path class="anmas3_st10" d="M907.4,434.4H905v-2l2.5-0.2l0.3-4.5h2.3v4.5h4.3v2.2h-4.3v8.9c0,2,0.6,3.1,2.5,3.1c0.6,0,1.3-0.2,1.8-0.4
				l0.5,2c-0.9,0.3-2,0.6-3,0.6c-3.4,0-4.6-2.2-4.6-5.3V434.4z"/>
                <path class="anmas3_st10" d="M923.8,431.8c4.1,0,6.4,2.9,6.4,7.5c0,0.6,0,1.1-0.1,1.5h-10.8c0.2,3.5,2.3,5.6,5.3,5.6
				c1.5,0,2.8-0.5,4-1.3l1,1.8c-1.4,0.9-3.1,1.6-5.3,1.6c-4.3,0-7.7-3.1-7.7-8.4C916.6,435,920.1,431.8,923.8,431.8z M927.8,439
				c0-3.3-1.5-5.1-4-5.1c-2.2,0-4.3,1.8-4.6,5.1H927.8z"/>
                <path class="anmas3_st10" d="M934.1,432.2h2.2l0.2,2.9h0.1c1.1-2,2.7-3.3,4.6-3.3c0.7,0,1.2,0.1,1.7,0.3l-0.5,2.4
				c-0.5-0.2-0.9-0.3-1.6-0.3c-1.4,0-3,1-4.1,3.7v10.3h-2.7V432.2z"/>
                <path class="anmas3_st10" d="M950.8,446.6c6.3-6.3,9.9-10.1,9.9-13.5c0-2.4-1.3-4.1-4-4.1c-1.7,0-3.3,1.1-4.5,2.5l-1.6-1.6
				c1.7-1.9,3.6-3.2,6.4-3.2c3.9,0,6.3,2.5,6.3,6.2c0,4-3.6,7.9-8.6,13.1c1.2-0.1,2.4-0.2,3.5-0.2h6.1v2.3h-13.6V446.6z"/>
                <path class="anmas3_st10" d="M975.5,426.6h6.7c4.8,0,8,1.6,8,6.4c0,4.6-3.3,6.7-8,6.7h-3.9v8.6h-2.8V426.6z M981.8,437.4
				c3.8,0,5.6-1.4,5.6-4.5c0-3.1-1.9-4.2-5.6-4.2h-3.5v8.6H981.8z"/>
                <path class="anmas3_st10" d="M994.1,443.5c1.5,1.6,3.7,2.7,6,2.7c2.8,0,4.5-1.4,4.5-3.5c0-2.2-1.6-2.9-3.6-3.8l-3.1-1.4
				c-2-0.9-4.4-2.4-4.4-5.6c0-3.3,2.9-5.7,6.8-5.7c2.6,0,4.8,1.1,6.4,2.7l-1.5,1.8c-1.3-1.3-2.9-2-4.9-2c-2.4,0-4.1,1.2-4.1,3.2
				c0,2.1,1.9,2.9,3.6,3.6l3.1,1.3c2.5,1.1,4.5,2.6,4.5,5.8c0,3.4-2.8,6.2-7.4,6.2c-3,0-5.7-1.3-7.6-3.2L994.1,443.5z"/>
                <path class="anmas3_st10" d="M1011.4,426.6h3.3l4.2,11.6l1.5,4.4h0.1l1.5-4.4l4.2-11.6h3.2v21.6h-2.6v-11.9c0-1.9,0.2-4.5,0.4-6.4h-0.1
				l-1.7,4.8l-4.2,11.3h-1.6l-4.2-11.3l-1.7-4.8h-0.1c0.1,1.9,0.3,4.5,0.3,6.4v11.9h-2.5V426.6z"/>
            </g>
        </g>
        <g id="saisiemdp-anmas3">
            <path class="anmas3_st10" d="M715.4,532.6c1.2,1.5,3.1,2.4,5.2,2.4c2.8,0,4.5-1.5,4.5-3.7c0-2.3-1.5-3-3.2-3.8l-2.7-1.2
			c-1.5-0.7-3.5-1.7-3.5-4.2c0-2.4,2.1-4.1,4.8-4.1c2.1,0,3.7,1,4.7,2l-0.5,0.6c-1-1.1-2.4-1.8-4.2-1.8c-2.4,0-4,1.3-4,3.3
			c0,2.1,1.8,2.9,3,3.5l2.7,1.2c1.9,0.9,3.6,1.9,3.6,4.5c0,2.6-2.1,4.5-5.4,4.5c-2.6,0-4.4-1.1-5.7-2.6L715.4,532.6z"/>
            <path class="anmas3_st10" d="M736.9,527.8c0.1-2-0.5-4.3-3.1-4.3c-1.8,0-3.3,0.9-4.1,1.5l-0.4-0.6c0.8-0.6,2.5-1.6,4.5-1.6
			c2.9,0,3.8,2.2,3.8,4.7v8.1H737l-0.1-1.7h-0.1c-1.3,1-2.9,2-4.5,2c-1.9,0-3.6-1-3.6-3.4C728.7,529.7,731.3,528.4,736.9,527.8z
			 M732.4,535.1c1.5,0,2.9-0.7,4.5-2.1v-4.5c-5.5,0.6-7.3,1.9-7.3,4C729.5,534.4,730.8,535.1,732.4,535.1z"/>
            <path class="anmas3_st10" d="M741.8,519c0-0.6,0.4-0.9,0.9-0.9s0.9,0.3,0.9,0.9c0,0.5-0.4,0.9-0.9,0.9S741.8,519.5,741.8,519z
			 M742.3,523.1h0.8v12.4h-0.8V523.1z"/>
            <path class="anmas3_st10" d="M747,533.5c1,0.9,2.2,1.6,4.1,1.6c2.1,0,3.2-1.2,3.2-2.7c0-1.7-1.7-2.4-3.1-2.9c-1.9-0.7-4.1-1.4-4.1-3.5
			c0-1.7,1.4-3.2,3.9-3.2c1.2,0,2.6,0.5,3.4,1.2l-0.5,0.6c-0.8-0.6-1.7-1.1-3-1.1c-2.1,0-3,1.2-3,2.4c0,1.5,1.5,2.1,3,2.7
			c2,0.8,4.2,1.4,4.2,3.8c0,1.8-1.5,3.4-4.1,3.4c-1.9,0-3.4-0.8-4.5-1.7L747,533.5z"/>
            <path class="anmas3_st10" d="M758,519c0-0.6,0.4-0.9,0.9-0.9s0.9,0.3,0.9,0.9c0,0.5-0.4,0.9-0.9,0.9S758,519.5,758,519z M758.5,523.1h0.8
			v12.4h-0.8V523.1z"/>
            <path class="anmas3_st10" d="M763.2,533.5c1,0.9,2.2,1.6,4.1,1.6c2.1,0,3.2-1.2,3.2-2.7c0-1.7-1.7-2.4-3.1-2.9c-1.9-0.7-4.1-1.4-4.1-3.5
			c0-1.7,1.4-3.2,3.9-3.2c1.2,0,2.6,0.5,3.4,1.2l-0.5,0.6c-0.8-0.6-1.7-1.1-3-1.1c-2.1,0-3,1.2-3,2.4c0,1.5,1.5,2.1,3,2.7
			c2,0.8,4.2,1.4,4.2,3.8c0,1.8-1.5,3.4-4.1,3.4c-1.9,0-3.4-0.8-4.5-1.7L763.2,533.5z"/>
            <path class="anmas3_st10" d="M773.6,533.5c1,0.9,2.2,1.6,4.1,1.6c2.1,0,3.2-1.2,3.2-2.7c0-1.7-1.7-2.4-3.1-2.9c-1.9-0.7-4.1-1.4-4.1-3.5
			c0-1.7,1.4-3.2,3.9-3.2c1.2,0,2.6,0.5,3.4,1.2l-0.5,0.6c-0.8-0.6-1.7-1.1-3-1.1c-2.1,0-3,1.2-3,2.4c0,1.5,1.5,2.1,3,2.7
			c2,0.8,4.2,1.4,4.2,3.8c0,1.8-1.5,3.4-4.1,3.4c-1.9,0-3.4-0.8-4.5-1.7L773.6,533.5z"/>
            <path class="anmas3_st10" d="M789.3,522.8c2.9,0,4.7,2,4.7,5.7c0,0.3,0,0.5-0.1,0.8h-9.2c0,3.3,1.9,5.8,4.9,5.8c1.4,0,2.5-0.5,3.4-1.1
			l0.4,0.7c-0.9,0.6-2,1.2-3.9,1.2c-3.1,0-5.7-2.4-5.7-6.5S786.6,522.8,789.3,522.8z M793.3,528.6c0-3.4-1.6-5.2-3.9-5.2
			c-2.2,0-4.3,2-4.5,5.2H793.3z"/>
            <path class="anmas3_st10" d="M795.9,535.1l7.7-11.3h-6.8v-0.7h7.9v0.4l-7.7,11.3h7.9v0.7h-9V535.1z"/>
            <path class="anmas3_st10" d="M810.9,523.1h0.9l3,8.1c0.4,1.2,0.9,2.4,1.3,3.5h0.1c0.4-1.1,0.9-2.3,1.3-3.5l3-8.1h0.8l-4.7,12.4h-0.9
			L810.9,523.1z"/>
            <path class="anmas3_st10" d="M828.5,522.8c3,0,5.5,2.4,5.5,6.6c0,4.1-2.6,6.5-5.5,6.5c-3,0-5.5-2.4-5.5-6.5
			C823,525.1,825.6,522.8,828.5,522.8z M828.5,535.1c2.7,0,4.7-2.3,4.7-5.8s-2-5.8-4.7-5.8s-4.7,2.4-4.7,5.8
			S825.9,535.1,828.5,535.1z"/>
            <path class="anmas3_st10" d="M838.2,523.8h-2v-0.6l2-0.1l0.1-3.6h0.7v3.6h3.7v0.7H839v8.5c0,1.6,0.4,2.8,2.2,2.8c0.5,0,1.1-0.2,1.6-0.4
			l0.3,0.7c-0.7,0.3-1.5,0.5-1.9,0.5c-2.3,0-2.9-1.5-2.9-3.6V523.8z"/>
            <path class="anmas3_st10" d="M845.8,523.1h0.7l0.1,2.3h0.1c0.8-1.5,2-2.7,3.5-2.7c0.4,0,0.8,0.1,1.2,0.3l-0.2,0.7
			c-0.4-0.2-0.6-0.2-1.1-0.2c-1.1,0-2.5,0.9-3.5,3.3v8.6h-0.8V523.1z"/>
            <path class="anmas3_st10" d="M857.8,522.8c2.9,0,4.7,2,4.7,5.7c0,0.3,0,0.5-0.1,0.8h-9.2c0,3.3,1.9,5.8,4.9,5.8c1.4,0,2.5-0.5,3.4-1.1
			l0.4,0.7c-0.9,0.6-2,1.2-3.9,1.2c-3.1,0-5.7-2.4-5.7-6.5S855,522.8,857.8,522.8z M861.7,528.6c0-3.4-1.6-5.2-3.9-5.2
			c-2.2,0-4.3,2-4.5,5.2H861.7z"/>
            <path class="anmas3_st10" d="M871.1,523.1h0.7l0.1,2h0.1c1.1-1.3,2.6-2.3,4-2.3c2,0,3,1,3.4,2.6c1.5-1.6,2.9-2.6,4.3-2.6
			c2.4,0,3.7,1.5,3.7,4.7v8h-0.8v-7.9c0-2.8-0.9-4.1-3-4.1c-1.2,0-2.5,0.8-4,2.5v9.5h-0.8v-7.9c0-2.8-0.9-4.1-3-4.1
			c-1.2,0-2.5,0.8-4,2.5v9.5h-0.8V523.1z"/>
            <path class="anmas3_st10" d="M896.5,522.8c3,0,5.5,2.4,5.5,6.6c0,4.1-2.6,6.5-5.5,6.5s-5.5-2.4-5.5-6.5
			C891,525.1,893.5,522.8,896.5,522.8z M896.5,535.1c2.7,0,4.7-2.3,4.7-5.8s-2-5.8-4.7-5.8s-4.7,2.4-4.7,5.8
			S893.9,535.1,896.5,535.1z"/>
            <path class="anmas3_st10" d="M906.2,523.8h-2v-0.6l2-0.1l0.1-3.6h0.7v3.6h3.7v0.7H907v8.5c0,1.6,0.4,2.8,2.2,2.8c0.5,0,1.1-0.2,1.6-0.4
			l0.3,0.7c-0.7,0.3-1.5,0.5-1.9,0.5c-2.3,0-2.9-1.5-2.9-3.6V523.8z"/>
            <path class="anmas3_st10" d="M923.4,522.8c1.5,0,2.6,0.6,3.9,1.6l-0.1-2.3v-5.3h0.8v18.8h-0.7l-0.1-1.7h-0.1c-1,1-2.4,2-4.2,2
			c-3.1,0-5.2-2.3-5.2-6.5C917.9,525.3,920.4,522.8,923.4,522.8z M923.1,535.1c1.5,0,2.8-0.8,4.2-2.2v-7.7c-1.4-1.2-2.6-1.7-3.9-1.7
			c-2.7,0-4.7,2.6-4.7,5.8C918.7,532.7,920.2,535.1,923.1,535.1z"/>
            <path class="anmas3_st10" d="M937.3,522.8c2.9,0,4.7,2,4.7,5.7c0,0.3,0,0.5-0.1,0.8h-9.2c0,3.3,1.9,5.8,4.9,5.8c1.4,0,2.5-0.5,3.4-1.1
			l0.4,0.7c-0.9,0.6-2,1.2-3.9,1.2c-3.1,0-5.7-2.4-5.7-6.5S934.5,522.8,937.3,522.8z M941.2,528.6c0-3.4-1.6-5.2-3.9-5.2
			c-2.2,0-4.3,2-4.5,5.2H941.2z"/>
            <path class="anmas3_st10" d="M951.4,536.6v4.7h-0.8v-18.2h0.7l0.1,1.6h0.1c1.2-1,2.8-1.9,4.3-1.9c3.4,0,5,2.5,5,6.4
			c0,4.2-2.6,6.7-5.5,6.7c-1.2,0-2.5-0.6-3.9-1.6V536.6z M955.3,535.1c2.7,0,4.6-2.5,4.6-6c0-3.2-1.1-5.6-4.2-5.6
			c-1.3,0-2.7,0.8-4.3,2.2v7.7C952.9,534.6,954.3,535.1,955.3,535.1z"/>
            <path class="anmas3_st10" d="M971.7,527.8c0.1-2-0.5-4.3-3.1-4.3c-1.8,0-3.3,0.9-4.1,1.5l-0.4-0.6c0.8-0.6,2.5-1.6,4.5-1.6
			c2.9,0,3.8,2.2,3.8,4.7v8.1h-0.7l-0.1-1.7h-0.1c-1.3,1-2.9,2-4.5,2c-1.9,0-3.6-1-3.6-3.4C963.5,529.7,966.1,528.4,971.7,527.8z
			 M967.1,535.1c1.5,0,2.9-0.7,4.5-2.1v-4.5c-5.5,0.6-7.3,1.9-7.3,4C964.3,534.4,965.6,535.1,967.1,535.1z"/>
            <path class="anmas3_st10" d="M976,533.5c1,0.9,2.2,1.6,4.1,1.6c2.1,0,3.2-1.2,3.2-2.7c0-1.7-1.7-2.4-3.1-2.9c-1.9-0.7-4.1-1.4-4.1-3.5
			c0-1.7,1.4-3.2,3.9-3.2c1.2,0,2.6,0.5,3.4,1.2l-0.5,0.6c-0.8-0.6-1.7-1.1-3-1.1c-2.1,0-3,1.2-3,2.4c0,1.5,1.5,2.1,3,2.7
			c2,0.8,4.2,1.4,4.2,3.8c0,1.8-1.5,3.4-4.1,3.4c-1.9,0-3.4-0.8-4.5-1.7L976,533.5z"/>
            <path class="anmas3_st10" d="M986.4,533.5c1,0.9,2.2,1.6,4.1,1.6c2.1,0,3.2-1.2,3.2-2.7c0-1.7-1.7-2.4-3.1-2.9c-1.9-0.7-4.1-1.4-4.1-3.5
			c0-1.7,1.4-3.2,3.9-3.2c1.2,0,2.6,0.5,3.4,1.2l-0.5,0.6c-0.8-0.6-1.7-1.1-3-1.1c-2.1,0-3,1.2-3,2.4c0,1.5,1.5,2.1,3,2.7
			c2,0.8,4.2,1.4,4.2,3.8c0,1.8-1.5,3.4-4.1,3.4c-1.9,0-3.4-0.8-4.5-1.7L986.4,533.5z"/>
            <path class="anmas3_st10" d="M1002.2,522.8c2.9,0,4.7,2,4.7,5.7c0,0.3,0,0.5-0.1,0.8h-9.2c0,3.3,1.9,5.8,4.9,5.8c1.4,0,2.5-0.5,3.4-1.1
			l0.4,0.7c-0.9,0.6-2,1.2-3.9,1.2c-3.1,0-5.7-2.4-5.7-6.5S999.4,522.8,1002.2,522.8z M1006.1,528.6c0-3.4-1.6-5.2-3.9-5.2
			c-2.2,0-4.3,2-4.5,5.2H1006.1z"/>
        </g>
        <line id="type-cursor-anmas3" class="anmas3_st91" x1="709" y1="544.5" x2="709" y2="513.5"/>
        <g id="mdp-anmas3" class="anmas3_st92">
            <circle class="anmas3_st93" cx="723" cy="529" r="8"/>
            <circle class="anmas3_st93" cx="747.6" cy="529" r="8"/>
            <circle class="anmas3_st93" cx="772.2" cy="529" r="8"/>
            <circle class="anmas3_st93" cx="796.9" cy="529" r="8"/>
            <circle class="anmas3_st93" cx="821.5" cy="529" r="8"/>
            <circle class="anmas3_st93" cx="846.1" cy="529" r="8"/>
            <circle class="anmas3_st93" cx="870.8" cy="529" r="8"/>
            <circle class="anmas3_st93" cx="895.4" cy="529" r="8"/>
            <circle class="anmas3_st93" cx="920" cy="529" r="8"/>
        </g>
        <g id="chargement-anmas3">
            <path class="anmas3_st3" d="M931.1,624.7l-4.4-11.5c1.7-0.7,3.5-1.1,5.4-1.3c0,0,1.5,12.2,1.5,12.2c0.1,0.6-0.3,1.2-1,1.4c0,0,0,0,0,0
			C932,625.7,931.4,625.3,931.1,624.7z"/>
            <path class="anmas3_st3" d="M926.9,627.7l-9.2-8.1c1.2-1.4,2.6-2.6,4.1-3.7c0,0,7,10.1,7,10.1c0.4,0.5,0.3,1.3-0.2,1.7c0,0,0,0,0,0
			C928.1,628.1,927.4,628.1,926.9,627.7z"/>
            <path class="anmas3_st3" d="M924.5,632.2l-11.9-2.9c0.4-1.8,1.1-3.6,2-5.2c0,0,10.9,5.7,10.9,5.7c0.6,0.3,0.8,1,0.6,1.6c0,0,0,0,0,0
			C925.8,632,925.2,632.4,924.5,632.2z"/>
            <path class="anmas3_st3" d="M912.6,640.3c-0.4-1.8-0.7-3.6-0.7-5.5c0,0,12.3,0,12.3,0c0.7,0,1.2,0.5,1.3,1.1c0,0,0,0,0,0
			c0.1,0.6-0.3,1.3-1,1.4C924.5,637.4,912.6,640.3,912.6,640.3z"/>
            <path class="anmas3_st3" d="M917.8,650.1c-1.2-1.4-2.3-2.9-3.2-4.6c0,0,10.8-5.7,10.8-5.7c0.6-0.3,1.3-0.1,1.7,0.4c0,0,0,0,0,0
			c0.4,0.5,0.3,1.3-0.2,1.7C926.9,641.9,917.8,650.1,917.8,650.1z"/>
            <path class="anmas3_st3" d="M926.8,656.3c-1.7-0.7-3.4-1.5-4.9-2.6c0,0,7-10.1,7-10.1c0.4-0.5,1.1-0.7,1.7-0.4c0,0,0,0,0,0
			c0.6,0.3,0.8,1,0.6,1.6C931.2,644.8,926.8,656.3,926.8,656.3z"/>
            <path class="anmas3_st3" d="M935,657.8c-0.9,0-1.8-0.1-2.8-0.2c0,0,0,0,0,0l1.5-12.2c0.1-0.6,0.6-1.1,1.3-1.1c0,0,0,0,0,0
			c0.7,0,1.2,0.5,1.3,1.1l1.5,12.2C936.8,657.7,935.9,657.8,935,657.8z"/>
            <path class="anmas3_st3" d="M938.8,644.8c-0.2-0.6,0-1.3,0.6-1.6c0,0,0,0,0,0c0.6-0.3,1.3-0.1,1.7,0.4c0,0,7,10.1,7,10.1
			c-1.5,1.1-3.2,1.9-4.9,2.6C943.2,656.3,938.8,644.8,938.8,644.8z"/>
            <path class="anmas3_st3" d="M943,641.9c-0.5-0.4-0.6-1.2-0.2-1.7c0,0,0,0,0,0c0.4-0.5,1.1-0.7,1.7-0.4c0,0,10.9,5.7,10.9,5.7
			c-0.9,1.6-1.9,3.2-3.2,4.6C952.2,650,943,641.9,943,641.9z"/>
            <path class="anmas3_st3" d="M957.3,640.3l-13.1-3.2c0,0,0,0,0,0c0.2-0.7,0.3-1.5,0.3-2.3v0l13.5,0l0,0.1
			C958,636.6,957.8,638.5,957.3,640.3z"/>
            <path class="anmas3_st3" d="M943.9,631.4C943.9,631.4,943.9,631.4,943.9,631.4c-0.2-0.6,0-1.3,0.6-1.6l10.8-5.7c0.9,1.6,1.5,3.4,2,5.2
			c0,0-11.9,3-11.9,3C944.8,632.3,944.2,632,943.9,631.4z"/>
            <path class="anmas3_st3" d="M941.3,627.6C941.3,627.6,941.3,627.6,941.3,627.6c-0.5-0.5-0.6-1.2-0.2-1.7l7-10.1c1.5,1,2.9,2.3,4.2,3.7
			c0,0-9.2,8.2-9.2,8.2C942.5,628.1,941.8,628.1,941.3,627.6z"/>
            <path class="anmas3_st3" d="M937.3,625.5C937.3,625.5,937.3,625.5,937.3,625.5c-0.7-0.2-1.1-0.8-1-1.4l1.4-12.2c1.8,0.2,3.7,0.7,5.4,1.3
			c0,0-4.3,11.5-4.3,11.5C938.5,625.3,937.9,625.6,937.3,625.5z"/>
        </g>
    </g>
    <g id="header-anmas3">
        <text id="heure-anmas3" transform="matrix(1 0 0 1 1582.313 70.9761)" class="anmas3_st50 anmas3_st94 anmas3_st95">12:03</text>
        <g>
            <path class="anmas3_st50" d="M1562.1,62.3c0.2,0.1,0.2,0.3,0.2,0.5c0,0.2-0.1,0.4-0.2,0.5l-1.1,1.1c-0.1,0.1-0.3,0.2-0.5,0.2
			c-0.2,0-0.4-0.1-0.5-0.2c-1.2-1.1-2.5-1.9-4-2.4s-3-0.8-4.5-0.8s-3,0.3-4.5,0.8c-1.5,0.5-2.8,1.4-4,2.4c-0.1,0.1-0.3,0.2-0.5,0.2
			c-0.2,0-0.3-0.1-0.5-0.2l-1.1-1.1c-0.1-0.1-0.2-0.3-0.2-0.5c0-0.2,0.1-0.4,0.2-0.5l0,0c1.4-1.3,3.1-2.3,4.9-3c1.8-0.7,3.7-1,5.7-1
			c2,0,3.8,0.3,5.7,1C1559,60,1560.6,61,1562.1,62.3z M1558,66.3c0.2,0.1,0.2,0.3,0.2,0.5c0,0.2-0.1,0.4-0.2,0.5l-1.1,1.1
			c-0.1,0.1-0.3,0.2-0.5,0.2c-0.2,0-0.3,0-0.5-0.2c-1.3-1.1-2.8-1.6-4.5-1.6c-1.7,0-3.2,0.5-4.5,1.6c-0.1,0.1-0.3,0.2-0.5,0.2
			c-0.2,0-0.3-0.1-0.5-0.2l-1.1-1.1c-0.2-0.2-0.2-0.3-0.2-0.5c0-0.2,0.1-0.3,0.2-0.5l0,0c0.9-0.8,1.9-1.4,3-1.8
			c1.1-0.4,2.3-0.6,3.5-0.6c1.2,0,2.3,0.2,3.5,0.6C1556.1,64.9,1557.1,65.5,1558,66.3z M1551.5,68.7c0.6,0,1.1,0.2,1.5,0.6
			s0.6,0.9,0.6,1.5c0,0.6-0.2,1.1-0.6,1.5c-0.4,0.4-0.9,0.6-1.5,0.6c-0.6,0-1.1-0.2-1.5-0.6c-0.4-0.4-0.6-0.9-0.6-1.5
			c0-0.6,0.2-1.1,0.6-1.5C1550.4,68.9,1551,68.7,1551.5,68.7z"/>
        </g>
        <g>
            <g>
                <path class="anmas3_st50" d="M1447.8,70.8v0.6h-5.9v-0.6h2.6v-9.2c0-0.2,0-0.4,0-0.6l-2.5,2.2c-0.1,0.1-0.2,0.1-0.2,0.1s-0.1,0-0.2-0.1
				l-0.2-0.3l3.3-2.9h0.6v10.9H1447.8z"/>
                <path class="anmas3_st50" d="M1457.9,65.6c0,1-0.1,1.9-0.3,2.6s-0.5,1.3-0.9,1.8c-0.4,0.5-0.8,0.8-1.3,1.1c-0.5,0.2-1,0.4-1.6,0.4
				s-1.1-0.1-1.6-0.4c-0.5-0.2-0.9-0.6-1.3-1.1s-0.7-1.1-0.9-1.8s-0.3-1.6-0.3-2.6c0-1,0.1-1.9,0.3-2.6c0.2-0.7,0.5-1.3,0.9-1.8
				s0.8-0.8,1.3-1.1c0.5-0.2,1-0.4,1.6-0.4s1.1,0.1,1.6,0.4c0.5,0.2,0.9,0.6,1.3,1.1c0.4,0.5,0.7,1.1,0.9,1.8
				C1457.8,63.8,1457.9,64.6,1457.9,65.6z M1457.1,65.6c0-0.9-0.1-1.7-0.3-2.4c-0.2-0.7-0.4-1.2-0.7-1.6c-0.3-0.4-0.6-0.7-1-0.9
				s-0.8-0.3-1.3-0.3s-0.9,0.1-1.3,0.3s-0.7,0.5-1,0.9c-0.3,0.4-0.5,1-0.7,1.6c-0.2,0.7-0.3,1.4-0.3,2.4c0,0.9,0.1,1.7,0.3,2.4
				c0.2,0.7,0.4,1.2,0.7,1.6c0.3,0.4,0.6,0.7,1,0.9c0.4,0.2,0.8,0.3,1.3,0.3s0.9-0.1,1.3-0.3c0.4-0.2,0.7-0.5,1-0.9
				c0.3-0.4,0.5-1,0.7-1.6C1457,67.4,1457.1,66.6,1457.1,65.6z"/>
                <path class="anmas3_st50" d="M1467.2,65.6c0,1-0.1,1.9-0.3,2.6s-0.5,1.3-0.9,1.8c-0.4,0.5-0.8,0.8-1.3,1.1c-0.5,0.2-1,0.4-1.6,0.4
				s-1.1-0.1-1.6-0.4c-0.5-0.2-0.9-0.6-1.3-1.1s-0.7-1.1-0.9-1.8s-0.3-1.6-0.3-2.6c0-1,0.1-1.9,0.3-2.6c0.2-0.7,0.5-1.3,0.9-1.8
				s0.8-0.8,1.3-1.1c0.5-0.2,1-0.4,1.6-0.4s1.1,0.1,1.6,0.4c0.5,0.2,0.9,0.6,1.3,1.1c0.4,0.5,0.7,1.1,0.9,1.8
				C1467.1,63.8,1467.2,64.6,1467.2,65.6z M1466.4,65.6c0-0.9-0.1-1.7-0.3-2.4c-0.2-0.7-0.4-1.2-0.7-1.6c-0.3-0.4-0.6-0.7-1-0.9
				s-0.8-0.3-1.3-0.3s-0.9,0.1-1.3,0.3s-0.7,0.5-1,0.9c-0.3,0.4-0.5,1-0.7,1.6c-0.2,0.7-0.3,1.4-0.3,2.4c0,0.9,0.1,1.7,0.3,2.4
				c0.2,0.7,0.4,1.2,0.7,1.6c0.3,0.4,0.6,0.7,1,0.9c0.4,0.2,0.8,0.3,1.3,0.3s0.9-0.1,1.3-0.3c0.4-0.2,0.7-0.5,1-0.9
				c0.3-0.4,0.5-1,0.7-1.6C1466.3,67.4,1466.4,66.6,1466.4,65.6z"/>
                <path class="anmas3_st50" d="M1477.8,62.7c0,0.5-0.1,0.9-0.2,1.2c-0.1,0.4-0.3,0.7-0.5,0.9c-0.2,0.2-0.5,0.4-0.8,0.5
				c-0.3,0.1-0.6,0.2-0.9,0.2c-0.3,0-0.6-0.1-0.9-0.2c-0.3-0.1-0.5-0.3-0.8-0.5c-0.2-0.2-0.4-0.5-0.5-0.9c-0.1-0.4-0.2-0.8-0.2-1.2
				c0-0.5,0.1-0.9,0.2-1.2c0.1-0.4,0.3-0.7,0.5-0.9c0.2-0.2,0.5-0.4,0.8-0.5c0.3-0.1,0.6-0.2,0.9-0.2s0.6,0.1,0.9,0.2
				c0.3,0.1,0.5,0.3,0.8,0.5c0.2,0.2,0.4,0.5,0.5,0.9S1477.8,62.2,1477.8,62.7z M1477.2,62.7c0-0.4,0-0.8-0.1-1.1
				c-0.1-0.3-0.2-0.5-0.4-0.7c-0.2-0.2-0.4-0.3-0.6-0.4c-0.2-0.1-0.4-0.1-0.7-0.1c-0.2,0-0.5,0-0.7,0.1c-0.2,0.1-0.4,0.2-0.6,0.4
				c-0.2,0.2-0.3,0.4-0.4,0.7c-0.1,0.3-0.1,0.6-0.1,1.1s0,0.8,0.1,1.1c0.1,0.3,0.2,0.5,0.4,0.7s0.3,0.3,0.6,0.4
				c0.2,0.1,0.4,0.1,0.7,0.1c0.2,0,0.5,0,0.7-0.1c0.2-0.1,0.4-0.2,0.6-0.4c0.2-0.2,0.3-0.4,0.4-0.7
				C1477.1,63.5,1477.2,63.1,1477.2,62.7z M1482.1,60.1c0,0,0.1-0.1,0.1-0.1c0,0,0.1,0,0.2,0h0.5l-8.2,11.3
				c-0.1,0.1-0.2,0.1-0.3,0.1h-0.5L1482.1,60.1z M1483.9,68.6c0,0.5-0.1,0.9-0.2,1.2c-0.1,0.4-0.3,0.7-0.5,0.9s-0.5,0.4-0.8,0.5
				c-0.3,0.1-0.6,0.2-0.9,0.2c-0.3,0-0.6-0.1-0.9-0.2c-0.3-0.1-0.5-0.3-0.8-0.5c-0.2-0.2-0.4-0.5-0.5-0.9c-0.1-0.4-0.2-0.8-0.2-1.2
				c0-0.5,0.1-0.9,0.2-1.2c0.1-0.4,0.3-0.7,0.5-0.9c0.2-0.2,0.5-0.4,0.8-0.5c0.3-0.1,0.6-0.2,0.9-0.2s0.6,0.1,0.9,0.2
				c0.3,0.1,0.5,0.3,0.8,0.5c0.2,0.2,0.4,0.5,0.5,0.9C1483.9,67.8,1483.9,68.2,1483.9,68.6z M1483.3,68.6c0-0.4,0-0.8-0.1-1.1
				c-0.1-0.3-0.2-0.5-0.4-0.7c-0.2-0.2-0.4-0.3-0.6-0.4c-0.2-0.1-0.4-0.1-0.7-0.1c-0.2,0-0.5,0-0.7,0.1c-0.2,0.1-0.4,0.2-0.6,0.4
				c-0.2,0.2-0.3,0.4-0.4,0.7c-0.1,0.3-0.1,0.7-0.1,1.1s0,0.8,0.1,1.1c0.1,0.3,0.2,0.5,0.4,0.7s0.4,0.3,0.6,0.4s0.4,0.1,0.7,0.1
				c0.2,0,0.5,0,0.7-0.1c0.2-0.1,0.4-0.2,0.6-0.4s0.3-0.4,0.4-0.7C1483.3,69.4,1483.3,69.1,1483.3,68.6z"/>
            </g>
            <g>
                <path class="anmas3_st50" d="M1520.8,63.5v4.3c0,0.4-0.1,0.7-0.4,1c-0.3,0.3-0.6,0.4-1,0.4V71c0,0.5-0.2,0.9-0.5,1.3
				c-0.3,0.3-0.8,0.5-1.3,0.5h-20.6c-0.5,0-0.9-0.2-1.3-0.5c-0.3-0.3-0.5-0.8-0.5-1.3V60.3c0-0.5,0.2-0.9,0.5-1.3
				c0.3-0.3,0.8-0.5,1.3-0.5h20.6c0.5,0,0.9,0.2,1.3,0.5c0.3,0.3,0.5,0.8,0.5,1.3v1.8c0.4,0,0.7,0.1,1,0.4
				C1520.6,62.8,1520.8,63.1,1520.8,63.5z M1517.9,67.8h1.4v-4.3h-1.4v-3.2c0-0.1,0-0.2-0.1-0.3c-0.1-0.1-0.2-0.1-0.3-0.1h-20.6
				c-0.1,0-0.2,0-0.3,0.1c-0.1,0.1-0.1,0.2-0.1,0.3V71c0,0.1,0,0.2,0.1,0.3c0.1,0.1,0.2,0.1,0.3,0.1h20.6c0.1,0,0.2,0,0.3-0.1
				c0.1-0.1,0.1-0.2,0.1-0.3V67.8z M1516.5,61.4v8.5H1498v-8.5H1516.5z"/>
            </g>
        </g>
    </g>
    <g id="icones-anmas3">
        <clipPath id="clipPath-anmas3">
            <defs>
                <path id="clipper-anmas3" d="M1823.5,439h-168.9c-2.6,0-4.9-1.7-5.6-4.3l-7.4-26h-55.9c-11.7,0-21.2,9.5-21.2,21.2v612.7
				c0,11.7,9.5,21.2,21.2,21.2h307.5c11.7,0,21.2-9.5,21.2-21.2V430c0-11.7-9.5-21.2-21.2-21.2h-56.5l-7.4,26
				C1828.5,437.3,1826.2,439,1823.5,439z"/>
            </defs>
            <use xlink:href="#clipper-anmas3"  style="overflow:visible;"/>
        </clipPath>
        <g clip-path="url(#clipPath-anmas3)">
            <g id="pfe-anmas3" class="anmas3_st34">
                <g id="nom-pfe-anmas3">
                    <path class="anmas3_st10" d="M758.8,563.5h6.8c4.9,0,8.1,1.6,8.1,6.5c0,4.6-3.3,6.8-8.1,6.8h-4v8.7h-2.8V563.5z M765.2,574.5
					c3.9,0,5.7-1.4,5.7-4.5c0-3.2-1.9-4.2-5.7-4.2h-3.6v8.7H765.2z"/>
                    <path class="anmas3_st10" d="M790,585.5l-5.3-9.3h-4v9.3h-2.8v-22h6.9c4.5,0,7.7,1.6,7.7,6.2c0,3.4-1.9,5.5-4.9,6.2l5.6,9.6H790z
					 M780.7,573.9h3.7c3.4,0,5.3-1.4,5.3-4.3c0-2.9-1.9-3.9-5.3-3.9h-3.7V573.9z"/>
                    <path class="anmas3_st10" d="M795.9,574.4c0-7,3.9-11.3,9.4-11.3c5.5,0,9.4,4.3,9.4,11.3c0,7.1-3.9,11.5-9.4,11.5
					C799.8,585.9,795.9,581.5,795.9,574.4z M811.9,574.4c0-5.5-2.6-8.8-6.5-8.8c-4,0-6.5,3.4-6.5,8.8c0,5.5,2.6,9,6.5,9
					C809.3,583.4,811.9,579.9,811.9,574.4z"/>
                    <path class="anmas3_st10" d="M818,581c1,1.7,2.2,2.5,3.8,2.5c2.3,0,3.5-1.3,3.5-4.7v-15.2h2.8V579c0,3.8-1.7,6.9-6.1,6.9
					c-2.8,0-4.8-1.2-6-3.5L818,581z"/>
                    <path class="anmas3_st10" d="M833.8,563.5h12.7v2.3h-9.9v6.9h8.3v2.4h-8.3v8h10.2v2.4h-13V563.5z"/>
                    <path class="anmas3_st10" d="M855.9,565.9h-6.7v-2.3h16.1v2.3h-6.7v19.6h-2.8V565.9z"/>
                    <path class="anmas3_st10" d="M867.9,580.7c1.6,1.6,3.8,2.7,6.1,2.7c2.9,0,4.6-1.4,4.6-3.6c0-2.2-1.6-2.9-3.7-3.9l-3.1-1.4
					c-2-0.9-4.5-2.4-4.5-5.7c0-3.4,2.9-5.8,6.9-5.8c2.6,0,4.9,1.1,6.5,2.7l-1.5,1.8c-1.3-1.3-3-2.1-5-2.1c-2.5,0-4.1,1.2-4.1,3.2
					c0,2.1,1.9,2.9,3.7,3.7l3.1,1.3c2.5,1.1,4.5,2.6,4.5,5.9c0,3.5-2.9,6.3-7.5,6.3c-3.1,0-5.8-1.3-7.7-3.3L867.9,580.7z"/>
                    <path class="anmas3_st10" d="M892.3,563.5h5.5c6.8,0,10.4,3.9,10.4,10.9c0,7-3.6,11.1-10.3,11.1h-5.6V563.5z M897.6,583.2
					c5.2,0,7.7-3.3,7.7-8.8c0-5.5-2.5-8.6-7.7-8.6h-2.5v17.4H897.6z"/>
                    <path class="anmas3_st10" d="M912.8,563.5h12.7v2.3h-9.9v6.9h8.3v2.4h-8.3v8h10.2v2.4h-13V563.5z"/>
                    <path class="anmas3_st10" d="M937.1,563.5h12.7v2.3h-9.9v7.4h8.4v2.3h-8.4v9.9h-2.8V563.5z"/>
                    <path class="anmas3_st10" d="M953.4,563.5h2.8v22h-2.8V563.5z"/>
                    <path class="anmas3_st10" d="M962.1,563.5h2.9l8,13.8l2.4,4.6h0.1c-0.1-2.2-0.4-4.7-0.4-7v-11.4h2.6v22h-2.9l-7.9-13.8l-2.4-4.5h-0.1
					c0.1,2.2,0.3,4.6,0.3,6.9v11.5h-2.6V563.5z"/>
                    <path class="anmas3_st10" d="M990.4,563.5h5.5c6.8,0,10.4,3.9,10.4,10.9c0,7-3.6,11.1-10.3,11.1h-5.6V563.5z M995.7,583.2
					c5.2,0,7.7-3.3,7.7-8.8c0-5.5-2.5-8.6-7.7-8.6h-2.5v17.4H995.7z"/>
                    <path class="anmas3_st10" d="M1010.1,569.8c1.7-1.1,2.5-2.2,2.5-4.2c-0.1,0-0.2,0-0.3,0c-0.9,0-1.8-0.6-1.8-1.7c0-1.2,0.7-1.9,1.8-1.9
					c1.3,0,2.1,1.1,2.1,3c0,2.7-1.3,4.6-3.6,5.9L1010.1,569.8z"/>
                    <path class="anmas3_st10" d="M1019.2,563.5h12.7v2.3h-9.9v6.9h8.3v2.4h-8.3v8h10.2v2.4h-13V563.5z M1026.3,561.8h-2.3l2.9-3.8h3.1
					L1026.3,561.8z"/>
                    <path class="anmas3_st10" d="M1041.3,565.9h-6.7v-2.3h16.1v2.3h-6.7v19.6h-2.8V565.9z"/>
                    <path class="anmas3_st10" d="M1054.4,563.5h2.8v13c0,5.3,2.2,7,5.1,7c2.9,0,5.2-1.7,5.2-7v-13h2.7v12.9c0,7.1-3.4,9.5-7.9,9.5
					s-7.9-2.4-7.9-9.5V563.5z"/>
                    <path class="anmas3_st10" d="M1075.9,563.5h5.5c6.8,0,10.4,3.9,10.4,10.9c0,7-3.6,11.1-10.3,11.1h-5.6V563.5z M1081.2,583.2
					c5.2,0,7.7-3.3,7.7-8.8c0-5.5-2.5-8.6-7.7-8.6h-2.5v17.4H1081.2z"/>
                    <path class="anmas3_st10" d="M1096.4,563.5h12.7v2.3h-9.9v6.9h8.3v2.4h-8.3v8h10.2v2.4h-13V563.5z"/>
                    <path class="anmas3_st10" d="M1114,580.7c1.6,1.6,3.8,2.7,6.1,2.7c2.9,0,4.6-1.4,4.6-3.6c0-2.2-1.6-2.9-3.7-3.9l-3.1-1.4
					c-2-0.9-4.5-2.4-4.5-5.7c0-3.4,2.9-5.8,6.9-5.8c2.6,0,4.9,1.1,6.5,2.7l-1.5,1.8c-1.3-1.3-3-2.1-5-2.1c-2.5,0-4.1,1.2-4.1,3.2
					c0,2.1,1.9,2.9,3.7,3.7l3.2,1.3c2.5,1.1,4.5,2.6,4.5,5.9c0,3.5-2.9,6.3-7.5,6.3c-3.1,0-5.8-1.3-7.7-3.3L1114,580.7z"/>
                </g>
                <g id="app-pfe-anmas3">
                    <path class="anmas3_st9" d="M1055.4,541.5H829.2c-15.2,0-27.4-12.3-27.4-27.4V287.8c0-15.2,12.3-27.4,27.4-27.4h226.3
					c15.2,0,27.4,12.3,27.4,27.4v226.3C1082.9,529.3,1070.6,541.5,1055.4,541.5z"/>
                    <g>
                        <linearGradient id="anmas3_svgid_3_" gradientUnits="userSpaceOnUse" x1="526.7" y1="582.1475" x2="526.7" y2="463.7001" gradientTransform="matrix(0.7199 0.6941 -0.6941 0.7199 868.4003 -280.7174)">
                            <stop  offset="0" style="stop-color:#86CFEA"/>
                            <stop  offset="1" style="stop-color:#ACDDEA"/>
                        </linearGradient>
                        <path class="anmas3_st35" d="M843.5,503.9c48.4-97.8,82.2-85.3,82.2-85.3l0,0C925.7,418.7,939.4,452,843.5,503.9L843.5,503.9z"/>

                        <linearGradient id="anmas3_svgid_4_" gradientUnits="userSpaceOnUse" x1="526.4592" y1="550.0065" x2="526.4592" y2="470.3219" gradientTransform="matrix(0.7199 0.6941 -0.6941 0.7199 868.4003 -280.7174)">
                            <stop  offset="0" style="stop-color:#ACDDEA"/>
                            <stop  offset="1" style="stop-color:#A3CFEA"/>
                        </linearGradient>
                        <path class="anmas3_st36" d="M865.6,480.6c32.6-65.8,55.3-57.4,55.3-57.4l0,0C921,423.3,930.2,445.7,865.6,480.6L865.6,480.6z"/>
                    </g>
                    <g>

                        <ellipse transform="matrix(0.6941 -0.7199 0.7199 0.6941 -19.7887 793.8951)" class="anmas3_st37" cx="924.2" cy="420.2" rx="3.6" ry="18.1"/>
                        <path class="anmas3_st6" d="M923.5,421.2L923.5,421.2c-4.6-4.5-4.8-11.9-0.3-16.5l10-10.4c4.5-4.6,11.9-4.8,16.5-0.3v0
						c4.6,4.5,4.8,11.9,0.3,16.5l-10,10.4C935.5,425.5,928.1,425.7,923.5,421.2z"/>
                        <g>
                            <polygon class="anmas3_st38" points="948.4,392.7 943.9,388.4 952.1,373.2 959.9,380.8 						"/>

                            <rect x="951.2" y="375.6" transform="matrix(0.7199 0.6941 -0.6941 0.7199 529.2028 -558.5437)" class="anmas3_st6" width="10.8" height="1.7"/>

                            <rect x="955.3" y="374.8" transform="matrix(0.7199 0.6941 -0.6941 0.7199 528.7618 -559.5309)" class="anmas3_st38" width="4.6" height="1.2"/>
                            <line class="anmas3_st39" x1="951.2" y1="375.3" x2="958.4" y2="382.3"/>
                            <line class="anmas3_st39" x1="950" y1="377.1" x2="957" y2="383.8"/>
                            <line class="anmas3_st39" x1="949.2" y1="379.1" x2="955.5" y2="385.3"/>
                            <line class="anmas3_st39" x1="948" y1="381" x2="954.1" y2="386.8"/>
                            <line class="anmas3_st39" x1="947" y1="383" x2="952.6" y2="388.3"/>
                            <line class="anmas3_st39" x1="946" y1="384.8" x2="951.2" y2="389.8"/>
                            <line class="anmas3_st39" x1="944.9" y1="386.7" x2="949.7" y2="391.3"/>
                        </g>
                        <g>
                            <polygon class="anmas3_st38" points="951,395.2 955.5,399.6 970.3,390.8 962.5,383.3 						"/>

                            <rect x="961.6" y="385.6" transform="matrix(-0.7199 -0.6941 0.6941 -0.7199 1394.9613 1335.7914)" class="anmas3_st6" width="10.8" height="1.7"/>

                            <rect x="965.7" y="384.8" transform="matrix(-0.7199 -0.6941 0.6941 -0.7199 1397.4073 1334.6989)" class="anmas3_st38" width="4.6" height="1.2"/>
                            <line class="anmas3_st39" x1="968.3" y1="391.8" x2="961" y2="384.8"/>
                            <line class="anmas3_st39" x1="966.5" y1="393" x2="959.6" y2="386.3"/>
                            <line class="anmas3_st39" x1="964.6" y1="394" x2="958.1" y2="387.8"/>
                            <line class="anmas3_st39" x1="962.8" y1="395.2" x2="956.7" y2="389.3"/>
                            <line class="anmas3_st39" x1="960.7" y1="396.2" x2="955.2" y2="390.8"/>
                            <line class="anmas3_st39" x1="959" y1="397.3" x2="953.8" y2="392.3"/>
                            <line class="anmas3_st39" x1="957.2" y1="398.5" x2="952.3" y2="393.8"/>
                        </g>

                        <ellipse transform="matrix(0.6941 -0.7199 0.7199 0.6941 -10.9944 797.2589)" class="anmas3_st40" cx="932.6" cy="411.6" rx="9.9" ry="9.9"/>

                        <rect x="934" y="399.5" transform="matrix(0.7199 0.6941 -0.6941 0.7199 540.09 -538.1458)" class="anmas3_st41" width="5.5" height="1.2"/>

                        <rect x="935.4" y="398" transform="matrix(0.7199 0.6941 -0.6941 0.7199 539.4836 -539.5031)" class="anmas3_st41" width="5.5" height="1.2"/>

                        <rect x="936.8" y="396.6" transform="matrix(0.7199 0.6941 -0.6941 0.7199 538.8774 -540.8605)" class="anmas3_st41" width="5.5" height="1.2"/>

                        <rect x="938.2" y="395.2" transform="matrix(0.7199 0.6941 -0.6941 0.7199 538.2711 -542.2178)" class="anmas3_st41" width="5.5" height="1.2"/>

                        <rect x="939.5" y="393.8" transform="matrix(0.7199 0.6941 -0.6941 0.7199 537.6649 -543.5751)" class="anmas3_st41" width="5.5" height="1.2"/>

                        <rect x="941.6" y="406.8" transform="matrix(0.7199 0.6941 -0.6941 0.7199 547.3291 -541.3793)" class="anmas3_st41" width="5.5" height="1.2"/>

                        <rect x="943" y="405.4" transform="matrix(0.7199 0.6941 -0.6941 0.7199 546.7228 -542.7366)" class="anmas3_st41" width="5.5" height="1.2"/>

                        <rect x="944.4" y="404" transform="matrix(0.7199 0.6941 -0.6941 0.7199 546.1165 -544.0939)" class="anmas3_st41" width="5.5" height="1.2"/>

                        <rect x="945.8" y="402.5" transform="matrix(0.7199 0.6941 -0.6941 0.7199 545.5103 -545.4513)" class="anmas3_st41" width="5.5" height="1.2"/>

                        <rect x="947.2" y="401.1" transform="matrix(0.7199 0.6941 -0.6941 0.7199 544.904 -546.8086)" class="anmas3_st41" width="5.5" height="1.2"/>
                        <path class="anmas3_st42" d="M929.4,398.2c0,0,22.2-42.2,27-24.9"/>
                        <path class="anmas3_st42" d="M942.5,418.2c0,0,53.8-45.6,26.7-32.5c0,0,17.7,2.2-13.8,19.3"/>
                        <path class="anmas3_st42" d="M967.7,384.3c0,0,5.9-8.9-9.4-9.1c0,0-15.7,0.8-30.9,25.4"/>
                        <path class="anmas3_st42" d="M966.8,383.5c0,0,2-11.1-17.2,10.4"/>

                        <ellipse transform="matrix(0.6941 -0.7199 0.7199 0.6941 -10.9944 797.2589)" class="anmas3_st38" cx="932.6" cy="411.6" rx="7.5" ry="7.5"/>

                        <ellipse transform="matrix(0.6941 -0.7199 0.7199 0.6941 -10.9944 797.2589)" class="anmas3_st40" cx="932.6" cy="411.6" rx="5.3" ry="5.3"/>
                        <g>
                            <path class="anmas3_st43" d="M949.4,391.7l3.6-1.4c-1,1.1-2.1,2.3-3.3,3.6l-1.2-1.2L949.4,391.7z"/>
                        </g>
                        <path class="anmas3_st44" d="M923.4,421.1l-5.5-5.3c-1.6-1.5-1.6-4-0.1-5.6l20.8-21.5c1.5-1.6,4-1.6,5.6-0.1l-0.2-0.2l8.2-15.1
						l1.2-1.2l2.3,2.2l0.8-0.9l3.3,3.2l-0.8,0.9l2.3,2.2l-1.2,1.2l-11.5,12l1.2,1.2L923.4,421.1z"/>
                        <path class="anmas3_st45" d="M967.4,411"/>
                    </g>
                    <g>
                        <path class="anmas3_st45" d="M983.7,332.5c-47.7,25.6-72.5,75.2-72.5,75.2c8.5,19.6,26,25.1,26,25.1s48.7-26.6,72.5-75.2L983.7,332.5z
						"/>

                        <ellipse transform="matrix(0.6941 -0.7199 0.7199 0.6941 18.2438 808.8454)" class="anmas3_st40" cx="960.8" cy="383" rx="10.4" ry="10.4"/>

                        <ellipse transform="matrix(0.6941 -0.7199 0.7199 0.6941 18.2438 808.8454)" class="anmas3_st46" cx="960.8" cy="383" rx="7.9" ry="7.9"/>

                        <ellipse transform="matrix(0.6941 -0.7199 0.7199 0.6941 56.5453 823.0921)" class="anmas3_st6" cx="996.7" cy="345" rx="3.1" ry="18.1"/>
                        <g>
                            <path class="anmas3_st3" d="M987,344.6c-0.6-0.6-1.3-0.9-2.1-0.9c-0.8,0-1.5,0.3-2.1,0.8l-5.3,5.2l1,1.1l5.3-5.2
							c0.3-0.3,0.6-0.4,1.1-0.4c0.4,0,0.8,0.1,1,0.4c0.3,0.3,0.4,0.6,0.4,1.1c0,0.4-0.1,0.8-0.4,1l-1.1,1c-0.3,0.3-0.6,0.4-1.1,0.4
							c-0.4,0-0.8-0.1-1-0.4l-1.1,1c0.6,0.6,1.3,0.9,2.1,0.9c0.8,0,1.5-0.3,2.1-0.8l1.1-1c0.6-0.6,0.9-1.3,0.9-2.1
							C987.9,345.9,987.6,345.2,987,344.6z"/>
                            <path class="anmas3_st3" d="M990.7,350.4c-0.3-0.3-0.4-0.6-0.4-1.1c0-0.4,0.1-0.8,0.4-1l-1-1.1c-0.6,0.6-0.9,1.3-0.9,2.1
							c0,0.8,0.3,1.5,0.8,2.1c0.3,0.3,0.4,0.6,0.4,1.1c0,0.4-0.1,0.8-0.4,1c-0.3,0.3-0.6,0.4-1.1,0.4c-0.4,0-0.8-0.1-1-0.4
							c-0.3-0.3-0.4-0.6-0.4-1.1c0-0.4,0.1-0.8,0.4-1l-1-1.1c-0.6,0.6-0.9,1.3-0.9,2.1c0,0.8,0.3,1.5,0.8,2.1
							c0.6,0.6,1.3,0.9,2.1,0.9c0.8,0,1.5-0.3,2.1-0.8c0.6-0.6,0.9-1.3,0.9-2.1C991.5,351.6,991.2,350.9,990.7,350.4z"/>
                            <path class="anmas3_st3" d="M998.2,357.2c0-0.8-0.3-1.5-0.8-2.1l-1.1,1c0.3,0.3,0.4,0.6,0.4,1.1c0,0.4-0.1,0.8-0.4,1l-3.2,3.1l1,1.1
							l3.2-3.1C997.9,358.7,998.2,358,998.2,357.2z M995.3,352.9l-1-1.1l-5.3,5.2l1,1.1l4.2-4.2c0.3,0.3,0.4,0.6,0.4,1.1
							c0,0.4-0.1,0.8-0.4,1l-3.2,3.1l1,1.1l3.2-3.1c0.6-0.6,0.9-1.3,0.9-2.1C996.1,354.2,995.9,353.5,995.3,352.9z"/>
                        </g>
                        <path class="anmas3_st47" d="M921.7,422.9c-3.8-3.7-7.6-8.7-10.5-15.2c0,0,24.8-49.7,72.5-75.2c1.2-1.2,8,3.4,15.2,10.3L921.7,422.9z"
                        />
                    </g>
                    <g>
                        <path class="anmas3_st48" d="M1009.9,357.4l18.7-45.4l-44.6,20.3C983.9,332.3,987.6,348.2,1009.9,357.4z"/>
                        <path class="anmas3_st47" d="M994.2,347.7c-8.5-7.7-10.3-15.4-10.3-15.4l44.6-20.3L994.2,347.7z"/>
                    </g>
                    <g>
                        <path class="anmas3_st49" d="M911.2,407.7c0,0,7-14,20.7-31L899,393.6l-31.7,32.9L911.2,407.7z"/>
                        <path class="anmas3_st48" d="M937.2,432.8c0,0,13.8-7.5,30.2-21.8l-15.7,33.5L920,477.3L937.2,432.8z"/>
                        <path class="anmas3_st40" d="M937.2,432.8c0,0-17.5-5.5-26-25.1l-2,3.1c8.5,19.6,25,24.1,25,24.1L937.2,432.8z"/>
                        <polygon class="anmas3_st48" points="925,424.3 925,424.3 925.1,424.2 925.3,424 925.3,423.9 945.1,398.6 920.5,419.3 920.5,419.3
						920.3,419.5 920.1,419.6 920.1,419.6 887.1,458.7 					"/>
                        <polygon class="anmas3_st47" points="945.1,398.6 920.5,419.3 920.5,419.3 920.3,419.5 920.1,419.6 920.1,419.6 887.1,458.7 					"/>
                    </g>
                </g>
            </g>
            <g id="prog-anmas3" class="anmas3_st34">
                <g id="nom-prog-anmas3">
                    <path class="anmas3_st50" d="M373.6,565.9c2.3,0,4,0.5,5.2,1.5c1.2,1,1.7,2.4,1.7,4.3c0,0.9-0.2,1.6-0.5,2.3c-0.3,0.7-0.8,1.3-1.4,1.8
					c-0.6,0.5-1.3,0.9-2.2,1.2c-0.9,0.3-1.8,0.4-2.9,0.4H370v7.8h-1.4v-19.4H373.6z M373.6,576.4c0.9,0,1.6-0.1,2.3-0.4
					c0.7-0.2,1.3-0.6,1.7-1c0.5-0.4,0.8-0.9,1.1-1.5c0.3-0.6,0.4-1.2,0.4-1.9c0-1.5-0.5-2.6-1.4-3.4c-0.9-0.8-2.3-1.2-4.1-1.2H370
					v9.4H373.6z"/>
                    <path class="anmas3_st50" d="M397.8,585.3h-1.2c-0.2,0-0.3,0-0.4-0.1s-0.2-0.1-0.3-0.3l-6.2-7.9c-0.1-0.1-0.1-0.2-0.2-0.3
					s-0.2-0.1-0.3-0.2c-0.1,0-0.2-0.1-0.3-0.1c-0.1,0-0.3,0-0.5,0h-2.5v8.8h-1.4v-19.4h5c2.2,0,3.9,0.4,5,1.3
					c1.1,0.9,1.7,2.1,1.7,3.8c0,0.7-0.1,1.4-0.4,2c-0.3,0.6-0.6,1.2-1.1,1.6c-0.5,0.5-1.1,0.8-1.7,1.1c-0.7,0.3-1.4,0.5-2.3,0.6
					c0.2,0.1,0.4,0.3,0.6,0.5L397.8,585.3z M389.2,575.5c0.9,0,1.6-0.1,2.3-0.3c0.7-0.2,1.3-0.5,1.7-0.9c0.5-0.4,0.8-0.8,1.1-1.4
					c0.2-0.5,0.4-1.1,0.4-1.8c0-1.4-0.5-2.4-1.4-3.1c-0.9-0.7-2.2-1-3.9-1h-3.6v8.5H389.2z"/>
                    <path class="anmas3_st50" d="M418.3,575.6c0,1.5-0.2,2.9-0.7,4.1s-1.1,2.3-1.9,3.1c-0.8,0.9-1.8,1.5-2.9,2c-1.1,0.5-2.4,0.7-3.8,0.7
					c-1.4,0-2.6-0.2-3.8-0.7c-1.1-0.5-2.1-1.1-2.9-2c-0.8-0.9-1.4-1.9-1.9-3.1s-0.7-2.6-0.7-4.1c0-1.5,0.2-2.9,0.7-4.1
					c0.4-1.2,1.1-2.3,1.9-3.1c0.8-0.9,1.8-1.5,2.9-2c1.1-0.5,2.4-0.7,3.8-0.7c1.4,0,2.6,0.2,3.8,0.7c1.1,0.5,2.1,1.1,2.9,2
					c0.8,0.9,1.4,1.9,1.9,3.1C418,572.7,418.3,574.1,418.3,575.6z M416.8,575.6c0-1.4-0.2-2.6-0.6-3.7c-0.4-1.1-0.9-2-1.6-2.7
					c-0.7-0.8-1.5-1.3-2.5-1.7c-1-0.4-2-0.6-3.2-0.6c-1.2,0-2.2,0.2-3.2,0.6c-1,0.4-1.8,1-2.5,1.7c-0.7,0.8-1.2,1.7-1.6,2.7
					c-0.4,1.1-0.6,2.3-0.6,3.7c0,1.4,0.2,2.6,0.6,3.7c0.4,1.1,0.9,2,1.6,2.7c0.7,0.8,1.5,1.3,2.5,1.7c1,0.4,2,0.6,3.2,0.6
					c1.2,0,2.2-0.2,3.2-0.6c1-0.4,1.8-1,2.5-1.7c0.7-0.8,1.2-1.7,1.6-2.7C416.6,578.2,416.8,576.9,416.8,575.6z"/>
                    <path class="anmas3_st50" d="M438.3,576.5v6.9c-1,0.7-2,1.2-3.1,1.6c-1.1,0.4-2.3,0.5-3.7,0.5c-1.5,0-2.9-0.2-4.1-0.7
					c-1.2-0.5-2.3-1.1-3.1-2c-0.9-0.9-1.5-1.9-2-3.1c-0.5-1.2-0.7-2.6-0.7-4.1c0-1.5,0.2-2.9,0.7-4.1c0.5-1.2,1.1-2.3,2-3.1
					s1.9-1.5,3.1-2c1.2-0.5,2.5-0.7,4.1-0.7c0.7,0,1.4,0.1,2.1,0.2s1.2,0.2,1.8,0.4c0.5,0.2,1,0.4,1.5,0.7c0.5,0.3,0.9,0.6,1.3,1
					l-0.4,0.6c-0.1,0.2-0.3,0.3-0.6,0.2c-0.1-0.1-0.3-0.2-0.6-0.4c-0.3-0.2-0.6-0.4-1.1-0.6c-0.4-0.2-1-0.4-1.7-0.6
					c-0.7-0.2-1.5-0.3-2.4-0.3c-1.3,0-2.4,0.2-3.4,0.6c-1,0.4-1.9,1-2.6,1.7c-0.7,0.8-1.3,1.7-1.7,2.7c-0.4,1.1-0.6,2.3-0.6,3.6
					c0,1.4,0.2,2.6,0.6,3.7c0.4,1.1,1,2,1.7,2.8c0.7,0.8,1.6,1.3,2.7,1.7c1.1,0.4,2.2,0.6,3.6,0.6c0.6,0,1.1,0,1.6-0.1
					c0.5-0.1,1-0.2,1.4-0.3c0.4-0.1,0.9-0.3,1.3-0.5c0.4-0.2,0.8-0.4,1.3-0.7v-5.2h-3.7c-0.1,0-0.2,0-0.3-0.1
					c-0.1-0.1-0.1-0.1-0.1-0.2v-0.8H438.3z"/>
                    <path class="anmas3_st50" d="M456.3,585.3h-1.2c-0.2,0-0.3,0-0.4-0.1c-0.1-0.1-0.2-0.1-0.3-0.3l-6.2-7.9c-0.1-0.1-0.1-0.2-0.2-0.3
					s-0.2-0.1-0.3-0.2c-0.1,0-0.2-0.1-0.3-0.1c-0.1,0-0.3,0-0.5,0h-2.5v8.8h-1.4v-19.4h5c2.2,0,3.9,0.4,5,1.3
					c1.1,0.9,1.7,2.1,1.7,3.8c0,0.7-0.1,1.4-0.4,2c-0.3,0.6-0.6,1.2-1.1,1.6c-0.5,0.5-1.1,0.8-1.7,1.1c-0.7,0.3-1.4,0.5-2.3,0.6
					c0.2,0.1,0.4,0.3,0.6,0.5L456.3,585.3z M447.7,575.5c0.9,0,1.6-0.1,2.3-0.3c0.7-0.2,1.3-0.5,1.7-0.9c0.5-0.4,0.8-0.8,1.1-1.4
					c0.2-0.5,0.4-1.1,0.4-1.8c0-1.4-0.5-2.4-1.4-3.1c-0.9-0.7-2.2-1-3.9-1h-3.6v8.5H447.7z"/>
                    <path class="anmas3_st50" d="M474.4,585.3h-1.1c-0.1,0-0.2,0-0.3-0.1c-0.1-0.1-0.1-0.2-0.2-0.3l-2.3-5.6H461l-2.3,5.6
					c0,0.1-0.1,0.2-0.2,0.3c-0.1,0.1-0.2,0.1-0.3,0.1h-1.1l8-19.4h1.4L474.4,585.3z M470.1,578.2l-4-9.8c-0.1-0.3-0.3-0.7-0.4-1.2
					c-0.1,0.2-0.1,0.4-0.2,0.6c-0.1,0.2-0.1,0.4-0.2,0.5l-4,9.8H470.1z"/>
                    <path class="anmas3_st50" d="M496.8,565.9v19.4h-1.2v-16.6c0-0.2,0-0.5,0-0.8l-7.7,13.6c-0.1,0.2-0.3,0.4-0.5,0.4h-0.2
					c-0.2,0-0.4-0.1-0.5-0.4l-7.9-13.6c0,0.3,0,0.5,0,0.8v16.6h-1.2v-19.4h1c0.1,0,0.2,0,0.3,0c0.1,0,0.1,0.1,0.2,0.2l7.8,13.5
					c0.1,0.3,0.3,0.5,0.4,0.8c0.1-0.1,0.1-0.3,0.2-0.4c0.1-0.1,0.1-0.3,0.2-0.4l7.6-13.5c0.1-0.1,0.1-0.2,0.2-0.2c0.1,0,0.2,0,0.3,0
					H496.8z"/>
                    <path class="anmas3_st50" d="M521.8,565.9v19.4h-1.2v-16.6c0-0.2,0-0.5,0-0.8l-7.7,13.6c-0.1,0.2-0.3,0.4-0.5,0.4h-0.2
					c-0.2,0-0.4-0.1-0.5-0.4l-7.9-13.6c0,0.3,0,0.5,0,0.8v16.6h-1.2v-19.4h1c0.1,0,0.2,0,0.3,0c0.1,0,0.1,0.1,0.2,0.2l7.8,13.5
					c0.1,0.3,0.3,0.5,0.4,0.8c0.1-0.1,0.1-0.3,0.2-0.4c0.1-0.1,0.1-0.3,0.2-0.4l7.6-13.5c0.1-0.1,0.1-0.2,0.2-0.2s0.2,0,0.3,0H521.8
					z"/>
                    <path class="anmas3_st50" d="M539.2,584.1l0,1.2h-11.6v-19.4h11.6v1.2h-10.2v7.9h8.5v1.1h-8.5v8.1H539.2z"/>
                </g>
                <g id="app-prog-anmas3">
                    <linearGradient id="anmas3_svgid_5_" gradientUnits="userSpaceOnUse" x1="453.1225" y1="541.5485" x2="453.1225" y2="260.3774">
                        <stop  offset="0" style="stop-color:#E8E8E8"/>
                        <stop  offset="1" style="stop-color:#FFFFFF"/>
                    </linearGradient>
                    <path class="anmas3_st51" d="M566.3,541.5H340c-15.2,0-27.4-12.3-27.4-27.4V287.8c0-15.2,12.3-27.4,27.4-27.4h226.3
					c15.2,0,27.4,12.3,27.4,27.4v226.3C593.7,529.3,581.4,541.5,566.3,541.5z"/>

                    <rect x="411.8" y="290.9" transform="matrix(0.7071 0.7071 -0.7071 0.7071 367.6537 -223.0918)" class="anmas3_st29" width="82.7" height="82.7"/>

                    <rect x="348.4" y="359.6" transform="matrix(0.7071 0.7071 -0.7071 0.7071 397.6703 -158.1351)" class="anmas3_st8" width="82.7" height="82.7"/>

                    <rect x="477.9" y="359.6" transform="matrix(0.7071 0.7071 -0.7071 0.7071 435.6173 -249.7473)" class="anmas3_st9" width="82.7" height="82.7"/>

                    <rect x="411.8" y="428.3" transform="matrix(0.7071 0.7071 -0.7071 0.7071 464.8266 -182.8415)" class="anmas3_st8" width="82.7" height="82.7"/>
                    <g>
                        <path class="anmas3_st10" d="M445.5,343.9l-1.1,1.1c-0.1,0.1-0.3,0.2-0.5,0.2c-0.2,0-0.4-0.1-0.5-0.2l-10.4-10.4
						c-0.1-0.1-0.2-0.3-0.2-0.5c0-0.2,0.1-0.4,0.2-0.5l10.4-10.4c0.1-0.1,0.3-0.2,0.5-0.2c0.2,0,0.4,0.1,0.5,0.2l1.1,1.1
						c0.1,0.1,0.2,0.3,0.2,0.5c0,0.2-0.1,0.4-0.2,0.5l-8.8,8.8l8.8,8.8c0.1,0.1,0.2,0.3,0.2,0.5
						C445.7,343.6,445.6,343.8,445.5,343.9z M458.7,320.1l-8.3,28.8c-0.1,0.2-0.2,0.3-0.3,0.4c-0.2,0.1-0.3,0.1-0.5,0.1l-1.4-0.4
						c-0.2-0.1-0.3-0.2-0.4-0.3c-0.1-0.2-0.1-0.4-0.1-0.5l8.3-28.8c0.1-0.2,0.2-0.3,0.3-0.4c0.2-0.1,0.3-0.1,0.5-0.1l1.4,0.4
						c0.2,0.1,0.3,0.2,0.4,0.3C458.7,319.7,458.7,319.9,458.7,320.1z M473.3,334.7l-10.4,10.4c-0.1,0.1-0.3,0.2-0.5,0.2
						c-0.2,0-0.4-0.1-0.5-0.2l-1.1-1.1c-0.1-0.1-0.2-0.3-0.2-0.5c0-0.2,0.1-0.4,0.2-0.5l8.8-8.8l-8.8-8.8c-0.1-0.1-0.2-0.3-0.2-0.5
						c0-0.2,0.1-0.4,0.2-0.5l1.1-1.1c0.1-0.1,0.3-0.2,0.5-0.2c0.2,0,0.4,0.1,0.5,0.2l10.4,10.4c0.1,0.1,0.2,0.3,0.2,0.5
						C473.6,334.3,473.5,334.5,473.3,334.7z"/>
                    </g>
                    <g>
                        <path class="anmas3_st10" d="M442.5,469.7c0-1.5,1-2.5,2.4-2.5s2.4,1,2.4,2.5c0,1.4-0.9,2.5-2.4,2.5
						C443.4,472.2,442.5,471.1,442.5,469.7z"/>
                        <path class="anmas3_st10" d="M450.7,469.7c0-1.5,1-2.5,2.4-2.5c1.4,0,2.4,1,2.4,2.5c0,1.4-0.9,2.5-2.4,2.5
						C451.7,472.2,450.7,471.1,450.7,469.7z"/>
                        <path class="anmas3_st10" d="M459,469.7c0-1.5,1-2.5,2.4-2.5s2.4,1,2.4,2.5c0,1.4-0.9,2.5-2.4,2.5C460,472.2,459,471.1,459,469.7z"/>
                    </g>
                    <g>
                        <path class="anmas3_st10" d="M381.5,401.4c-2.4,0.1-4.4,1-5.9,2.9h-3c-1.2,0-2.2-0.3-3.1-0.9c-0.8-0.6-1.3-1.5-1.3-2.6
						c0-5.3,0.9-7.9,2.8-7.9c0.1,0,0.4,0.2,1,0.5c0.6,0.3,1.3,0.6,2.2,0.9c0.9,0.3,1.8,0.5,2.7,0.5c1,0,2-0.2,3-0.5
						c-0.1,0.6-0.1,1-0.1,1.5C379.7,397.8,380.3,399.7,381.5,401.4z M380.9,383.1c1.1,1.1,1.7,2.5,1.7,4c0,1.6-0.6,2.9-1.7,4
						c-1.1,1.1-2.5,1.7-4,1.7c-1.6,0-2.9-0.6-4-1.7c-1.1-1.1-1.7-2.5-1.7-4c0-1.6,0.6-2.9,1.7-4c1.1-1.1,2.5-1.7,4-1.7
						C378.4,381.4,379.8,382,380.9,383.1z M405.4,415.6c0,1.8-0.5,3.2-1.6,4.2c-1.1,1-2.5,1.6-4.3,1.6H380c-1.8,0-3.2-0.5-4.3-1.6
						c-1.1-1-1.6-2.4-1.6-4.2c0-0.8,0-1.6,0.1-2.3c0.1-0.8,0.2-1.6,0.3-2.4c0.2-0.9,0.4-1.7,0.6-2.4c0.2-0.7,0.6-1.5,1-2.2
						c0.4-0.7,0.9-1.3,1.4-1.8c0.5-0.5,1.2-0.9,1.9-1.2c0.8-0.3,1.6-0.4,2.5-0.4c0.1,0,0.5,0.2,1,0.5c0.5,0.3,1,0.7,1.6,1.1
						c0.6,0.4,1.4,0.8,2.4,1.1c1,0.3,2,0.5,3,0.5s2-0.2,3-0.5c1-0.3,1.8-0.7,2.4-1.1c0.6-0.4,1.1-0.8,1.6-1.1c0.5-0.3,0.8-0.5,1-0.5
						c0.9,0,1.7,0.1,2.5,0.4c0.8,0.3,1.4,0.7,1.9,1.2c0.5,0.5,1,1.1,1.4,1.8c0.4,0.7,0.7,1.4,1,2.2c0.2,0.7,0.4,1.6,0.6,2.4
						c0.2,0.9,0.3,1.7,0.3,2.4C405.4,414.1,405.4,414.9,405.4,415.6z M395.8,389.6c1.7,1.7,2.5,3.7,2.5,6.1c0,2.4-0.8,4.4-2.5,6.1
						c-1.7,1.7-3.7,2.5-6.1,2.5c-2.4,0-4.4-0.8-6.1-2.5c-1.7-1.7-2.5-3.7-2.5-6.1c0-2.4,0.8-4.4,2.5-6.1c1.7-1.7,3.7-2.5,6.1-2.5
						C392.1,387.1,394.1,388,395.8,389.6z M406.6,383.1c1.1,1.1,1.7,2.5,1.7,4c0,1.6-0.6,2.9-1.7,4c-1.1,1.1-2.5,1.7-4,1.7
						c-1.6,0-2.9-0.6-4-1.7c-1.1-1.1-1.7-2.5-1.7-4c0-1.6,0.6-2.9,1.7-4c1.1-1.1,2.5-1.7,4-1.7C404.2,381.4,405.5,382,406.6,383.1z
						 M411.2,400.7c0,1.2-0.4,2-1.3,2.6c-0.8,0.6-1.9,0.9-3.1,0.9h-3c-1.5-1.8-3.5-2.8-5.9-2.9c1.2-1.7,1.8-3.6,1.8-5.7
						c0-0.4,0-0.9-0.1-1.5c1,0.3,2,0.5,3,0.5c0.9,0,1.8-0.2,2.7-0.5c0.9-0.3,1.6-0.6,2.2-0.9c0.6-0.3,0.9-0.5,1-0.5
						C410.2,392.8,411.2,395.5,411.2,400.7z"/>
                    </g>
                </g>
            </g>
            <g id="anc-anmas3" class="anmas3_st34">
                <g id="nom-anc-anmas3">
                    <path class="anmas3_st50" d="M1310.4,585.3h-1.1c-0.1,0-0.2,0-0.3-0.1c-0.1-0.1-0.1-0.2-0.2-0.3l-2.3-5.6h-9.5l-2.3,5.6
					c0,0.1-0.1,0.2-0.2,0.3c-0.1,0.1-0.2,0.1-0.3,0.1h-1.1l8-19.4h1.4L1310.4,585.3z M1306.1,578.2l-4-9.8c-0.1-0.3-0.3-0.7-0.4-1.2
					c-0.1,0.2-0.1,0.4-0.2,0.6c-0.1,0.2-0.1,0.4-0.2,0.5l-4,9.8H1306.1z"/>
                    <path class="anmas3_st50" d="M1328.6,565.9v19.4h-0.7c-0.1,0-0.2,0-0.3-0.1c-0.1,0-0.2-0.1-0.2-0.2l-12.6-16.9c0,0.3,0,0.5,0,0.8v16.4
					h-1.2v-19.4h0.7c0.1,0,0.2,0,0.3,0c0.1,0,0.1,0.1,0.2,0.2l12.6,16.8c0-0.3,0-0.5,0-0.8v-16.3H1328.6z"/>
                    <path class="anmas3_st50" d="M1348.4,582c0.1,0,0.2,0,0.2,0.1l0.5,0.6c-0.4,0.4-0.8,0.8-1.3,1.2c-0.5,0.3-1,0.6-1.6,0.9
					c-0.6,0.2-1.2,0.4-1.9,0.6c-0.7,0.1-1.4,0.2-2.2,0.2c-1.3,0-2.6-0.2-3.7-0.7c-1.1-0.5-2.1-1.1-2.9-2c-0.8-0.9-1.4-1.9-1.9-3.1
					c-0.4-1.2-0.7-2.6-0.7-4.1c0-1.5,0.2-2.8,0.7-4c0.5-1.2,1.1-2.3,1.9-3.1c0.8-0.9,1.8-1.6,3-2c1.2-0.5,2.4-0.7,3.8-0.7
					c1.3,0,2.5,0.2,3.5,0.6c1,0.4,2,1,2.8,1.7l-0.4,0.6c-0.1,0.1-0.2,0.2-0.3,0.2c-0.1,0-0.3-0.1-0.5-0.3c-0.2-0.2-0.6-0.4-1-0.7
					c-0.4-0.2-1-0.5-1.6-0.7c-0.7-0.2-1.4-0.3-2.4-0.3c-1.2,0-2.2,0.2-3.2,0.6c-1,0.4-1.8,1-2.5,1.7c-0.7,0.8-1.2,1.7-1.6,2.7
					c-0.4,1.1-0.6,2.3-0.6,3.6c0,1.4,0.2,2.6,0.6,3.7c0.4,1.1,0.9,2,1.6,2.7c0.7,0.7,1.5,1.3,2.5,1.7c0.9,0.4,2,0.6,3.1,0.6
					c0.7,0,1.3,0,1.9-0.1c0.5-0.1,1-0.2,1.5-0.4c0.5-0.2,0.9-0.4,1.3-0.7c0.4-0.3,0.8-0.6,1.2-0.9c0,0,0.1-0.1,0.1-0.1
					S1348.4,582,1348.4,582z"/>
                    <path class="anmas3_st50" d="M1354.4,585.3h-1.4v-19.4h1.4V585.3z"/>
                    <path class="anmas3_st50" d="M1371.8,584.1l0,1.2h-11.6v-19.4h11.6v1.2h-10.2v7.9h8.5v1.1h-8.5v8.1H1371.8z"/>
                    <path class="anmas3_st50" d="M1391,565.9v19.4h-0.7c-0.1,0-0.2,0-0.3-0.1c-0.1,0-0.2-0.1-0.2-0.2l-12.6-16.9c0,0.3,0,0.5,0,0.8v16.4
					h-1.2v-19.4h0.7c0.1,0,0.2,0,0.3,0c0.1,0,0.1,0.1,0.2,0.2l12.6,16.8c0-0.3,0-0.5,0-0.8v-16.3H1391z"/>
                    <path class="anmas3_st50" d="M1406.2,568.2c-0.1,0.2-0.2,0.2-0.4,0.2c-0.1,0-0.3-0.1-0.5-0.3c-0.2-0.2-0.4-0.4-0.8-0.6
					s-0.7-0.4-1.2-0.6c-0.5-0.2-1.1-0.3-1.8-0.3c-0.7,0-1.3,0.1-1.9,0.3c-0.5,0.2-1,0.5-1.3,0.8c-0.4,0.3-0.6,0.8-0.8,1.2
					c-0.2,0.5-0.3,0.9-0.3,1.4c0,0.7,0.1,1.2,0.4,1.6c0.3,0.4,0.6,0.8,1.1,1.1c0.5,0.3,1,0.6,1.6,0.8c0.6,0.2,1.2,0.4,1.8,0.6
					s1.2,0.4,1.8,0.7c0.6,0.2,1.1,0.5,1.6,0.9s0.8,0.8,1.1,1.4c0.3,0.5,0.4,1.2,0.4,2c0,0.8-0.1,1.6-0.4,2.3
					c-0.3,0.7-0.7,1.3-1.2,1.9c-0.5,0.5-1.2,1-2,1.3c-0.8,0.3-1.6,0.5-2.6,0.5c-1.3,0-2.4-0.2-3.3-0.7c-0.9-0.5-1.7-1.1-2.4-1.9
					l0.4-0.6c0.1-0.1,0.2-0.2,0.4-0.2c0.1,0,0.2,0.1,0.3,0.2c0.1,0.1,0.3,0.2,0.5,0.4c0.2,0.2,0.4,0.3,0.7,0.5
					c0.3,0.2,0.6,0.4,0.9,0.5c0.3,0.2,0.7,0.3,1.2,0.4c0.4,0.1,0.9,0.2,1.5,0.2c0.8,0,1.5-0.1,2.1-0.4s1.1-0.6,1.5-1
					c0.4-0.4,0.7-0.9,1-1.4c0.2-0.6,0.3-1.1,0.3-1.8c0-0.7-0.1-1.3-0.4-1.7c-0.3-0.4-0.6-0.8-1.1-1.1c-0.5-0.3-1-0.5-1.6-0.7
					c-0.6-0.2-1.2-0.4-1.8-0.6c-0.6-0.2-1.2-0.4-1.8-0.6c-0.6-0.2-1.1-0.5-1.6-0.9c-0.5-0.4-0.8-0.8-1.1-1.4
					c-0.3-0.6-0.4-1.2-0.4-2.1c0-0.7,0.1-1.3,0.4-1.9c0.2-0.6,0.6-1.1,1.1-1.6s1.1-0.8,1.8-1.1c0.7-0.3,1.5-0.4,2.4-0.4
					c1,0,1.9,0.2,2.7,0.5c0.8,0.3,1.5,0.8,2.2,1.5L1406.2,568.2z"/>
                    <path class="anmas3_st50" d="M1430.6,584.1l0,1.2h-11.6v-19.4h11.6v1.2h-10.2v7.9h8.5v1.1h-8.5v8.1H1430.6z M1429.4,560l-4.5,3.9
					c-0.1,0.1-0.2,0.1-0.2,0.1c-0.1,0-0.2,0-0.3,0h-0.9l3.5-3.8c0.1-0.1,0.2-0.2,0.3-0.2c0.1,0,0.3-0.1,0.5-0.1H1429.4z"/>
                    <path class="anmas3_st50" d="M1447.5,567.1h-6.8v18.2h-1.4v-18.2h-6.9v-1.2h15.1V567.1z"/>
                    <path class="anmas3_st50" d="M1457.9,584.3c0.9,0,1.8-0.2,2.5-0.5c0.7-0.3,1.4-0.8,1.9-1.4c0.5-0.6,0.9-1.3,1.2-2
					c0.3-0.8,0.4-1.6,0.4-2.5v-12h1.4v12c0,1.1-0.2,2.1-0.5,3c-0.3,0.9-0.8,1.7-1.5,2.4c-0.6,0.7-1.4,1.2-2.3,1.6
					c-0.9,0.4-1.9,0.6-3.1,0.6c-1.1,0-2.2-0.2-3.1-0.6c-0.9-0.4-1.7-0.9-2.3-1.6c-0.6-0.7-1.1-1.5-1.5-2.4c-0.3-0.9-0.5-1.9-0.5-3
					v-12h1.4v12c0,0.9,0.1,1.8,0.4,2.5c0.3,0.8,0.7,1.5,1.2,2c0.5,0.6,1.1,1,1.9,1.4C1456.1,584.1,1457,584.3,1457.9,584.3z"/>
                    <path class="anmas3_st50" d="M1487.1,575.6c0,1.5-0.2,2.9-0.7,4.1c-0.4,1.2-1.1,2.2-1.9,3.1c-0.8,0.8-1.8,1.5-2.9,1.9
					c-1.1,0.4-2.4,0.7-3.8,0.7h-7.1v-19.4h7.1c1.4,0,2.6,0.2,3.8,0.7c1.1,0.4,2.1,1.1,2.9,1.9c0.8,0.8,1.4,1.9,1.9,3.1
					C1486.9,572.7,1487.1,574.1,1487.1,575.6z M1485.7,575.6c0-1.4-0.2-2.6-0.6-3.6c-0.4-1.1-0.9-2-1.6-2.7
					c-0.7-0.7-1.5-1.3-2.5-1.7c-1-0.4-2-0.6-3.2-0.6h-5.7v17.2h5.7c1.2,0,2.2-0.2,3.2-0.6c1-0.4,1.8-0.9,2.5-1.7
					c0.7-0.7,1.2-1.6,1.6-2.7C1485.5,578.2,1485.7,576.9,1485.7,575.6z"/>
                    <path class="anmas3_st50" d="M1493,585.3h-1.4v-19.4h1.4V585.3z"/>
                    <path class="anmas3_st50" d="M1513.6,585.3h-1.1c-0.1,0-0.2,0-0.3-0.1c-0.1-0.1-0.1-0.2-0.2-0.3l-2.3-5.6h-9.5l-2.3,5.6
					c0,0.1-0.1,0.2-0.2,0.3c-0.1,0.1-0.2,0.1-0.3,0.1h-1.1l8-19.4h1.4L1513.6,585.3z M1509.3,578.2l-4-9.8c-0.1-0.3-0.3-0.7-0.4-1.2
					c-0.1,0.2-0.1,0.4-0.2,0.6c-0.1,0.2-0.1,0.4-0.2,0.5l-4,9.8H1509.3z"/>
                    <path class="anmas3_st50" d="M1531.8,565.9v19.4h-0.7c-0.1,0-0.2,0-0.3-0.1c-0.1,0-0.2-0.1-0.2-0.2l-12.6-16.9c0,0.3,0,0.5,0,0.8v16.4
					h-1.2v-19.4h0.7c0.1,0,0.2,0,0.3,0c0.1,0,0.1,0.1,0.2,0.2l12.6,16.8c0-0.3,0-0.5,0-0.8v-16.3H1531.8z"/>
                    <path class="anmas3_st50" d="M1550.2,567.1h-6.8v18.2h-1.4v-18.2h-6.9v-1.2h15.1V567.1z"/>
                    <path class="anmas3_st50" d="M1562.7,568.2c-0.1,0.2-0.2,0.2-0.4,0.2c-0.1,0-0.3-0.1-0.5-0.3c-0.2-0.2-0.4-0.4-0.8-0.6
					s-0.7-0.4-1.2-0.6c-0.5-0.2-1.1-0.3-1.8-0.3s-1.3,0.1-1.9,0.3c-0.5,0.2-1,0.5-1.3,0.8c-0.4,0.3-0.6,0.8-0.8,1.2
					c-0.2,0.5-0.3,0.9-0.3,1.4c0,0.7,0.1,1.2,0.4,1.6c0.3,0.4,0.6,0.8,1.1,1.1c0.5,0.3,1,0.6,1.6,0.8c0.6,0.2,1.2,0.4,1.8,0.6
					s1.2,0.4,1.8,0.7c0.6,0.2,1.1,0.5,1.6,0.9s0.8,0.8,1.1,1.4c0.3,0.5,0.4,1.2,0.4,2c0,0.8-0.1,1.6-0.4,2.3
					c-0.3,0.7-0.7,1.3-1.2,1.9c-0.5,0.5-1.2,1-2,1.3c-0.8,0.3-1.6,0.5-2.6,0.5c-1.3,0-2.4-0.2-3.3-0.7c-0.9-0.5-1.7-1.1-2.4-1.9
					l0.4-0.6c0.1-0.1,0.2-0.2,0.4-0.2c0.1,0,0.2,0.1,0.3,0.2c0.1,0.1,0.3,0.2,0.5,0.4c0.2,0.2,0.4,0.3,0.7,0.5
					c0.3,0.2,0.6,0.4,0.9,0.5c0.3,0.2,0.7,0.3,1.2,0.4c0.4,0.1,0.9,0.2,1.5,0.2c0.8,0,1.5-0.1,2.1-0.4s1.1-0.6,1.5-1
					c0.4-0.4,0.7-0.9,1-1.4c0.2-0.6,0.3-1.1,0.3-1.8c0-0.7-0.1-1.3-0.4-1.7c-0.3-0.4-0.6-0.8-1.1-1.1c-0.5-0.3-1-0.5-1.6-0.7
					s-1.2-0.4-1.8-0.6c-0.6-0.2-1.2-0.4-1.8-0.6c-0.6-0.2-1.1-0.5-1.6-0.9c-0.5-0.4-0.8-0.8-1.1-1.4c-0.3-0.6-0.4-1.2-0.4-2.1
					c0-0.7,0.1-1.3,0.4-1.9c0.2-0.6,0.6-1.1,1.1-1.6s1.1-0.8,1.8-1.1c0.7-0.3,1.5-0.4,2.4-0.4c1,0,1.9,0.2,2.7,0.5
					c0.8,0.3,1.5,0.8,2.2,1.5L1562.7,568.2z"/>
                </g>
                <g id="app-anc-anmas3">
                    <path class="anmas3_st29" d="M1542.1,541.5h-226.3c-15.2,0-27.4-12.3-27.4-27.4V287.8c0-15.2,12.3-27.4,27.4-27.4h226.3
					c15.2,0,27.4,12.3,27.4,27.4v226.3C1569.5,529.3,1557.2,541.5,1542.1,541.5z"/>
                    <g>
                        <rect x="1416.4" y="476.6" class="anmas3_st52" width="25.5" height="22.8"/>
                        <path class="anmas3_st52" d="M1479.8,512.2c-9.1-10.4-27.6-16.8-48.9-16.8c-21.2,0-39.5,6.3-48.7,16.6
						C1378.2,516.5,1483.7,516.6,1479.8,512.2"/>
                        <path class="anmas3_st53" d="M1495.2,371.2c0,40.7-14.2,114.5-66,114.5c-51.7,0-63.8-74.4-63.8-115.1c0-40.7,26.8-57.6,63.8-57.6
						C1466.3,313,1495.2,330.5,1495.2,371.2"/>
                        <polygon class="anmas3_st54" points="1419.8,435.3 1437.3,435.3 1429.2,442 					"/>
                        <path class="anmas3_st55" d="M1381.5,512.8c0,0,12.6-16.6,32.4-16c0,0,5.9,7.7,15.3,7.5s14.7-8.2,14.7-8.2s34.2,0.5,38.2,16.6
						C1486.1,528.9,1384.2,532.9,1381.5,512.8"/>
                        <path class="anmas3_st56" d="M1416.5,496.6"/>
                        <path class="anmas3_st56" d="M1441.7,496"/>
                        <path class="anmas3_st53" d="M1496.7,413.7c-1,3.1-3.5,7.4-6,6.4c-2.5-1-0.8-4.5-0.3-8.2c0.5-3.7,0.3-12.7,4.7-12.1
						C1499.7,400.3,1497.9,410.1,1496.7,413.7"/>
                        <path class="anmas3_st53" d="M1363.3,413.7c1,3.1,3.5,7.4,6,6.4c2.5-1,0.8-4.5,0.3-8.2c-0.5-3.7-0.3-12.7-4.7-12.1
						C1360.4,400.3,1362.2,410.1,1363.3,413.7"/>
                        <path class="anmas3_st57" d="M1432.7,403.7c0,0,0,0-0.1,0c-0.1,0-0.1,0-0.1,0H1432.7z"/>
                        <path class="anmas3_st58" d="M1429.1,504.4"/>
                        <path class="anmas3_st59" d="M1413.9,496.7c0,0,6.7,7.1,15.2,7.6c8.8,0.6,14.9-8.3,14.9-8.3l5.1,0.4c0,0-8.7,11.6-19.8,11.3
						c-9.9-0.2-20.3-10.7-20.3-10.7"/>
                        <path class="anmas3_st60" d="M1371.2,421.7c0,0,2.4,2,2.4-0.9c-0.1-16.6-1.5-76.4,17.5-72.4c22.2,4.6,23.2,3.3,38.6,3.1
						c15.4-0.2,22.2,0.1,41.3-3.1c17.6-2.9,15.2,63.9,15.2,73.7c0,0.8,2.9-0.2,2.9-0.2s33.8-116.8-60.5-114.9
						C1337.1,308.8,1371.2,421.7,1371.2,421.7z"/>
                        <path class="anmas3_st61" d="M1371.2,421.7c0,0,11.8,64.8,58.1,64.1c49.1-0.8,59.6-64,59.6-64s-1.8-1.4-2.5-0.2
						c-4.5,7.3-15.9,41.2-36.9,51.1c-5.8,2.7-35.4,2.6-40.7-0.5c-15.3-9.1-26.2-36.2-34.9-50.6
						C1370.9,416.5,1371.2,421.7,1371.2,421.7z"/>
                        <path class="anmas3_st60" d="M1441.3,308.9c0,0-20.1-8.6-22.1-6.6c1.3,0.2,5.1,1.2,5.6,2.4c-1.8,0.3-12.8-1.7-19,0.3
						c3.7,0.5,6,1.7,6,1.7s-10,1.5-15.4,5.1c0,0,1.7-0.2,2.9-0.2c0.3,0.5-1.2,1.5-1.2,1.5L1441.3,308.9z"/>
                        <g>
                            <g>
                                <path class="anmas3_st62" d="M1415.5,392.1c-9.3-1.1-34.9-0.8-35.7,0s-5,1.5-5,1.5v6.4c0,0,2.9,2.2,3.6,6.5
								c1.2,10.5,8.2,9.8,8.2,9.8c1.9,0.6,25.6,0.4,27.5,0c6.6-0.2,9.1-8.2,9.4-9.1c0.2-1,0.3-2.7,1.1-5.2c0.8-2.5,5.3-1.9,5.3-1.9
								s0-2.8,0-4.9C1422.5,394.8,1424.9,393.2,1415.5,392.1z M1422.1,404.9c-0.7,10.8-9.3,10-10.9,10.2c-1.6,0.2-19.7,0.2-20.5,0
								c-0.8-0.2-11.5,1.5-11.6-11.6v0v0c0-0.1,0-0.9,0-5.5c0-6.1,5.9-5,7.4-5.1c1.5-0.1,26.5,0.4,26.5,0.4s9.3-0.4,9.3,5.1
								L1422.1,404.9z"/>
                            </g>
                            <g>
                                <path class="anmas3_st62" d="M1429.7,395.2c0,2,0,4.9,0,4.9s4.5-0.5,5.3,1.9c0.8,2.5,0.8,4.2,1.1,5.2c0.2,1,2.8,9,9.4,9.1
								c1.9,0.4,25.6,0.6,27.5,0c0,0,6.9,0.7,8.2-9.8c0.7-4.3,3.6-6.5,3.6-6.5v-6.4c0,0-4.2-0.7-5-1.5c-0.9-0.8-26.4-1.1-35.7,0
								C1434.6,393.2,1436.9,394.8,1429.7,395.2z M1437.2,398.4c0-5.5,9.3-5.1,9.3-5.1s25.1-0.5,26.5-0.4c1.5,0.1,7.4-1,7.4,5.1
								c0,4.6,0,5.4,0,5.5v0v0c-0.2,13.2-10.8,11.5-11.6,11.6s-18.9,0.2-20.5,0c-1.6-0.2-10.2,0.6-10.9-10.2L1437.2,398.4z"/>
                            </g>
                        </g>
                        <path class="anmas3_st60" d="M1434.1,306c0,0-0.6-1.5-3.4-3.4c3.4,0.8,8.5,2.9,8.5,2.9s-0.7-0.8-1.8-1.5c3.9,0.8,6.2,2.7,6.2,2.7
						s0.1-1.4-0.2-1.8c1.7,0.3,7.3,4.6,7.3,4.6l-16.3-0.5L1434.1,306z"/>
                    </g>
                    <path class="anmas3_st63" d="M1295.9,526.4c-4.8-6.3-7.6-14.2-7.6-22.7V298.2c0-20.9,16.9-37.8,37.8-37.8h205.5c7,0,13.6,1.9,19.2,5.2"
                    />
                </g>
            </g>
            <g class="anmas3_st34">
                <path class="anmas3_st64" d="M82.8,961.5c0,0-4,4.9,0,6c4,1.1,10.4,0,10.4,0l-2.8-6H82.8z"/>
                <path class="anmas3_st65" d="M101.9,926.1c0,0-21.5,33.7-19.2,35.3c2.4,1.6,9.5,3.6,9.5,3.6l11.4-36.6L101.9,926.1z"/>
                <path class="anmas3_st64" d="M139.6,966l8.4-2.9c0,0,0.7,3.8,4.8,5.3c4.1,1.4-0.2,3.5-2,3.5S140,969.2,139.6,966z"/>
                <polygon class="anmas3_st66" points="95.8,968.3 103.6,1009 127.7,1012.7 134.5,972.5 			"/>
                <polygon class="anmas3_st64" points="106.6,912.5 106.6,917.6 106.6,922.7 118.9,928.1 127.7,923.4 127.7,913.6 			"/>
                <path class="anmas3_st67" d="M106.5,921.6l11.9,5l9-3.8l12.1,10.2l-1.3,42.8c0,0-19.7,2.2-25.8,1.5c-6.1-0.7-12.1-3.1-14.5-4.6
				c-2.4-1.5-8.3-5.4-8.3-5.4l13.6-45.7H106.5z"/>
                <g>
                    <path class="anmas3_st64" d="M81,880.4c0,0-0.5,31.9,27,34.9s42.2-3.2,44.1-7.3c1.9-4.1,12.4-27.6,7.6-35.7
					c-4.9-8.1-9.2-11.6-11.9-17.8c-2.7-6.2-1.4-24.6-1.4-26s1.6-17.6-12.2-19.7s-34.9,1.9-39.5,4.6s-8.4,2.4-11.1,11.6
					s-4.6,14.3-4.3,25.2c0.3,10.8,0,12,0,12S56.4,857.2,81,880.4z"/>

                    <radialGradient id="anmas3_svgid_6_" cx="114.6249" cy="820.7781" r="41.5907" fx="112.2971" fy="820.5206" gradientUnits="userSpaceOnUse">
                        <stop  offset="0" style="stop-color:#242422"/>
                        <stop  offset="0.2842" style="stop-color:#3B3B39"/>
                        <stop  offset="0.6393" style="stop-color:#696968"/>
                        <stop  offset="1" style="stop-color:#999999"/>
                    </radialGradient>
                    <path class="anmas3_st68" d="M71.1,862.5c0,0-2.2-6.5,0.1-6.5c0,0-2.3-4.5,0.1-5.9c0,0-1.9-3-0.5-4.9c0,0-1.9-4.3-0.5-5.1
					c0,0-1.4-4.3,0.3-4.9c0,0-1.4-3.2,0-3.8c0,0-2-3-0.8-4.1c0,0-2.4-4.1-1.5-4.9c0.8-0.8,0.8-0.8,0.8-0.8s-2.8-3.5-1-5.7
					c0,0-0.2-5.7,3.4-6.2c0,0,1.9-4.3,4.9-3.8c0,0,4.6-4.6,7.3-2.7c0,0,3.5-4.1,6.8-2.4c0,0,4.3-2.7,6.5-0.4c0,0,5.9-4.5,8.7-2.3
					c0,0,3-3.9,7.6-0.6c0,0,3.5-4,7.6,0c0,0,4.6-3,8.1,0.5c0,0,6.5-3.5,7.3,2.7c0,0,6.2-2.2,7.8,2.4c0,0,2.2-1,2.4,4.8
					c0,0,7.3-0.7,5.1,4.9c0,0,1.6,4.9,0.4,7c0,0,2.3,3.5-0.7,5.4c0,0,1.9,4.3-0.3,6.8c0,0,1.1,2.7-0.5,4.1c0,0,2.1,5.4-1.1,6.8
					c0,0,2.7,5,0,5.9c0,0,0,2.5-2.5,2.5c0,0-0.8-2.8-1-6.5c-0.5-7-0.5-17.4,0.6-19.7c0,0-1.7-17.9-22.5-10c0,0-34.3-9.2-38.1,12.4
					l-6.7,34.4c0,0-2.3-0.4-4.8-0.3C73.4,861.9,71.6,861.9,71.1,862.5z"/>
                    <path class="anmas3_st69" d="M102.1,902c-2.8,0.6-12.5-12.9-19.2-20.8c-2.9-3.4-6.7-5.5-6.7-5.5s1.1,14.1,6.7,25.2
					c5.7,11.1,18.6,12.9,18.6,12.9c44.8,14.6,52.5-7.3,52.5-7.3l5.1-17.4c0,0-8.1,11.2-10.8,10.1c-2.7-1.1,2.4-16.8,2.4-16.8
					l-6.5-6.2c0,0-3.2,3.5-10,4.9c-6.8,1.4-15.4-4.9-15.4-4.9l-8.7,6.2c0,0-0.2,3.8,0,10.5C110.4,899.9,106.2,901.2,102.1,902
					 M113.8,908c0,0,6.5-16,4.9-20.8c0,0,10.3,1.4,13,1.6s11.4-3,11.4-3s-1.6,14.9,0,19.5C143,905.3,133.2,895,113.8,908"/>
                    <path class="anmas3_st70" d="M96.1,835.2l1.1,1.5c0,0,9.1-5.4,14.4-4.2l-2.1-3.3c0,0-8.5,0.8-12.6,3C95.7,832.7,95.4,834.2,96.1,835.2z
					"/>
                    <path class="anmas3_st70" d="M144.3,831.2l-0.8,1.7c0,0-9.8-4-14.8-2.1l1.6-3.6c0,0,8.5-0.5,12.9,1.1
					C144.3,828.7,144.8,830.1,144.3,831.2z"/>
                    <ellipse cx="105.9" cy="845.6" rx="4" ry="8.9"/>
                    <ellipse cx="136.7" cy="842.7" rx="4" ry="8.9"/>
                    <ellipse class="anmas3_st50" cx="104.8" cy="851.2" rx="0.6" ry="1.1"/>
                    <ellipse class="anmas3_st50" cx="135.2" cy="848.8" rx="0.8" ry="1.2"/>
                    <ellipse class="anmas3_st50" cx="106.9" cy="844.3" rx="1.5" ry="3.3"/>
                    <ellipse class="anmas3_st50" cx="137.7" cy="841.5" rx="1.5" ry="3.3"/>
                    <linearGradient id="anmas3_svgid_7_" gradientUnits="userSpaceOnUse" x1="127.0576" y1="864.0953" x2="127.0576" y2="872.3983">
                        <stop  offset="0" style="stop-color:#FEDEC9"/>
                        <stop  offset="1" style="stop-color:#FED2BC"/>
                    </linearGradient>
                    <path class="anmas3_st71" d="M136,860.4c0,0,8.8,6.1,6.4,11.6c-2.4,5.5-8.1,5.5-9.7,5.4s-12.1-3.7-12.3-4.8c0,0-3.9,1.3-6.8,0.2
					c-3-1.1-2.5-5.4-2.1-5.9"/>
                    <linearGradient id="anmas3_svgid_8_" gradientUnits="userSpaceOnUse" x1="131.5027" y1="888.7772" x2="131.2444" y2="898.0796">
                        <stop  offset="0" style="stop-color:#FEDEC9"/>
                        <stop  offset="1" style="stop-color:#FED2BC"/>
                    </linearGradient>
                    <path class="anmas3_st72" d="M120.9,891.4c0,0-0.5,17.3,19.5,0l1.6-1.8c0,0-4.4,2.1-6.6,2.2s-12.6-0.3-12.9-0.6
					c-0.3-0.3-0.6-0.5-0.6-0.5l-0.7-0.9L120.9,891.4z"/>
                    <path d="M121.3,889.9c0,0,9.9,3.6,20.2-0.3c0,0-3.6,3.3-7.5,5.5c-2.2,1.2-4.4,2-5.9,2.1C126,897.4,120.7,897.5,121.3,889.9z"/>
                    <linearGradient id="anmas3_svgid_9_" gradientUnits="userSpaceOnUse" x1="131.5774" y1="889.2949" x2="131.401" y2="891.647">
                        <stop  offset="0" style="stop-color:#FEDEC9"/>
                        <stop  offset="1" style="stop-color:#FED2BC"/>
                    </linearGradient>
                    <path class="anmas3_st73" d="M120.9,889.2c0,0-0.4,0.4,0.4,0.6c0.8,0.2,7.8,3.4,19.9,0l0.8-0.6l0.4-0.5"/>
                    <path class="anmas3_st50" d="M121.4,889.9c0.6,0.2,7.8,3.4,19.9,0c0,0-9.1,5.1-19.9,1.1V889.9z"/>
                    <path class="anmas3_st74" d="M122.3,894.1c0,0,0.8,3.3,6.6,2.7C128.9,896.8,125.2,894.1,122.3,894.1z"/>
                    <path class="anmas3_st75" d="M119.6,854.1l-21.8,1.2c-1,0.1-1.8-0.7-1.8-1.7l-0.3-8.3c0-0.9,0.7-1.7,1.6-1.8l21.8-1.2
					c1-0.1,1.8,0.7,1.8,1.7l0.3,8.3C121.3,853.2,120.6,854,119.6,854.1z"/>
                    <line class="anmas3_st76" x1="152" y1="846.3" x2="146.2" y2="848.2"/>
                    <path class="anmas3_st75" d="M128.2,854.1l21.8,1.2c1,0.1,1.8-0.7,1.8-1.7l0.3-8.3c0-0.9-0.7-1.7-1.6-1.8l-21.8-1.2
					c-1-0.1-1.8,0.7-1.8,1.7l-0.3,8.3C126.5,853.2,127.2,854,128.2,854.1z"/>
                    <line class="anmas3_st76" x1="95.8" y1="848.8" x2="80.9" y2="853.5"/>
                    <path class="anmas3_st76" d="M121.1,846.9c0,0,3.6-2.4,5.5,0"/>
                    <linearGradient id="anmas3_svgid_10_" gradientUnits="userSpaceOnUse" x1="127.2245" y1="882.6323" x2="126.0142" y2="898.0646">
                        <stop  offset="0" style="stop-color:#4A4A4A"/>
                        <stop  offset="1" style="stop-color:#ADADAD"/>
                    </linearGradient>
                    <path class="anmas3_st77" d="M112.5,910.2l31.2-0.5l4.6-10.4c-2.7-1.1,2.4-16.8,2.4-16.8l-6.5-6.2c0,0-3.2,3.5-10,4.9
					c-6.8,1.4-15.4-4.9-15.4-4.9l-8.7,6.2c0,0-0.2,3.8,0,10.5c0.2,6.8-4,8.1-8.1,8.9 M102.1,902 M113.8,908c0,0,6.5-16,4.9-20.8
					c0,0,10.3,1.4,13,1.6s11.4-3,11.4-3s-1.6,14.9,0,19.5C143,905.3,133.2,895,113.8,908"/>
                </g>
                <path class="anmas3_st65" d="M120.5,928.1l-3.4,50.4c0,0,20.2,0.5,23.2-2.4c0,0,0.6-41.2,0.9-42.2c0.3-1-11-9.2-12.3-9.4
				C127.6,924.2,120.5,928.1,120.5,928.1z"/>
                <path class="anmas3_st78" d="M121.5,928.4c0,0-1.3-2.5-3-1.8s11.9-4.6,11.9-4.6s1.9-0.5,3,2C133.5,924,122.5,927.3,121.5,928.4z"/>
                <path class="anmas3_st65" d="M114.6,925.4l-8,52c0,0-16.1-6.1-17-9c-0.9-2.9,8.8-51.4,16.1-45.7L114.6,925.4z"/>
                <path class="anmas3_st78" d="M118.5,926.4c0,0-3.7-1.4-4.8,1.4l-13.6-6c0,0,0.4-3.6,5-2.1C109.5,921.2,118.5,926.4,118.5,926.4z"/>
                <path d="M103.6,1009c0,0,3.3-3.4,9.4,1.4c0,0,1.8,4.6,0,5.8s-7.3,3.2-10.9,2.5C98.5,1018,98.3,1009,103.6,1009z"/>
                <path d="M123.8,1009.2c0,0-4.1-3.9-11.9,1.7c0,0-2.3,5.3,0,6.7s9.2,3.7,13.8,2.9C130.3,1019.6,130.5,1009.1,123.8,1009.2z"/>
                <linearGradient id="anmas3_svgid_11_" gradientUnits="userSpaceOnUse" x1="146.3227" y1="956.6593" x2="133.7907" y2="937.7156">
                    <stop  offset="0" style="stop-color:#544338"/>
                    <stop  offset="1" style="stop-color:#634E40"/>
                </linearGradient>
                <path class="anmas3_st79" d="M134.1,928.4l18.8,14.3c0,0,8.7,6.4,2.3,11.7c-6.4,5.3-6.1,8-6.1,8l-9.6,6c0,0-8.6-5.5-6.8-9.7
				c1.8-4.2,10.1-10.3,10.1-10.3l-9.4-7.8"/>
            </g>
        </g>
    </g>
    <g id="screen-anmas3">
        <path class="anmas3_st96" d="M1823.5,438h-168.9c-2.6,0-4.9-1.7-5.6-4.3l-7.4-26h-55.9c-11.7,0-21.2,9.5-21.2,21.2v612.7
		c0,11.7,9.5,21.2,21.2,21.2h307.5c11.7,0,21.2-9.5,21.2-21.2V429c0-11.7-9.5-21.2-21.2-21.2h-56.5l-7.4,26
		C1828.5,436.3,1826.2,438,1823.5,438z"/>
        <path class="anmas3_st98" d="M1914.3,940v102.8c0,11.7-9.5,21.2-21.2,21.2h-307.5c-11.7,0-21.2-9.5-21.2-21.2V940L1914.3,940z"/>
        <rect x="1565" y="928" class="anmas3_st8" width="349" height="12"/>
        <text id="heure2-anmas3" transform="matrix(1 0 0 1 1582.313 435.2891)" class="anmas3_st50 anmas3_st95 anmas3_st92">12:03</text>
        <g>
            <g>
                <path class="anmas3_st50" d="M1846.9,434.1v0.5h-4.7v-0.5h2.1v-7.5c0-0.1,0-0.3,0-0.5l-2,1.8c-0.1,0.1-0.1,0.1-0.2,0.1s-0.1,0-0.1-0.1
				l-0.2-0.3l2.7-2.3h0.5v8.8H1846.9z"/>
                <path class="anmas3_st50" d="M1855,430c0,0.8-0.1,1.5-0.3,2.1c-0.2,0.6-0.4,1.1-0.7,1.5c-0.3,0.4-0.6,0.7-1,0.9
				c-0.4,0.2-0.8,0.3-1.3,0.3s-0.9-0.1-1.3-0.3c-0.4-0.2-0.7-0.5-1-0.9c-0.3-0.4-0.5-0.9-0.7-1.5c-0.2-0.6-0.3-1.3-0.3-2.1
				c0-0.8,0.1-1.5,0.3-2.1c0.2-0.6,0.4-1.1,0.7-1.5c0.3-0.4,0.6-0.7,1-0.9c0.4-0.2,0.8-0.3,1.3-0.3s0.9,0.1,1.3,0.3
				c0.4,0.2,0.8,0.5,1,0.9c0.3,0.4,0.5,0.9,0.7,1.5C1854.9,428.5,1855,429.2,1855,430z M1854.4,430c0-0.7-0.1-1.4-0.2-1.9
				c-0.1-0.5-0.3-1-0.6-1.3c-0.2-0.3-0.5-0.6-0.8-0.7c-0.3-0.2-0.7-0.2-1-0.2c-0.4,0-0.7,0.1-1,0.2c-0.3,0.2-0.6,0.4-0.8,0.7
				c-0.2,0.3-0.4,0.8-0.6,1.3c-0.1,0.5-0.2,1.2-0.2,1.9c0,0.7,0.1,1.4,0.2,1.9c0.1,0.5,0.3,1,0.6,1.3c0.2,0.3,0.5,0.6,0.8,0.7
				c0.3,0.2,0.7,0.2,1,0.2c0.4,0,0.7-0.1,1-0.2c0.3-0.2,0.6-0.4,0.8-0.7c0.2-0.3,0.4-0.8,0.6-1.3
				C1854.3,431.3,1854.4,430.7,1854.4,430z"/>
                <path class="anmas3_st50" d="M1862.5,430c0,0.8-0.1,1.5-0.3,2.1c-0.2,0.6-0.4,1.1-0.7,1.5c-0.3,0.4-0.6,0.7-1,0.9
				c-0.4,0.2-0.8,0.3-1.3,0.3s-0.9-0.1-1.3-0.3c-0.4-0.2-0.7-0.5-1-0.9c-0.3-0.4-0.5-0.9-0.7-1.5c-0.2-0.6-0.3-1.3-0.3-2.1
				c0-0.8,0.1-1.5,0.3-2.1c0.2-0.6,0.4-1.1,0.7-1.5c0.3-0.4,0.6-0.7,1-0.9c0.4-0.2,0.8-0.3,1.3-0.3s0.9,0.1,1.3,0.3
				c0.4,0.2,0.8,0.5,1,0.9c0.3,0.4,0.5,0.9,0.7,1.5C1862.5,428.5,1862.5,429.2,1862.5,430z M1861.9,430c0-0.7-0.1-1.4-0.2-1.9
				c-0.1-0.5-0.3-1-0.6-1.3c-0.2-0.3-0.5-0.6-0.8-0.7s-0.7-0.2-1-0.2c-0.4,0-0.7,0.1-1,0.2c-0.3,0.2-0.6,0.4-0.8,0.7
				c-0.2,0.3-0.4,0.8-0.6,1.3c-0.1,0.5-0.2,1.2-0.2,1.9c0,0.7,0.1,1.4,0.2,1.9c0.1,0.5,0.3,1,0.6,1.3c0.2,0.3,0.5,0.6,0.8,0.7
				c0.3,0.2,0.7,0.2,1,0.2c0.4,0,0.7-0.1,1-0.2c0.3-0.2,0.6-0.4,0.8-0.7c0.2-0.3,0.4-0.8,0.6-1.3
				C1861.8,431.3,1861.9,430.7,1861.9,430z"/>
                <path class="anmas3_st50" d="M1871.1,427.6c0,0.4-0.1,0.7-0.2,1c-0.1,0.3-0.2,0.5-0.4,0.7c-0.2,0.2-0.4,0.3-0.6,0.4
				c-0.2,0.1-0.5,0.1-0.7,0.1c-0.3,0-0.5,0-0.8-0.1c-0.2-0.1-0.4-0.2-0.6-0.4c-0.2-0.2-0.3-0.4-0.4-0.7c-0.1-0.3-0.1-0.6-0.1-1
				c0-0.4,0-0.7,0.1-1c0.1-0.3,0.2-0.5,0.4-0.7c0.2-0.2,0.4-0.3,0.6-0.4c0.2-0.1,0.5-0.1,0.8-0.1c0.3,0,0.5,0,0.8,0.1
				c0.2,0.1,0.4,0.2,0.6,0.4c0.2,0.2,0.3,0.4,0.4,0.7S1871.1,427.2,1871.1,427.6z M1870.6,427.6c0-0.3,0-0.6-0.1-0.9
				c-0.1-0.2-0.2-0.4-0.3-0.6c-0.1-0.2-0.3-0.3-0.5-0.3c-0.2-0.1-0.4-0.1-0.6-0.1c-0.2,0-0.4,0-0.6,0.1c-0.2,0.1-0.3,0.2-0.5,0.3
				c-0.1,0.2-0.2,0.4-0.3,0.6c-0.1,0.2-0.1,0.5-0.1,0.9s0,0.6,0.1,0.9c0.1,0.2,0.2,0.4,0.3,0.6c0.1,0.2,0.3,0.3,0.5,0.3
				c0.2,0.1,0.4,0.1,0.6,0.1c0.2,0,0.4,0,0.6-0.1c0.2-0.1,0.3-0.2,0.5-0.3c0.1-0.2,0.2-0.3,0.3-0.6
				C1870.5,428.2,1870.6,427.9,1870.6,427.6z M1874.6,425.5C1874.6,425.4,1874.6,425.4,1874.6,425.5c0.1-0.1,0.2-0.1,0.2-0.1h0.4
				l-6.6,9.1c-0.1,0.1-0.1,0.1-0.2,0.1h-0.4L1874.6,425.5z M1876,432.4c0,0.4-0.1,0.7-0.2,1c-0.1,0.3-0.2,0.5-0.4,0.7
				c-0.2,0.2-0.4,0.3-0.6,0.4c-0.2,0.1-0.5,0.1-0.7,0.1c-0.3,0-0.5,0-0.8-0.1c-0.2-0.1-0.4-0.2-0.6-0.4c-0.2-0.2-0.3-0.4-0.4-0.7
				c-0.1-0.3-0.1-0.6-0.1-1c0-0.4,0-0.7,0.1-1c0.1-0.3,0.2-0.5,0.4-0.7c0.2-0.2,0.4-0.3,0.6-0.4c0.2-0.1,0.5-0.1,0.8-0.1
				c0.3,0,0.5,0,0.8,0.1c0.2,0.1,0.4,0.2,0.6,0.4c0.2,0.2,0.3,0.4,0.4,0.7C1876,431.7,1876,432,1876,432.4z M1875.5,432.4
				c0-0.3,0-0.6-0.1-0.9c-0.1-0.2-0.2-0.4-0.3-0.6c-0.1-0.2-0.3-0.3-0.5-0.3c-0.2-0.1-0.4-0.1-0.6-0.1c-0.2,0-0.4,0-0.6,0.1
				c-0.2,0.1-0.3,0.2-0.5,0.3c-0.1,0.2-0.2,0.4-0.3,0.6c-0.1,0.2-0.1,0.5-0.1,0.9s0,0.6,0.1,0.9c0.1,0.2,0.2,0.4,0.3,0.6
				c0.1,0.2,0.3,0.3,0.5,0.3c0.2,0.1,0.4,0.1,0.6,0.1c0.2,0,0.4,0,0.6-0.1c0.2-0.1,0.3-0.2,0.5-0.3c0.1-0.2,0.2-0.3,0.3-0.6
				C1875.5,433,1875.5,432.7,1875.5,432.4z"/>
            </g>
            <g>
                <path class="anmas3_st50" d="M1905.8,428.2v3.4c0,0.3-0.1,0.6-0.3,0.8c-0.2,0.2-0.5,0.3-0.8,0.3v1.4c0,0.4-0.1,0.7-0.4,1
				c-0.3,0.3-0.6,0.4-1,0.4h-16.7c-0.4,0-0.7-0.1-1-0.4c-0.3-0.3-0.4-0.6-0.4-1v-8.6c0-0.4,0.1-0.7,0.4-1c0.3-0.3,0.6-0.4,1-0.4
				h16.7c0.4,0,0.7,0.1,1,0.4c0.3,0.3,0.4,0.6,0.4,1v1.4c0.3,0,0.6,0.1,0.8,0.3C1905.6,427.6,1905.8,427.9,1905.8,428.2z
				 M1903.5,431.7h1.1v-3.4h-1.1v-2.6c0-0.1,0-0.2-0.1-0.2c-0.1-0.1-0.1-0.1-0.2-0.1h-16.7c-0.1,0-0.2,0-0.2,0.1
				c-0.1,0.1-0.1,0.1-0.1,0.2v8.6c0,0.1,0,0.2,0.1,0.2c0.1,0.1,0.1,0.1,0.2,0.1h16.7c0.1,0,0.2,0,0.2-0.1c0.1-0.1,0.1-0.1,0.1-0.2
				V431.7z M1902.3,426.5v6.9h-14.9v-6.9H1902.3z"/>
            </g>
        </g>
        <text transform="matrix(1 0 0 1 1645.0138 990.2054)"><tspan x="0" y="0" class="anmas3_st29 anmas3_st30 anmas3_st99">RÉALITÉ </tspan><tspan x="36.9" y="40.8" class="anmas3_st29 anmas3_st30 anmas3_st99">AUGMENTÉE</tspan></text>
    </g>
    <g id="phone-anmas3">
        <path class="anmas3_st1" d="M1905.5,392.8h-332.2c-11.7,0-21.2,9.5-21.2,21.2v644.8c0,11.7,9.5,21.2,21.2,21.2h332.2
		c11.7,0,21.2-9.5,21.2-21.2V414C1926.7,402.3,1917.2,392.8,1905.5,392.8z M1914.6,1041.9c0,11.7-9.5,21.2-21.2,21.2h-307.5
		c-11.7,0-21.2-9.5-21.2-21.2V429.1c0-11.7,9.5-21.2,21.2-21.2h55.9l7.4,26c0.7,2.5,3,4.3,5.6,4.3h168.9c2.6,0,4.9-1.7,5.6-4.3
		l7.4-26h56.5c11.7,0,21.2,9.5,21.2,21.2V1041.9z"/>
    </g>
</svg>
