<svg id="perso08" data-name="Calque 1" xmlns="http://www.w3.org/2000/svg" xmlns:xlink="http://www.w3.org/1999/xlink" viewBox="0 0 377.27 377.13"><defs><style>.cls-1,.cls-14,.cls-15{fill:none;}.cls-2{clip-path:url(#clip-path);}.cls-3{fill:#cad3d8;}.cls-4{fill:#111110;}.cls-5{fill:#c1974d;}.cls-6{fill:#f2c6a5;}.cls-7{fill:#fcd4b1;}.cls-8{fill:#f4c6a4;}.cls-9{fill:#fdc99a;}.cls-10{fill:#0c0c0c;}.cls-11{fill:#70121b;}.cls-12{fill:#161615;}.cls-13{fill:#b2b1b1;}.cls-14,.cls-15{stroke:#0c0c0c;stroke-miterlimit:10;stroke-width:0.25px;}.cls-15{stroke-dasharray:0.5 0.5;}.cls-16{fill:#7c7a7a;}.cls-17{fill:#9b9898;}.cls-18{fill:#1d0421;}.cls-19{fill:#ccc6c6;}.cls-20{fill:#fff;opacity:0.15;}.cls-21{clip-path:url(#clip-path-2);}</style><clipPath id="clip-path"><path class="cls-1" d="M0,188.64C0,292.82,84.45,377.27,188.63,377.27s188.63-84.45,188.63-188.63S292.81,0,188.63,0,0,84.46,0,188.64"/></clipPath><clipPath id="clip-path-2"><path class="cls-1" d="M423,188.64c0,104.18,84.45,188.63,188.63,188.63s188.63-84.45,188.63-188.63S715.79,0,611.61,0,423,84.46,423,188.64"/></clipPath></defs><title>perso08</title><g id="AL"><g class="cls-2"><path class="cls-3" d="M377.27,188.64c0,104.18-84.46,188.64-188.63,188.64S0,292.82,0,188.64,84.45,0,188.64,0,377.27,84.46,377.27,188.64"/><path class="cls-4" d="M188.63,350.32h40.89s4.31-10.37-1.08-12.44-39.82,0-39.82,0Z"/><path class="cls-4" d="M188.63,350.32h-40.9s-4.31-10.37,1.08-12.44,39.82,0,39.82,0Z"/><path class="cls-5" d="M65.14,133.17C58,163.76,64.26,255,64.26,255l4.15-6.22s-6.22,72.55,0,82.92c.3.08.18-5.12.6-5s2.67,5.58,3.06,5.64c6,.88,23.54,2,41.73,2.74,1,0-.07-7.54,1-7.5s.94,7.41,2.19,7.45c41.26,1.44,100.41,2.16,141.9,1,1.4,0-.49-6.93.87-7,1,0,1.81,6.66,2.75,6.63,21.29-.74,40.18-1.91,44.28-4,8.29-16.58-2.07-149.25-2.07-149.25l4.15,18.66s-4-70.1-9.23-82.07-227.4-16.43-234.5,14.17"/><rect class="cls-6" x="163.76" y="308.86" width="39.38" height="35.24"/><path class="cls-6" d="M262.13,363.84c-14.12-16.13-42.66-25.95-75.57-25.95-32.71,0-61.1,9.7-75.31,25.66-6.18,6.94,156.9,7.17,150.88.29"/><path class="cls-7" d="M273.63,144.5c0,63,7.43,157.77-90,178.5-91.21-16.58-88-113.53-88-176.5s30.76-90.5,88-90.5,90,25.53,90,88.5"/><polygon class="cls-8" points="169.12 245 196.07 245 183.63 255.37 169.12 245"/><path class="cls-9" d="M153.61,250.82a20.73,20.73,0,1,1-20.73-20.73,20.73,20.73,0,0,1,20.73,20.73"/><path class="cls-9" d="M253.11,250.82a20.73,20.73,0,1,1-20.73-20.73,20.73,20.73,0,0,1,20.73,20.73"/><path class="cls-5" d="M282.63,227l-6,8s3.85-22.92,6.54-45.5c.1-.87-4.54,11.67-4.54,8.5a215.71,215.71,0,0,0-4-38.62c-2.5-11.5-9.58-34.51-12.94-41.22-7.17,2.87-24.88,20.73-43.53,29,4.15-8.29,0-10.36-4.15-8.29-7.67,4.17-36.09,19.43-60.11,24.87-28.83,6.53-39.52,3-44,4.15C99.5,180.34,97.2,232.83,109.63,266-83.15-3.48,400.79-69.43,282.63,227"/><path class="cls-10" d="M109.86,364.83s12.44-26.95,37.31-22.8c49.75,43.53,78.77,0,78.77,0s33.17-2.07,39.39,22.8-151.32,31.09-155.47,0"/><path class="cls-11" d="M157.54,358.61S122.3,337.89,147.18,342c49.75,43.53,78.77,0,78.77,0s1.66-7-8.29,16.58c-16.58,39.39-56,31.09-60.11,0"/><path class="cls-12" d="M223.23,337.57c1.75-1.17,12.87-.26,19.3,4.12-2,9.93-8.76,21-8.76,21A27.54,27.54,0,0,0,220,358.59c4.09,7.59,7.12,7.73,8,8.32-4.38,6.71-28.14,31.09-28.14,31.09s0-24.23,24.23-52.77c.49-3.31.29-6-.88-7.66"/><path class="cls-12" d="M152,337.57c-1.75-1.17-12.87-.26-19.3,4.12,2,9.93,8.76,21,8.76,21a27.54,27.54,0,0,1,13.75-4.12c-4.09,7.59-7.12,7.73-8,8.32,4.38,6.71,28.14,31.09,28.14,31.09s0-24.23-24.23-52.77c-.49-3.31-.29-6,.88-7.66"/><path class="cls-13" d="M143.63,359a1,1,0,1,1-1-1,1,1,0,0,1,1,1"/><path class="cls-13" d="M233.63,359a1,1,0,1,1-1-1,1,1,0,0,1,1,1"/><path class="cls-13" d="M224.63,368a1,1,0,1,1-1-1,1,1,0,0,1,1,1"/><path class="cls-13" d="M152.63,368a1,1,0,1,1-1-1,1,1,0,0,1,1,1"/><path class="cls-12" d="M186.63,350.5a3.5,3.5,0,1,0-6,2.48,4.62,4.62,0,0,1-.49-1.94,3,3,0,1,1,5.93,0,4.62,4.62,0,0,1-.49,1.94,3.49,3.49,0,0,0,1-2.48"/><path class="cls-14" d="M163.76,339.63l.22.11"/><path class="cls-15" d="M164.41,340c2.82,1.45,14,7,19.22,7s16.74-6.6,19.08-8"/><path class="cls-14" d="M202.94,338.88l.21-.13"/><path class="cls-7" d="M282.13,211.5c-1,5-4,12-8,11s-2-6.7-2-12.5c0-3.1-.63-8.81.88-13.62,1.31-4.19,4.49-7.74,7.75-7.74,7,0,2.51,17.18,1.38,22.87"/><path class="cls-16" d="M276.38,219a1,1,0,1,1-1-1,1,1,0,0,1,1,1"/><path class="cls-17" d="M279.38,216a1,1,0,1,1-1-1,1,1,0,0,1,1,1"/><path class="cls-18" d="M188.94,196.25l-.16,0-.14,0Z"/><path class="cls-18" d="M194.6,186.56c-2.36,1-4.84.6-7.27.6s-4.3.36-6.66-.6c-35.73-14.53-82.35-4.85-82.35-4.85s.91,8.48,1.21,10.29c3,1.21,6.06,5.75,6.06,5.75,4.24,3.94-7.12,36.48,32.55,39.21,40.27,1.21,39.06-34.21,46.32-40.27a6.67,6.67,0,0,1,3.32-.48,5.79,5.79,0,0,1,3,.48c7.27,6.05,6.05,41.48,46.32,40.27,39.66-2.73,28.31-35.27,32.55-39.21,0,0,3-4.54,6.06-5.75.3-1.82,1.21-10.29,1.21-10.29s-46.63-9.69-82.35,4.85m-53,47.23c-25.43-.6-32.09-19.68-29.37-38.15,1.33-9.33,14.52-12.78,28.46-12.72,14.57.07,30.28,3,32.09,12.72,1.82,17.56-5.15,36-31.19,38.15m93,0c-26-2.12-33-20.59-31.18-38.15,1.82-9.69,17.52-12.65,32.09-12.72,13.94-.06,27.13,3.39,28.46,12.72,2.72,18.47-3.94,37.54-29.37,38.15"/><path class="cls-19" d="M111.93,186.46c.07.83-2,1.69-4.54,1.91s-4.73-.27-4.81-1.1,2-1.69,4.54-1.91,4.73.27,4.81,1.1"/><path class="cls-19" d="M263.95,186.46c-.07.83,2,1.69,4.54,1.91s4.73-.27,4.81-1.1-2-1.69-4.54-1.91-4.73.27-4.81,1.1"/><rect class="cls-20" x="5.44" y="-39.65" width="197.55" height="395" transform="translate(147.81 341.9) rotate(-159.89)"/></g></g><g id="Federico"><g class="cls-21"><rect class="cls-20" x="430.37" y="-39.65" width="197.55" height="395" transform="translate(971.78 487.99) rotate(-159.89)"/></g></g></svg>