<svg id="perso09" data-name="Calque 1" xmlns="http://www.w3.org/2000/svg" xmlns:xlink="http://www.w3.org/1999/xlink" viewBox="0 0 377.27 377.13"><defs><style>.cls-1{fill:none;}.cls-2{clip-path:url(#clip-path);}.cls-3{fill:#cad3d8;}.cls-4{fill:#f2c6a5;}.cls-5{fill:#fcd4b1;}.cls-6{fill:#f4c6a4;}.cls-7{fill:#9bb9d3;}.cls-8{fill:#1d0421;}.cls-9{fill:#85a8c4;}.cls-10,.cls-11{fill:#3f3127;}.cls-11{opacity:0.4;}.cls-12{fill:#fff;opacity:0.15;}</style><clipPath id="clip-path"><path class="cls-1" d="M0,188.64C0,292.82,84.45,377.27,188.63,377.27s188.63-84.45,188.63-188.63S292.81,0,188.63,0,0,84.46,0,188.64"/></clipPath></defs><title>perso09</title><g id="Federico"><g class="cls-2"><path class="cls-3" d="M377.44,188.64c0,104.18-84.46,188.64-188.63,188.64S.17,292.82.17,188.64,84.62,0,188.8,0,377.44,84.46,377.44,188.64"/><rect class="cls-4" x="160.76" y="308.86" width="39.38" height="35.24"/><path class="cls-4" d="M258.88,363.84c-14.12-16.13-42.66-25.95-75.57-25.95-32.71,0-61.1,9.7-75.31,25.66-6.18,6.94,156.9,7.17,150.88.29"/><path class="cls-5" d="M282.63,146c0,63-22,177-102,177S82,208.07,82,145.1,123.39,56,180.63,56s102,27,102,90"/><polygon class="cls-6" points="166.13 245 193.07 245 180.63 255.37 166.13 245"/><path class="cls-7" d="M106.86,364.83s19.53-25.67,50-24.71c0,0,9.09,11.88,23.59,11.63s22.76-12.61,22.76-12.61,52.87.82,59.09,25.7-151.32,31.09-155.47,0"/><path class="cls-5" d="M285,211.56c-1.6,4.84-5.43,11.42-9.28,9.95s-1.17-6.89-.46-12.65.39-19.6,7.33-18.75S286.82,206,285,211.56"/><path class="cls-5" d="M78.77,211.56c1.6,4.84,5.43,11.42,9.28,9.95s1.17-6.89.46-12.65-.39-19.6-7.33-18.75S77,206,78.77,211.56"/><path class="cls-8" d="M185.94,196.25l-.16,0-.14,0Z"/><polygon class="cls-9" points="160.53 338.5 180.49 351.75 160.24 372.12 146.22 341.5 160.53 338.5"/><polygon class="cls-9" points="200.34 338.19 180.72 351.75 200.97 372.12 216.03 341 200.34 338.19"/><path class="cls-9" d="M157,340s14.06,11.65,23.52,11.78,23-12.83,23-12.83l4.37.33s-15.26,16.42-27.42,16.25S152.5,340,152.5,340"/><path class="cls-10" d="M91.2,224.91s2.57,1.6,2.53-.74c-.28-20.1-2.61-119,28.1-112.55,34.29,7.18,36.14,12.46,60,12.14s34.08-7.24,63.47-12.14c26.36-4.39,25.06,92.8,25,112.33a2.87,2.87,0,0,0,2.5.81s52.67-180-93.18-177.15C38.52,50.36,91.2,224.91,91.2,224.91Z"/><path class="cls-11" d="M90.87,224s18.28,100.11,89.76,99c75.85-1.17,92.3-98.93,92.3-98.93s-1.48-2.24-3.42.93c-10.59,17.37-48,77.46-89,77.46-42.73,0-76.88-60.53-86.74-78.29C91.85,220.77,90.87,224,90.87,224Z"/><path class="cls-11" d="M198.82,269.21H160.49c-3.35,0-6.09,1.39-6.09-.67v-3.07c0-2.06,2.74-3.74,6.09-3.74h38.32c3.35,0,6.09,1.68,6.09,3.74v3.07C204.91,270.6,202.17,269.21,198.82,269.21Z"/><path class="cls-10" d="M220.33,52.64s-30.05-18.47-33.55-15.76c1.92.58,7.67,2.88,8.21,4.79-2.83.07-22-5.29-28.25-5.21,4.37,1.54,7.85,5.8,7.85,5.8s-15.56.5-24.6,4.91a31.86,31.86,0,0,1,4.53.27c.34.82-2.25,3.26-2.25,3.26Z"/><circle class="cls-10" cx="156.16" cy="283.08" r="2.75"/><rect class="cls-12" x="7.39" y="-39.65" width="197.55" height="395" transform="translate(151.6 342.58) rotate(-159.89)"/></g></g></svg>