<svg id="perso10" data-name="Calque 1" xmlns="http://www.w3.org/2000/svg" xmlns:xlink="http://www.w3.org/1999/xlink" viewBox="0 0 377.27 377.27"><defs><style>.cls-1{fill:none;}.cls-2{clip-path:url(#clip-path);}.cls-3{fill:#cad3d8;}.cls-4{fill:#f2c6a5;}.cls-5{fill:#fcd4b1;}.cls-6{fill:#f4c6a4;}.cls-7{fill:#dedfe0;}.cls-8{fill:#1d0421;}.cls-9{fill:#aaabb0;}.cls-10{fill:#1c1611;}.cls-11{fill:#3f3127;opacity:0.4;}.cls-12{fill:#020202;}.cls-13{fill:#fff;opacity:0.15;}</style><clipPath id="clip-path"><path class="cls-1" d="M0,188.64C0,292.82,84.45,377.27,188.63,377.27s188.63-84.45,188.63-188.63S292.82,0,188.63,0,0,84.46,0,188.64"/></clipPath></defs><title>perso10</title><g id="Jeff"><g class="cls-2"><path class="cls-3" d="M377.44,188.64c0,104.18-84.46,188.64-188.63,188.64S.17,292.82.17,188.64,84.62,0,188.8,0,377.44,84.46,377.44,188.64"/><rect class="cls-4" x="160.76" y="308.86" width="39.38" height="35.24"/><path class="cls-4" d="M258.88,363.84c-14.12-16.13-42.66-25.95-75.57-25.95-32.71,0-61.1,9.7-75.31,25.66-6.18,6.94,156.9,7.17,150.88.29"/><path class="cls-5" d="M282.63,146c0,63-22,177-102,177S82,208.07,82,145.1,123.39,56,180.63,56s102,27,102,90"/><polygon class="cls-6" points="166.13 245 193.07 245 180.63 255.37 166.13 245"/><path class="cls-7" d="M106.86,364.83s19.53-25.67,50-24.71c0,0,9.09,11.88,23.59,11.63s22.76-12.61,22.76-12.61,52.87.82,59.09,25.7-151.32,31.09-155.47,0"/><path class="cls-5" d="M285,211.56c-1.6,4.84-5.43,11.42-9.28,9.95s-1.17-6.89-.46-12.65.39-19.6,7.33-18.75S286.82,206,285,211.56"/><path class="cls-5" d="M78.77,211.56c1.6,4.84,5.43,11.42,9.28,9.95s1.17-6.89.46-12.65-.39-19.6-7.33-18.75S77,206,78.77,211.56"/><path class="cls-8" d="M185.94,196.25l-.16,0-.14,0Z"/><path class="cls-9" d="M157,340s10.33,10.91,23.52,11.78c13.57.9,23-12.83,23-12.83l7.87.59s-13.4,17.91-30.64,17.49c-15.25-.37-31.38-16.57-31.38-16.57"/><path class="cls-10" d="M90.87,224s3.66,3,3.63-1.37c-.15-25.6-2.26-118.05,27-111.92,34.29,7.18,35.83,5.13,59.67,4.8s34.39.09,63.78-4.8c27.2-4.53,23.52,98.77,23.48,113.88,0,1.22,4.43-.26,4.43-.26S325.16,43.83,179.31,46.68C38.19,49.44,90.87,224,90.87,224Z"/><path class="cls-11" d="M90.87,224s18.28,100.11,89.76,99c75.85-1.17,92.2-99,92.2-99s-2.78-2.09-3.91-.25c-6.91,11.29-24.6,63.7-57,79-9,4.25-54.75,4-62.83-.83-23.63-14.13-40.45-56-53.92-78.25C90.53,216,90.87,224,90.87,224Z"/><path class="cls-10" d="M199.37,49.6s-31-13.28-34.19-10.17c2,.35,8,1.92,8.73,3.76-2.8.41-19.81-2.69-29.4.39a29.21,29.21,0,0,1,9.22,2.66s-15.38,2.38-23.82,7.86a31.86,31.86,0,0,1,4.53-.28c.44.77-1.84,2.29-1.84,2.29Z"/><path class="cls-12" d="M159.47,178.21c-14.42-1.75-53.92-1.25-55.25,0s-7.75,2.37-7.75,2.37v9.87a16.42,16.42,0,0,1,5.5,10c1.92,16.17,12.63,15.12,12.63,15.12,3,1,39.5.63,42.5,0,10.21-.26,14.13-12.64,14.5-14.14a67.8,67.8,0,0,1,1.63-8c1.17-3.83,8.17-3,8.17-3V183C170.3,182.46,173.89,180,159.47,178.21Zm10.13,19.87c-1,16.71-14.42,15.46-16.87,15.75s-30.38.25-31.63,0-17.75,2.35-18-18v-8.5c0-9.37,9.13-7.79,11.38-7.87s41,.63,41,.63,14.31-.68,14.31,7.87Z"/><path class="cls-12" d="M181.39,183v7.5s7-.83,8.17,3a67.8,67.8,0,0,1,1.63,8c.38,1.5,4.29,13.87,14.5,14.14,3,.61,39.54.94,42.5,0,0,0,10.71,1,12.63-15.12a16.42,16.42,0,0,1,5.5-10v-9.87s-6.42-1.12-7.75-2.37-40.83-1.75-55.25,0S192.47,182.46,181.39,183ZM193,188c0-8.55,14.31-7.87,14.31-7.87s38.75-.71,41-.62,11.38-1.5,11.38,7.87v8.5c-.25,20.35-16.75,17.75-18,18s-29.17.29-31.62,0-15.83,1-16.87-15.75Z"/><path class="cls-10" d="M188.22,45.11s-.91-2.37-5.29-5.2a125.58,125.58,0,0,1,13.17,4.42A16.57,16.57,0,0,0,193.33,42a24.59,24.59,0,0,1,9.59,4.11s.2-2.12-.33-2.75c2.66.47,11.25,7.08,11.25,7.08l-25.21-.75Z"/><rect class="cls-13" x="7.39" y="-39.65" width="197.55" height="395" transform="translate(151.6 342.58) rotate(-159.89)"/></g></g></svg>