<svg id="perso01" data-name="Calque 1" xmlns="http://www.w3.org/2000/svg" xmlns:xlink="http://www.w3.org/1999/xlink" viewBox="0 0 377.27 377.27"><defs><style>.cls-1{fill:none;}.cls-2{clip-path:url(#clip-path);}.cls-3{fill:#fff;opacity:0.15;}.cls-4{clip-path:url(#clip-path-2);}.cls-5{fill:#cad3d8;}.cls-6{fill:#f2c6a5;}.cls-7{fill:#170521;}.cls-8{fill:#fcd4b1;}.cls-9{fill:#f4c6a4;}.cls-10{fill:#fdc99a;}.cls-11{fill:#1d0421;}</style><clipPath id="clip-path"><path class="cls-1" d="M423,188.64c0,104.18,84.45,188.63,188.63,188.63s188.63-84.45,188.63-188.63S715.79,0,611.61,0,423,84.46,423,188.64"/></clipPath><clipPath id="clip-path-2"><path class="cls-1" d="M0,188.64C0,292.82,84.45,377.27,188.63,377.27s188.63-84.45,188.63-188.63S292.81,0,188.63,0,0,84.46,0,188.64"/></clipPath></defs><title>perso01</title><g id="User_5" data-name="User 5"><g class="cls-2"><rect class="cls-3" x="430.37" y="-39.65" width="197.55" height="395" transform="translate(971.78 487.99) rotate(-159.89)"/></g></g><g id="User_4" data-name="User 4"><g class="cls-4"><path class="cls-5" d="M377.27,188.64c0,104.18-84.46,188.64-188.63,188.64S0,292.82,0,188.64,84.45,0,188.64,0,377.27,84.46,377.27,188.64"/><rect class="cls-6" x="163.76" y="308.86" width="39.38" height="35.24"/><path class="cls-7" d="M87.47,163.55S80,173.28,77.9,209.88c-1.81,32.31-10,82.2-32.85,88.14,73.33,14,235,12.4,275.71-7.6-20-14.66-25.11-64.91-27.55-101.79-1.55-23.48-16.75-31.42-16.75-31.42Z"/><path class="cls-6" d="M262.13,363.84c-14.12-16.13-42.66-25.95-75.57-25.95-32.71,0-61.1,9.7-75.31,25.66-6.18,6.94,156.9,7.17,150.88.29"/><path class="cls-8" d="M273.63,163.5c0,63-16.45,157.67-89.64,157.67S95.63,228.47,95.63,165.5s30.76-90.5,88-90.5,90,25.53,90,88.5"/><polygon class="cls-9" points="169.12 264 196.07 264 183.63 274.37 169.12 264"/><path class="cls-10" d="M157.61,257.82a20.73,20.73,0,1,1-20.73-20.73,20.73,20.73,0,0,1,20.73,20.73"/><path class="cls-10" d="M251.11,257.82a20.73,20.73,0,1,1-20.73-20.73,20.73,20.73,0,0,1,20.73,20.73"/><path d="M109.86,364.83s12.44-26.95,37.31-22.8c49.75,43.53,78.77,0,78.77,0s33.17-2.07,39.39,22.8-151.32,31.09-155.47,0"/><path class="cls-11" d="M188.94,196.25l-.16,0-.14,0Z"/><path class="cls-7" d="M220.13,141.55c-37,40-142.23,70.34-142.23,70.34S58.63,74.93,183.63,75c123.55.07,109.14,130.89,109.14,130.89S252.47,178.6,220.13,141.55Z"/><rect class="cls-3" x="5.44" y="-39.65" width="197.55" height="395" transform="translate(147.81 341.9) rotate(-159.89)"/></g></g></svg>