<svg id="perso06" data-name="Calque 1" xmlns="http://www.w3.org/2000/svg" xmlns:xlink="http://www.w3.org/1999/xlink" viewBox="0 0 377.27 377.27"><defs><style>.cls-1,.cls-10{fill:none;}.cls-2{clip-path:url(#clip-path);}.cls-3{fill:#cad3d8;}.cls-4{fill:#d1651c;}.cls-5{fill:#f2c6a5;}.cls-6{fill:#fcd4b1;}.cls-7{fill:#f4c6a4;}.cls-8{fill:#fdc99a;}.cls-9{fill:#dc3934;}.cls-10{stroke:#0c0c0c;stroke-miterlimit:10;stroke-width:0.25px;}.cls-11{fill:#1d0421;}.cls-12{fill:#fff;opacity:0.15;}</style><clipPath id="clip-path"><path class="cls-1" d="M0,188.64C0,292.82,84.45,377.27,188.63,377.27s188.63-84.45,188.63-188.63S292.81,0,188.63,0,0,84.46,0,188.64"/></clipPath></defs><title>perso06</title><g id="User_3" data-name="User 3"><g class="cls-2"><path class="cls-3" d="M377.27,188.64c0,104.18-84.46,188.64-188.63,188.64S0,292.82,0,188.64,84.45,0,188.64,0,377.27,84.46,377.27,188.64"/><path class="cls-4" d="M318,388.27,58,382.83s24.84-44,29.08-84,0-96,0-96l196.63,3.95s-2.59,35.38,2.51,93.38S318,388.27,318,388.27Z"/><rect class="cls-5" x="163.76" y="308.86" width="39.38" height="35.24"/><path class="cls-5" d="M262.13,363.84c-14.12-16.13-42.66-25.95-75.57-25.95-32.71,0-61.1,9.7-75.31,25.66-6.18,6.94,156.9,7.17,150.88.29"/><path class="cls-6" d="M273.63,173.73c0,63,7.43,128.54-90,149.27-91.21-16.58-88-84.3-88-147.27s35.76-86.61,93-86.61,85,21.64,85,84.61"/><polygon class="cls-7" points="169.12 245 196.07 245 183.63 255.37 169.12 245"/><path class="cls-8" d="M153.61,250.82a20.73,20.73,0,1,1-20.73-20.73,20.73,20.73,0,0,1,20.73,20.73"/><path class="cls-8" d="M253.11,250.82a20.73,20.73,0,1,1-20.73-20.73,20.73,20.73,0,0,1,20.73,20.73"/><path class="cls-9" d="M109.86,364.83s12.44-26.95,37.31-22.8c49.75,43.53,78.77,0,78.77,0s33.17-2.07,39.39,22.8-151.32,31.09-155.47,0"/><path class="cls-10" d="M163.76,339.63l.22.11"/><path class="cls-10" d="M202.93,338.88l.21-.13"/><path class="cls-11" d="M188.94,196.25l-.16,0-.14,0Z"/><path class="cls-4" d="M89.18,233.62c31.61-21,56.32-119.38,56.32-119.38s43.68,82.25,138.18,94.25c-2.11-38.38,19.07-131-94.79-133.25C54.93,72.63,89.16,226.65,89.18,233.62Z"/><rect class="cls-12" x="5.44" y="-39.65" width="197.55" height="395" transform="translate(147.81 341.9) rotate(-159.89)"/></g></g></svg>