<svg id="perso03" data-name="Calque 1" xmlns="http://www.w3.org/2000/svg" xmlns:xlink="http://www.w3.org/1999/xlink" viewBox="0 0 377.27 364.83"><defs><style>.cls-1{fill:none;}.cls-2{clip-path:url(#clip-path);}.cls-3{fill:#cad3d8;}.cls-4{fill:#f2c6a5;}.cls-5{fill:#fcd4b1;}.cls-6{fill:#f4c6a4;}.cls-7{fill:#bf6411;}.cls-8{fill:#1d0421;}.cls-9{fill:#bc9661;}.cls-10{fill:#fff;opacity:0.15;}</style><clipPath id="clip-path"><path class="cls-1" d="M0,188.64C0,292.82,84.45,377.27,188.63,377.27s188.63-84.45,188.63-188.63S292.82,0,188.63,0,0,84.46,0,188.64"/></clipPath></defs><title>perso03</title><g id="User_6" data-name="User 6"><g class="cls-2"><path class="cls-3" d="M377.44,188.64c0,104.18-84.46,188.64-188.63,188.64S.17,292.82.17,188.64,84.62,0,188.8,0,377.44,84.46,377.44,188.64"/><rect class="cls-4" x="160.76" y="308.86" width="39.38" height="35.24"/><path class="cls-4" d="M258.88,363.84c-14.12-16.13-42.66-25.95-75.57-25.95-32.71,0-61.1,9.7-75.31,25.66-6.18,6.94,156.9,7.17,150.88.29"/><path class="cls-5" d="M282.63,146c0,63-22,177-102,177S82,208.07,82,145.1,123.39,56,180.63,56s102,27,102,90"/><polygon class="cls-6" points="166.13 245 193.07 245 180.63 255.37 166.13 245"/><path class="cls-7" d="M106.86,364.83s19.53-25.67,50-24.71c0,0,9.09,11.88,23.59,11.63s22.76-12.61,22.76-12.61,52.87.82,59.09,25.7-151.32,31.09-155.47,0"/><path class="cls-5" d="M285,211.56c-1.6,4.84-5.43,11.42-9.28,9.95s-1.17-6.89-.46-12.65.39-19.6,7.33-18.75S286.82,206,285,211.56"/><path class="cls-5" d="M78.77,211.56c1.6,4.84,5.43,11.42,9.28,9.95s1.17-6.89.46-12.65-.39-19.6-7.33-18.75S77,206,78.77,211.56"/><path class="cls-8" d="M185.94,196.25l-.16,0-.14,0Z"/><path class="cls-9" d="M180.63,56c-134,0-96,132.63-96,132.63s34.56-12.12,60.56-49.45c0,0,1.14,11.08-9.33,26,16.67-5.33,28-26.67,28-26.67a43.17,43.17,0,0,1-4.67,20.67c21.33,2,72-38,72-38s6,34.67,18,56.67c1.33-13.33,6.67-27.33,6.67-27.33,14.67,15.33,22.78,38.12,22.78,38.12S314.59,56,180.63,56Z"/><rect class="cls-10" x="7.39" y="-39.65" width="197.55" height="395" transform="translate(151.6 342.58) rotate(-159.89)"/></g></g></svg>