<svg id="perso07" data-name="Calque 1" xmlns="http://www.w3.org/2000/svg" xmlns:xlink="http://www.w3.org/1999/xlink" viewBox="0 0 377.27 377.27"><defs><style>.cls-1,.cls-11{fill:none;}.cls-2{clip-path:url(#clip-path);}.cls-3{fill:#cad3d8;}.cls-4{fill:#f2c6a5;}.cls-5{fill:#f9d4b2;}.cls-6{fill:#f4c6a4;}.cls-7{fill:#f7ca9f;}.cls-8{fill:#48194c;}.cls-9{fill:#1d0421;}.cls-10{fill:#fff;opacity:0.15;}.cls-11{stroke:#3f2e0f;stroke-miterlimit:10;}.cls-12{fill:#724e14;}</style><clipPath id="clip-path"><path class="cls-1" d="M0,188.64C0,292.82,84.45,377.27,188.63,377.27s188.63-84.45,188.63-188.63S292.82,0,188.63,0,0,84.46,0,188.64"/></clipPath></defs><title>perso07</title><g id="User_4" data-name="User 4"><g class="cls-2"><path class="cls-3" d="M377.27,188.64c0,104.18-84.46,188.64-188.63,188.64S0,292.82,0,188.64,84.45,0,188.64,0,377.27,84.46,377.27,188.64"/><rect x="77.85" y="181.67" width="214.84" height="187.2"/><rect class="cls-4" x="163.76" y="308.86" width="39.38" height="35.24"/><path class="cls-4" d="M262.13,363.84c-14.12-16.13-42.66-25.95-75.57-25.95-32.71,0-61.1,9.7-75.31,25.66-6.18,6.94,156.9,7.17,150.88.29"/><path class="cls-5" d="M273.63,163.5c0,63-16.45,157.67-89.64,157.67S95.63,228.47,95.63,165.5s30.76-90.5,88-90.5,90,25.53,90,88.5"/><polygon class="cls-6" points="169.12 264 196.07 264 183.63 274.37 169.12 264"/><path class="cls-7" d="M157.61,257.82a20.73,20.73,0,1,1-20.73-20.73,20.73,20.73,0,0,1,20.73,20.73"/><path class="cls-7" d="M251.11,257.82a20.73,20.73,0,1,1-20.73-20.73,20.73,20.73,0,0,1,20.73,20.73"/><path class="cls-8" d="M109.86,365s12.44-26.95,37.31-22.8c17,14.84,29.64,25.93,41.46,25.71,22.83-.43,37.31-25.71,37.31-25.71s33.17-2.07,39.39,22.8S114,396.14,109.86,365"/><path class="cls-9" d="M188.94,196.25l-.16,0-.14,0Z"/><path d="M190.35,131.83c-37,40-112.44,80.05-112.44,80.05S58.63,74.93,183.63,75c123.55.07,109.14,130.89,109.14,130.89S222.68,168.88,190.35,131.83Z"/><rect class="cls-10" x="5.44" y="-39.65" width="197.55" height="395" transform="translate(147.81 341.9) rotate(-159.89)"/><path class="cls-11" d="M154.85,341.17s23.66,34.58,31.41,34.58,29.5-35.25,29.5-35.25"/><rect class="cls-12" x="183.83" y="376.13" width="4.43" height="3.5" rx="0.79" ry="0.79"/></g></g></svg>