<svg id="perso05" data-name="Calque 1" xmlns="http://www.w3.org/2000/svg" xmlns:xlink="http://www.w3.org/1999/xlink" viewBox="0 0 377.1 377.27"><defs><style>.cls-1{fill:none;}.cls-2{clip-path:url(#clip-path);}.cls-3{fill:#cad3d8;}.cls-4{fill:#f2c6a5;}.cls-5{fill:#fcd4b1;}.cls-6{fill:#f4c6a4;}.cls-7{fill:#4b651b;}.cls-8{fill:#1d0421;}.cls-9{fill:#a57f41;}.cls-10{fill:#fff;opacity:0.15;}</style><clipPath id="clip-path"><path class="cls-1" d="M-.17,188.64c0,104.18,84.45,188.63,188.63,188.63S377.1,292.82,377.1,188.64,292.65,0,188.47,0-.17,84.46-.17,188.64"/></clipPath></defs><title>perso05</title><g id="User_2" data-name="User 2"><g class="cls-2"><path class="cls-3" d="M377.27,188.64c0,104.18-84.46,188.64-188.63,188.64S0,292.82,0,188.64,84.46,0,188.64,0,377.27,84.46,377.27,188.64"/><rect class="cls-4" x="160.59" y="308.86" width="39.38" height="35.24"/><path class="cls-4" d="M258.71,363.84c-14.12-16.13-42.66-25.95-75.57-25.95-32.71,0-61.1,9.7-75.31,25.66-6.18,6.94,156.9,7.17,150.88.29"/><path class="cls-5" d="M282.47,146c0,63-22,177-102,177S81.82,208.07,81.82,145.1,123.23,56,180.47,56s102,27,102,90"/><polygon class="cls-6" points="165.96 245 192.91 245 180.47 255.37 165.96 245"/><path class="cls-7" d="M106.7,364.83s19.53-25.67,50-24.71c0,0,9.09,11.88,23.59,11.63s22.76-12.61,22.76-12.61,52.87.82,59.09,25.7-151.32,31.09-155.47,0"/><path class="cls-5" d="M284.83,211.56c-1.6,4.84-5.43,11.42-9.28,9.95s-1.17-6.89-.46-12.65.39-19.6,7.33-18.75,4.23,15.95,2.41,21.45"/><path class="cls-5" d="M78.61,211.56c1.6,4.84,5.43,11.42,9.28,9.95s1.17-6.89.46-12.65S88,189.25,81,190.1,76.79,206,78.61,211.56"/><path class="cls-8" d="M185.77,196.25l-.16,0-.14,0Z"/><path class="cls-9" d="M120.93,132.23c19.06,19.27,61.84,51.68,100.2,43.22-6.64-5-10.81-32-10.81-32s35.07,15.34,50.1,32c16.13,17.82,9.82,53,9.82,53S331.6,53.64,182.06,53.64,91.81,228.53,91.81,228.53,94,175,120.93,132.23Z"/><rect class="cls-10" x="7.22" y="-39.65" width="197.55" height="395" transform="translate(151.28 342.52) rotate(-159.89)"/></g></g></svg>